<?xml version="1.0" standalone="no"?>
<!DOCTYPE svg PUBLIC "-//W3C//DTD SVG 20010904//EN"
 "http://www.w3.org/TR/2001/REC-SVG-20010904/DTD/svg10.dtd">
<svg version="1.0" xmlns="http://www.w3.org/2000/svg"
 width="700.000000pt" height="700.000000pt" viewBox="0 0 700.000000 700.000000"
 preserveAspectRatio="xMidYMid meet">
<metadata>
Created by potrace 1.14, written by Peter Selinger 2001-2017
</metadata>
<g transform="translate(0.000000,700.000000) scale(0.100000,-0.100000)"
fill="#000000" stroke="none">
<path d="M6199 6987 c-4 -47 -4 -75 3 -94 4 -12 4 -24 0 -27 -6 -3 -8 -401 -2
-416 1 -3 1 -9 0 -15 -6 -26 -5 -52 2 -73 4 -13 5 -21 0 -19 -9 6 -8 -406 2
-421 3 -6 3 -13 -1 -15 -10 -6 -9 -290 1 -305 3 -6 3 -13 -1 -15 -7 -4 -9
-401 -3 -417 1 -3 1 -9 0 -15 -2 -5 -2 -25 -1 -44 2 -34 1 -34 -81 54 -316
335 -777 529 -1253 529 -93 0 -243 -11 -267 -19 -7 -2 -29 -6 -48 -9 -19 -3
-46 -8 -60 -11 -14 -3 -36 -7 -49 -10 -63 -12 -319 -106 -347 -127 -6 -4 -37
-22 -70 -39 -58 -31 -191 -120 -242 -162 -108 -90 -202 -185 -268 -269 l-21
-27 -39 46 c-43 52 -99 109 -161 166 -55 49 -225 177 -237 177 -5 0 -17 6 -25
14 -23 21 -204 109 -286 139 -56 21 -252 78 -263 77 -2 -1 -49 6 -102 16 -73
13 -395 12 -485 -1 -225 -32 -405 -93 -587 -197 -181 -103 -365 -253 -460
-376 -23 -29 -44 -49 -47 -43 -3 5 -6 134 -5 288 l0 278 -398 0 -398 0 2
-2800 3 -2800 395 0 395 0 2 1070 c0 589 2 1074 2 1078 1 5 11 -3 24 -18 105
-126 308 -301 432 -371 98 -56 166 -92 200 -106 45 -20 96 -40 108 -43 4 -2 9
-4 12 -5 3 -1 10 -4 15 -5 6 -1 11 -3 13 -5 1 -1 9 -3 17 -5 8 -2 43 -11 77
-20 72 -19 94 -23 143 -30 19 -3 46 -7 60 -10 40 -9 340 -13 405 -5 125 16
170 22 176 26 3 2 21 6 40 9 36 6 134 32 159 42 8 4 17 7 20 7 69 17 337 153
400 203 8 6 44 34 80 60 72 53 233 211 294 287 l39 48 36 -43 c99 -123 291
-290 427 -372 120 -72 384 -190 384 -171 0 4 6 2 13 -4 7 -6 26 -14 42 -17 33
-7 57 -13 65 -15 3 -1 10 -3 15 -4 6 -1 30 -5 55 -10 103 -20 191 -26 335 -26
169 1 223 7 414 46 154 31 449 175 585 284 96 78 211 194 263 267 21 29 41 52
45 53 4 0 6 -19 4 -42 -1 -24 1 -53 5 -65 5 -12 5 -24 1 -27 -5 -3 -7 -287 -3
-427 l1 -25 400 0 400 0 0 2693 0 2693 -400 0 c-306 -1 -400 -4 -401 -13z
m-974 -2030 c11 -3 52 -13 90 -23 261 -66 499 -241 657 -484 33 -51 118 -212
118 -223 0 -3 5 -18 12 -34 6 -15 12 -30 13 -33 23 -76 29 -98 31 -110 2 -8 6
-26 9 -40 26 -99 39 -224 39 -385 0 -204 -13 -303 -62 -481 -72 -261 -267
-538 -474 -677 -82 -54 -175 -106 -200 -111 -7 -2 -26 -9 -43 -15 -16 -7 -37
-14 -45 -16 -8 -3 -40 -11 -70 -19 -91 -26 -129 -30 -265 -29 -134 0 -176 4
-258 28 -26 8 -51 15 -55 16 -33 8 -146 51 -152 59 -3 3 -18 11 -35 19 -60 26
-192 121 -257 185 -123 122 -229 283 -291 441 -19 50 -38 99 -42 110 -21 54
-23 102 -10 270 14 168 8 434 -11 555 -11 65 -7 94 25 189 35 103 92 223 146
306 61 94 247 295 273 295 5 0 18 9 29 20 36 33 203 117 288 145 130 42 215
54 375 50 80 -2 154 -5 165 -8z m-3105 -21 c239 -33 500 -169 659 -342 70 -76
151 -185 151 -203 0 -6 3 -11 8 -11 4 0 16 -19 26 -43 11 -23 25 -48 30 -55 6
-8 12 -23 13 -35 2 -12 7 -24 11 -27 10 -6 57 -147 71 -211 13 -58 29 -153 37
-224 5 -43 4 -293 0 -335 -14 -112 -18 -140 -32 -204 -8 -39 -17 -78 -19 -86
-4 -18 -34 -109 -42 -130 -4 -8 -7 -17 -7 -20 -1 -3 -16 -35 -34 -72 -17 -37
-32 -71 -32 -76 0 -6 -7 -13 -16 -16 -9 -4 -14 -9 -11 -13 14 -14 -127 -198
-223 -290 -67 -65 -280 -206 -280 -186 0 4 -4 3 -8 -2 -13 -19 -144 -67 -242
-88 -83 -19 -266 -26 -345 -14 -112 18 -156 27 -175 37 -11 6 -20 7 -20 3 0
-4 -5 -2 -12 5 -7 7 -18 12 -26 12 -24 0 -175 75 -252 125 -40 26 -107 80
-149 121 -73 69 -191 219 -191 242 0 6 -4 12 -9 14 -21 8 -129 252 -146 333
-3 11 -11 47 -19 80 -52 212 -50 560 5 780 68 269 209 504 412 683 20 17 41
32 47 32 5 0 10 5 10 10 0 6 6 10 14 10 8 0 16 4 18 8 4 9 108 71 158 94 67
31 85 37 150 57 142 44 317 58 470 37z"/>
</g>
</svg>
