<svg width="225" height="225" viewBox="0 0 225 225" fill="none" xmlns="http://www.w3.org/2000/svg">
<circle cx="112.5" cy="112.5" r="111.5" fill="#ECECEC"/>
<path d="M53.0503 155.281C50.2469 155.509 47.441 154.871 45.0117 153.454C42.5824 152.036 40.6466 149.907 39.4659 147.354C38.2852 144.802 37.9165 141.948 38.4095 139.179C38.9025 136.41 40.2336 133.859 42.2228 131.87C44.2121 129.882 46.7637 128.552 49.533 128.06C52.3023 127.568 55.1558 127.938 57.7082 129.12C60.2605 130.301 62.3887 132.238 63.8052 134.668C65.2217 137.098 65.8583 139.904 65.629 142.707C65.3604 145.953 63.9488 148.998 61.6453 151.301C59.3419 153.603 56.2962 155.013 53.0503 155.281Z" fill="white"/>
<path d="M53.0504 155.281L53.2702 155.24L53.9193 155.148C54.2637 155.097 54.605 155.027 54.9415 154.938C55.4112 154.833 55.8738 154.698 56.3267 154.534C59.2469 153.506 61.7366 151.526 63.3955 148.912C63.9432 148.06 64.3957 147.149 64.7448 146.198C64.9199 145.695 65.0684 145.183 65.1895 144.665C65.2457 144.394 65.3122 144.128 65.3582 143.852C65.4042 143.576 65.4298 143.295 65.4655 143.009C65.5015 142.724 65.5169 142.437 65.5115 142.15C65.5115 141.864 65.5115 141.572 65.5115 141.276C65.4809 140.693 65.4297 140.095 65.348 139.497C65.2866 139.196 65.2304 138.899 65.1691 138.598C65.1333 138.449 65.1129 138.296 65.072 138.148L64.9289 137.703C64.8368 137.407 64.7397 137.105 64.6426 136.804L64.2593 135.935L64.0651 135.495C63.9935 135.352 63.9066 135.214 63.8248 135.071L63.3137 134.228L62.731 133.43L62.4397 133.026L62.1023 132.653C61.207 131.622 60.159 130.735 58.9947 130.021L58.0849 129.51C57.7731 129.351 57.446 129.224 57.124 129.075C56.9605 129.009 56.802 128.927 56.6129 128.866L56.1018 128.707C55.7665 128.588 55.4253 128.485 55.0795 128.401C53.6579 128.073 52.196 127.954 50.7401 128.048C47.9583 128.292 45.317 129.378 43.1683 131.162C41.0195 132.945 39.4655 135.341 38.7134 138.03C38.3929 139.236 38.2348 140.479 38.2431 141.726C38.231 142.026 38.2447 142.327 38.284 142.625L38.3607 143.515C38.468 144.087 38.5652 144.665 38.7134 145.212C39.2804 147.254 40.3086 149.139 41.7188 150.722C42.8874 152.022 44.2879 153.093 45.8487 153.88L46.8709 154.335C47.198 154.478 47.5354 154.56 47.8471 154.672C48.4202 154.858 49.0062 155.002 49.6003 155.102C50.4236 155.247 51.2587 155.313 52.0946 155.301H52.9686H52.7488L52.0946 155.332C51.255 155.364 50.4143 155.313 49.585 155.178C48.984 155.086 48.391 154.948 47.8114 154.764C47.4945 154.662 47.152 154.58 46.8198 154.437L45.7975 153.988C44.0362 153.124 42.4767 151.899 41.2208 150.392C39.9649 148.885 39.0409 147.13 38.5089 145.242C38.3556 144.685 38.2585 144.102 38.1409 143.52L38.0643 142.62C38.026 142.317 38.0106 142.011 38.0183 141.705C37.9878 139.7 38.3992 137.712 39.2234 135.884C40.0476 134.055 41.2643 132.43 42.787 131.125C45.0306 129.175 47.8387 127.993 50.8014 127.752C52.285 127.653 53.775 127.775 55.2226 128.115C55.577 128.201 55.9267 128.305 56.2704 128.426L56.7816 128.59C56.9553 128.651 57.1138 128.733 57.2927 128.805C57.6198 128.953 57.952 129.086 58.274 129.249L59.1941 129.76C60.3813 130.492 61.45 131.4 62.363 132.454L62.7004 132.832L63.0019 133.241L63.5897 134.054C63.7533 134.345 63.9219 134.631 64.1008 134.918C64.1775 135.061 64.2695 135.199 64.3411 135.347L64.5404 135.797C64.6682 136.093 64.796 136.39 64.9289 136.686C65.0617 136.983 65.118 137.294 65.2151 137.596L65.3582 138.051C65.3991 138.199 65.4246 138.357 65.4553 138.511L65.6393 139.426C65.716 140.034 65.7671 140.642 65.7978 141.235C65.7978 141.537 65.7978 141.833 65.7722 142.124C65.7733 142.417 65.7562 142.708 65.7211 142.998C65.6802 143.285 65.6444 143.571 65.6086 143.852C65.5729 144.133 65.4911 144.404 65.4349 144.675C65.3083 145.207 65.1548 145.733 64.9748 146.249C64.6126 147.213 64.1483 148.135 63.5897 148.999C62.6263 150.487 61.3897 151.779 59.9454 152.807C58.8555 153.574 57.6609 154.18 56.3982 154.606C55.9381 154.763 55.4687 154.891 54.9926 154.989C54.656 155.072 54.3146 155.133 53.9704 155.173L53.3213 155.24C53.2327 155.263 53.1419 155.277 53.0504 155.281Z" fill="#8B8B8B"/>
<path d="M63.2969 133.108C63.2555 133.047 67.3753 130.11 72.5033 126.546C77.6314 122.983 81.8199 120.14 81.8535 120.213C81.8871 120.287 77.7751 123.211 72.6471 126.775C67.519 130.338 63.3383 133.168 63.2969 133.108Z" fill="#8B8B8B"/>
<path d="M53.2086 141.818C53.857 141.533 54.4072 141.064 54.7908 140.468C55.1743 139.873 55.3742 139.178 55.3656 138.47C55.3929 138.009 55.3259 137.547 55.1687 137.112C55.0115 136.678 54.7674 136.28 54.4513 135.943C54.1352 135.606 53.7537 135.337 53.3302 135.153C52.9066 134.968 52.4499 134.872 51.9879 134.87C51.5259 134.868 51.0684 134.96 50.6432 135.141C50.218 135.321 49.8341 135.587 49.5149 135.921C49.1958 136.255 48.9481 136.651 48.787 137.083C48.6259 137.516 48.5547 137.978 48.5779 138.439C48.5649 139.153 48.7633 139.854 49.148 140.455C49.5327 141.057 50.0865 141.531 50.7399 141.818C45.5162 142.605 45.7514 148.283 45.7514 148.283L58.1103 148.34C58.1103 148.34 58.3914 142.6 53.2086 141.818Z" fill="#145EEF" fill-opacity="0.75"/>
<path d="M159.352 192.059C156.783 193.242 153.912 193.608 151.128 193.108C148.344 192.607 145.78 191.264 143.784 189.26C141.787 187.256 140.454 184.687 139.965 181.901C139.475 179.115 139.852 176.245 141.046 173.681C142.239 171.116 144.191 168.979 146.638 167.559C149.084 166.14 151.908 165.505 154.727 165.741C157.546 165.978 160.224 167.074 162.4 168.881C164.576 170.688 166.145 173.12 166.895 175.848C167.759 179.006 167.476 182.368 166.095 185.336C164.714 188.304 162.324 190.686 159.352 192.059Z" fill="white"/>
<path d="M159.352 192.059C159.411 192.012 159.475 191.972 159.542 191.94L160.123 191.632C160.436 191.463 160.739 191.278 161.033 191.077C161.441 190.814 161.832 190.526 162.204 190.214C163.226 189.368 164.125 188.384 164.876 187.29C166.433 184.973 167.27 182.247 167.28 179.455C167.273 178.912 167.235 178.37 167.167 177.831C167.126 177.559 167.101 177.282 167.049 177.004C166.998 176.727 166.921 176.454 166.854 176.177C166.791 175.896 166.709 175.619 166.607 175.35L166.325 174.517C166.094 173.973 165.837 173.428 165.554 172.888L165.076 172.102C164.994 171.974 164.917 171.84 164.83 171.712L164.542 171.342C164.352 171.09 164.156 170.828 163.961 170.592L163.298 169.903L162.964 169.554C162.846 169.441 162.718 169.343 162.595 169.235L161.844 168.608L161.022 168.054L160.601 167.776L160.159 167.54C158.955 166.878 157.658 166.405 156.311 166.137L155.283 165.957C154.934 165.916 154.574 165.906 154.225 165.875L153.711 165.844H153.197C152.837 165.87 152.478 165.844 152.118 165.911C150.664 166.088 149.244 166.479 147.905 167.072C145.347 168.25 143.211 170.183 141.784 172.61C140.356 175.038 139.706 177.844 139.92 180.652C140.033 181.901 140.311 183.129 140.747 184.305C140.843 184.593 140.959 184.873 141.097 185.143L141.472 185.949C141.78 186.463 142.063 186.977 142.392 187.434C143.632 189.167 145.255 190.592 147.134 191.596C148.684 192.426 150.377 192.958 152.123 193.163L153.238 193.24C153.598 193.24 153.947 193.24 154.266 193.24C154.872 193.218 155.477 193.152 156.074 193.045C156.91 192.889 157.729 192.653 158.52 192.341L159.137 192.115C159.205 192.084 159.278 192.062 159.352 192.048C159.352 192.048 159.286 192.084 159.147 192.141L158.541 192.393C157.759 192.716 156.946 192.958 156.115 193.117C155.519 193.244 154.915 193.328 154.307 193.369C153.968 193.369 153.618 193.42 153.279 193.4L152.144 193.328C150.184 193.12 148.29 192.501 146.585 191.511C144.881 190.521 143.405 189.183 142.253 187.583C141.914 187.111 141.626 186.592 141.313 186.078L140.927 185.256C140.786 184.983 140.666 184.699 140.568 184.408C140.12 183.213 139.833 181.964 139.715 180.693C139.488 177.841 140.138 174.987 141.578 172.514C143.017 170.041 145.178 168.067 147.771 166.856C149.14 166.256 150.589 165.858 152.072 165.675C152.431 165.618 152.801 165.633 153.166 165.608H153.711C153.896 165.608 154.076 165.608 154.255 165.639C154.615 165.664 154.98 165.675 155.334 165.721L156.393 165.906C157.764 166.187 159.084 166.676 160.308 167.355L160.76 167.596L161.182 167.879L162.019 168.449L162.785 169.091C162.908 169.199 163.042 169.302 163.16 169.415L163.499 169.77L164.172 170.474L164.763 171.239L165.051 171.614C165.143 171.743 165.22 171.881 165.302 172.015L165.79 172.817C166.073 173.366 166.33 173.921 166.561 174.471C166.659 174.759 166.751 175.041 166.849 175.319C166.95 175.594 167.032 175.875 167.095 176.161C167.162 176.449 167.224 176.727 167.286 177.009C167.347 177.292 167.368 177.569 167.404 177.847C167.472 178.392 167.508 178.941 167.512 179.491C167.503 180.528 167.383 181.562 167.152 182.574C166.445 185.624 164.722 188.343 162.266 190.286C161.888 190.595 161.49 190.878 161.074 191.134C160.776 191.324 160.467 191.496 160.149 191.648L159.558 191.935L159.352 192.059Z" fill="#8B8B8B"/>
<path d="M154.862 179.172C155.512 178.884 156.064 178.412 156.45 177.814C156.835 177.216 157.037 176.518 157.03 175.807C157.058 175.343 156.991 174.879 156.833 174.442C156.675 174.005 156.43 173.605 156.113 173.266C155.795 172.927 155.412 172.657 154.986 172.471C154.561 172.285 154.102 172.188 153.637 172.186C153.173 172.183 152.713 172.276 152.285 172.457C151.858 172.638 151.472 172.905 151.151 173.24C150.829 173.576 150.58 173.973 150.418 174.408C150.256 174.843 150.184 175.307 150.207 175.771C150.191 176.489 150.39 177.196 150.776 177.802C151.163 178.407 151.722 178.884 152.38 179.172C147.113 179.964 147.365 185.662 147.365 185.662L159.784 185.718C159.784 185.718 160.067 179.958 154.862 179.172Z" fill="#145EEF" fill-opacity="0.75"/>
<path d="M142.654 171.075C142.608 171.131 140.367 169.436 137.649 167.283C134.931 165.13 132.768 163.337 132.814 163.28C132.861 163.224 135.101 164.919 137.814 167.072C140.527 169.225 142.7 171.018 142.654 171.075Z" fill="#8B8B8B"/>
<path d="M61.1585 58.2958C58.3245 58.5266 55.4881 57.882 53.0322 56.4493C50.5762 55.0165 48.6192 52.8646 47.4253 50.284C46.2315 47.7035 45.8583 44.8188 46.3563 42.0194C46.8542 39.2201 48.1993 36.641 50.2098 34.6305C52.2203 32.6199 54.7994 31.2749 57.5988 30.7769C60.3981 30.279 63.2829 30.6521 65.8634 31.846C68.4439 33.0399 70.5959 34.9969 72.0286 37.4528C73.4614 39.9087 74.1059 42.7452 73.8752 45.5791C73.6038 48.8611 72.1769 51.9403 69.8482 54.2689C67.5196 56.5975 64.4404 58.0245 61.1585 58.2958Z" fill="#FAFAFA"/>
<path d="M61.1371 58.3212C61.2091 58.3004 61.2829 58.2866 61.3576 58.2801L62.0088 58.1824C62.3548 58.1343 62.6974 58.0639 63.0343 57.9716C63.5061 57.8676 63.9704 57.7319 64.424 57.5653C66.3594 56.878 68.1198 55.7709 69.5796 54.323C71.0394 52.8751 72.1627 51.1221 72.8694 49.1889C73.048 48.6839 73.1969 48.1688 73.3155 47.6463C73.3719 47.3789 73.4437 47.1321 73.4847 46.8287L73.5924 45.9854C73.6275 45.6989 73.6446 45.4103 73.6437 45.1216V44.2423C73.6129 43.651 73.5616 43.0493 73.4847 42.4477L73.3001 41.5427C73.2693 41.3936 73.2437 41.2393 73.2027 41.0902L73.0591 40.6429C72.9668 40.3446 72.8694 40.0464 72.7719 39.743L72.4181 38.8277L72.2233 38.3855C72.1515 38.2415 72.0643 38.1027 71.9874 37.9639L71.4746 37.1103C71.2798 36.848 71.09 36.5961 70.8952 36.3081L70.5978 35.9019L70.2593 35.5317C69.3613 34.4928 68.3099 33.598 67.1417 32.8784L66.2289 32.3642C65.9161 32.2048 65.588 32.0711 65.2649 31.9271C65.1008 31.8551 64.9419 31.778 64.7521 31.7163L64.2394 31.5517C63.8958 31.454 63.5625 31.3152 63.2138 31.2432C61.7891 30.9147 60.3242 30.7969 58.8655 30.8935C55.9893 31.1499 53.2663 32.3065 51.0816 34.1999C49.0456 35.9792 47.5703 38.3144 46.8358 40.9205C46.5143 42.135 46.3557 43.3869 46.3641 44.6434C46.3547 44.9457 46.3684 45.2482 46.4051 45.5484L46.482 46.438C46.5948 47.019 46.6871 47.5949 46.8358 48.1451C47.4045 50.201 48.438 52.0978 49.8561 53.6882C51.0274 54.9974 52.4326 56.0752 53.9993 56.866L55.0248 57.3288C55.353 57.4728 55.6914 57.555 56.0042 57.663C56.5794 57.8505 57.1671 57.9966 57.763 58.1001C58.5893 58.2431 59.4269 58.3103 60.2654 58.3006H60.9217C60.995 58.2927 61.0689 58.2927 61.1422 58.3006C61.0689 58.3076 60.9951 58.3076 60.9217 58.3006L60.2654 58.3315C58.8114 58.3896 57.3581 58.1983 55.9683 57.7659C55.6504 57.6579 55.3068 57.5756 54.9735 57.4368L53.948 56.9791C52.1804 56.1126 50.6152 54.8814 49.3551 53.3661C48.095 51.8508 47.1683 50.0856 46.6358 48.1862C46.482 47.6258 46.3846 47.0396 46.2718 46.4482L46.1897 45.5432C46.1512 45.238 46.1358 44.9303 46.1436 44.6228C46.1328 43.3459 46.2914 42.0732 46.6153 40.8383C47.3786 38.0753 48.967 35.6128 51.167 33.7818C53.367 31.9507 56.0732 30.8387 58.9219 30.5953C60.4083 30.497 61.901 30.6183 63.3523 30.9553C63.7163 31.0272 64.0548 31.1661 64.3778 31.2689L64.8906 31.4335C65.0598 31.5003 65.2239 31.5774 65.4034 31.6494C65.7315 31.7985 66.07 31.9374 66.3879 32.0968L67.3006 32.6573C68.4902 33.391 69.5606 34.3032 70.4747 35.362L70.8183 35.7425L71.1157 36.1539L71.7054 36.9766C71.8746 37.2645 72.0387 37.5576 72.2181 37.8405C72.3002 37.9896 72.3874 38.1284 72.4591 38.2724L72.6591 38.7249L73.0488 39.6196C73.1463 39.9281 73.2437 40.2366 73.336 40.54L73.4796 40.9925C73.5206 41.1468 73.5462 41.301 73.577 41.4553L73.7616 42.3757C73.8385 42.9876 73.8898 43.5995 73.9205 44.2012C73.9205 44.4994 73.9205 44.7976 73.9205 45.0959C73.9241 45.3881 73.907 45.6802 73.8693 45.97C73.8334 46.258 73.7924 46.5459 73.7565 46.8287C73.7206 47.1116 73.6385 47.3841 73.5821 47.6618C73.4562 48.1974 73.3021 48.7261 73.1206 49.2455C72.7593 50.2157 72.2934 51.1433 71.731 52.0119C70.7615 53.5178 69.5114 54.822 68.0493 55.853C66.9457 56.6274 65.7369 57.2387 64.4599 57.6682C63.9992 57.8276 63.528 57.9548 63.0497 58.0487C62.7047 58.1379 62.3532 58.1997 61.9985 58.2338L61.3473 58.3058C61.2778 58.3169 61.2075 58.322 61.1371 58.3212Z" fill="#8B8B8B"/>
<path d="M61.3257 44.695C61.9799 44.4001 62.535 43.9174 62.9226 43.3062C63.3103 42.6949 63.5135 41.9819 63.5075 41.2549C63.5412 40.777 63.4779 40.2972 63.3215 39.8453C63.1651 39.3933 62.9191 38.9787 62.5985 38.6274C62.278 38.276 61.8898 37.9952 61.458 37.8025C61.0263 37.6098 60.5602 37.5093 60.0886 37.5071C59.617 37.505 59.15 37.6012 58.7166 37.79C58.2832 37.9787 57.8925 38.2559 57.5688 38.6043C57.2452 38.9527 56.9954 39.365 56.8351 39.8155C56.6747 40.266 56.6071 40.7452 56.6366 41.2234C56.6235 41.9566 56.8241 42.6774 57.2132 43.2952C57.6023 43.9129 58.1626 44.3999 58.8235 44.695C53.5397 45.5039 53.7827 51.339 53.7827 51.339L66.2786 51.3968C66.2786 51.3968 66.5784 45.4881 61.3257 44.695Z" fill="#145EEF" fill-opacity="0.75"/>
<path d="M82.2543 65.2855C82.2032 65.3428 79.1941 62.9018 75.573 59.8349C71.9519 56.768 69.0142 54.233 69.0601 54.1757C69.106 54.1183 72.0947 56.5593 75.7413 59.6262C79.388 62.6932 82.3002 65.2333 82.2543 65.2855Z" fill="#8B8B8B"/>
<path d="M145.259 43.9134C142.439 44.1447 139.617 43.5048 137.172 42.0802C134.728 40.6556 132.78 38.515 131.591 35.9475C130.402 33.3801 130.03 30.5097 130.525 27.7241C131.02 24.9384 132.359 22.3719 134.359 20.3713C136.36 18.3707 138.926 17.0325 141.712 16.5374C144.497 16.0423 147.368 16.4143 149.935 17.603C152.503 18.7918 154.643 20.74 156.068 23.1844C157.493 25.6289 158.132 28.4517 157.901 31.2715C157.631 34.5339 156.212 37.5946 153.897 39.9094C151.582 42.2242 148.522 43.6429 145.259 43.9134Z" fill="white"/>
<path d="M145.259 43.9134C145.331 43.8898 145.405 43.8754 145.48 43.8706L146.128 43.7637C146.48 43.715 146.827 43.6436 147.169 43.5499C147.639 43.4628 148.103 43.3462 148.559 43.2007C150.491 42.5071 152.247 41.3987 153.705 39.9533C155.163 38.5079 156.286 36.7607 156.996 34.8346C157.358 33.7924 157.597 32.7113 157.709 31.6135C157.958 29.186 157.547 26.7361 156.518 24.523C156.247 23.9347 155.94 23.3635 155.599 22.8127L155.015 22.0146L154.723 21.6084L154.388 21.2378C153.487 20.2053 152.435 19.3162 151.266 18.6011C150.058 17.8605 148.743 17.3078 147.368 16.9621C145.945 16.6311 144.48 16.5134 143.021 16.6129C140.487 16.8187 138.061 17.7284 136.016 19.2393C133.971 20.7502 132.389 22.8024 131.448 25.1644C130.507 27.5263 130.245 30.1042 130.691 32.6073C131.137 35.1104 132.273 37.4393 133.971 39.3312C135.135 40.6283 136.529 41.6987 138.083 42.4881L139.102 42.9513C139.437 43.0939 139.772 43.1722 140.085 43.2863C140.661 43.4749 141.249 43.6202 141.846 43.721C142.671 43.8682 143.508 43.9398 144.347 43.9347H145.003H145.231H145.01H144.347C142.889 43.995 141.432 43.8095 140.036 43.386C139.715 43.2791 139.373 43.2007 139.031 43.0582L137.99 42.6021C136.377 41.8198 134.926 40.7389 133.715 39.4167C132.255 37.809 131.189 35.8843 130.6 33.7942C130.059 31.8127 129.96 29.7364 130.311 27.7125C130.661 25.6885 131.453 23.7665 132.63 22.0827C133.806 20.3989 135.339 18.9945 137.118 17.9692C138.898 16.9439 140.882 16.3227 142.929 16.1497C144.426 16.0514 145.929 16.1739 147.39 16.5131C148.829 16.878 150.203 17.4672 151.459 18.259C152.655 18.997 153.731 19.9125 154.651 20.9741L154.993 21.3589L155.3 21.7723L155.891 22.5989C156.24 23.164 156.554 23.7494 156.832 24.3519C158.35 27.6759 158.504 31.4628 157.26 34.8987C156.542 36.8604 155.392 38.6352 153.894 40.091C152.396 41.5468 150.59 42.6463 148.608 43.3076C148.142 43.4658 147.666 43.5944 147.183 43.6924C146.836 43.7732 146.483 43.8327 146.128 43.8706L145.473 43.9347C145.401 43.9385 145.329 43.9313 145.259 43.9134Z" fill="#8B8B8B"/>
<path d="M145.416 30.3737C146.062 30.083 146.608 29.6096 146.988 29.0119C147.368 28.4142 147.565 27.7183 147.554 27.0102C147.586 26.5436 147.523 26.0753 147.367 25.6342C147.212 25.1931 146.967 24.7887 146.649 24.4458C146.331 24.1029 145.946 23.8289 145.518 23.6408C145.089 23.4526 144.627 23.3543 144.159 23.3519C143.692 23.3494 143.228 23.4429 142.798 23.6266C142.368 23.8103 141.98 24.0802 141.659 24.4197C141.337 24.7593 141.088 25.1612 140.928 25.6006C140.768 26.04 140.699 26.5076 140.727 26.9745C140.715 27.6967 140.919 28.406 141.312 29.0116C141.706 29.6171 142.271 30.0915 142.936 30.3737C137.684 31.1647 137.948 36.8728 137.948 36.8728L150.369 36.937C150.369 36.937 150.625 31.1861 145.416 30.3737Z" fill="#145EEF" fill-opacity="0.75"/>
<path d="M140.506 43.4929C139.815 45.5616 139.006 47.5889 138.083 49.5644C137.27 51.5898 136.342 53.567 135.303 55.4863C136.003 53.4189 136.816 51.392 137.741 49.4148C138.554 47.392 139.477 45.4151 140.506 43.4929Z" fill="#8B8B8B"/>
<path d="M160.172 128.022C157.224 128.255 154.274 127.606 151.719 126.163C149.165 124.72 147.129 122.552 145.886 119.952C144.644 117.352 144.256 114.445 144.774 111.624C145.291 108.804 146.69 106.205 148.781 104.179C150.873 102.153 153.555 100.798 156.467 100.297C159.379 99.795 162.379 100.171 165.063 101.375C167.747 102.578 169.985 104.55 171.475 107.025C172.964 109.5 173.634 112.358 173.393 115.214C173.111 118.519 171.627 121.62 169.206 123.966C166.785 126.311 163.584 127.748 160.172 128.022Z" fill="white"/>
<path d="M160.143 128.068C160.217 128.047 160.292 128.032 160.368 128.023L161.041 127.928C161.408 127.88 161.772 127.81 162.129 127.716C162.619 127.609 163.101 127.472 163.574 127.307C164.871 126.859 166.097 126.236 167.217 125.457C168.863 124.322 170.24 122.857 171.254 121.16C172.268 119.464 172.895 117.577 173.093 115.625C173.355 113.174 172.93 110.7 171.862 108.464L171.654 108.017C171.58 107.872 171.493 107.732 171.407 107.592L170.9 106.737L170.296 105.904L169.991 105.496L169.64 105.122C168.707 104.075 167.612 103.175 166.394 102.455C165.149 101.697 163.789 101.131 162.365 100.778C160.885 100.445 159.363 100.325 157.847 100.421C154.947 100.667 152.193 101.766 149.953 103.572C147.713 105.378 146.094 107.804 145.311 110.527C144.976 111.746 144.809 113.004 144.816 114.266C144.806 114.571 144.821 114.876 144.862 115.178C144.862 115.479 144.914 115.776 144.937 116.072C145.058 116.631 145.15 117.24 145.305 117.794C145.894 119.866 146.968 121.779 148.442 123.383C149.659 124.701 151.119 125.785 152.747 126.581L153.806 127.045C154.152 127.19 154.503 127.274 154.825 127.386C155.424 127.573 156.036 127.718 156.655 127.822C157.514 127.969 158.385 128.038 159.257 128.029H159.936H160.172H159.936L159.257 128.057C158.381 128.093 157.503 128.043 156.638 127.906C156.011 127.811 155.392 127.672 154.785 127.492C154.457 127.38 154.1 127.302 153.755 127.157L152.673 126.704C151.016 125.909 149.528 124.819 148.287 123.49C146.778 121.873 145.674 119.939 145.064 117.838C144.908 117.279 144.805 116.687 144.684 116.089C144.655 115.792 144.626 115.485 144.597 115.178C144.562 114.87 144.547 114.56 144.551 114.25C144.543 112.964 144.707 111.682 145.041 110.437C145.834 107.656 147.484 105.177 149.768 103.332C152.053 101.487 154.864 100.364 157.824 100.113C159.369 100.015 160.92 100.138 162.428 100.476C163.888 100.827 165.283 101.393 166.567 102.153C167.805 102.893 168.919 103.813 169.87 104.881L170.227 105.267L170.538 105.681L171.154 106.508C171.326 106.798 171.499 107.095 171.672 107.38C171.752 107.525 171.844 107.67 171.919 107.816L172.126 108.274C173.211 110.554 173.637 113.078 173.358 115.574C173.061 118.23 171.986 120.747 170.261 122.827C168.536 124.908 166.233 126.464 163.625 127.313C163.148 127.476 162.66 127.605 162.164 127.699C161.804 127.785 161.438 127.846 161.07 127.883L160.391 127.956L160.143 128.068Z" fill="#8B8B8B"/>
<path d="M159.92 114.293C160.631 114.007 161.234 113.535 161.654 112.937C162.075 112.339 162.294 111.64 162.284 110.928C162.315 110.464 162.243 110 162.071 109.562C161.9 109.125 161.633 108.724 161.286 108.385C160.94 108.046 160.522 107.775 160.057 107.589C159.593 107.403 159.091 107.305 158.585 107.303C158.078 107.301 157.576 107.394 157.109 107.575C156.643 107.757 156.221 108.024 155.872 108.361C155.522 108.697 155.25 109.095 155.074 109.531C154.898 109.967 154.821 110.431 154.847 110.895C154.831 111.613 155.048 112.319 155.47 112.924C155.892 113.528 156.5 114.005 157.217 114.293C151.491 115.086 151.775 120.79 151.775 120.79L165.313 120.846C165.313 120.846 165.597 115.08 159.92 114.293Z" fill="#145EEF" fill-opacity="0.75"/>
<path d="M145.453 117.234C144.291 117.681 143.092 118.031 141.869 118.282C140.68 118.631 139.463 118.884 138.231 119.04C139.393 118.593 140.592 118.243 141.815 117.992C143.004 117.643 144.221 117.39 145.453 117.234Z" fill="#8B8B8B"/>
<path d="M101.646 164.506L95.685 172.336L92.7651 179.874C92.7154 180.002 92.6397 180.119 92.5427 180.218C92.4458 180.316 92.3297 180.393 92.2016 180.445C92.0736 180.496 91.9363 180.52 91.7983 180.517C91.6604 180.513 91.5247 180.481 91.3997 180.422C91.2541 180.355 91.1268 180.255 91.0287 180.128C90.9305 180.002 90.8645 179.853 90.8362 179.696C90.458 177.65 89.1417 170.123 89.6107 169.578C90.1516 168.943 95.337 160.913 95.337 160.913L101.646 164.506Z" fill="#BDBDBD"/>
<g opacity="0.6">
<path opacity="0.6" d="M91.4148 180.414L90.0116 169.034L89.7658 169.37C89.5547 169.661 89.4541 170.018 89.4821 170.376C89.554 171.333 89.8187 173.981 90.821 179.669C90.8483 179.835 90.9166 179.991 91.0197 180.123C91.1228 180.255 91.2573 180.359 91.4111 180.426L91.4148 180.414Z" fill="white"/>
</g>
<g opacity="0.6">
<path opacity="0.6" d="M93.5063 167.649C93.557 167.794 93.5509 167.953 93.4891 168.093C93.4273 168.234 93.3145 168.345 93.1734 168.406C93.0305 168.463 92.8706 168.461 92.7288 168.401C92.5871 168.341 92.4749 168.227 92.417 168.084C92.37 167.933 92.3803 167.769 92.4458 167.625C92.5114 167.481 92.6276 167.366 92.7725 167.301C92.9249 167.263 93.0863 167.285 93.2225 167.363C93.3587 167.442 93.4592 167.57 93.5025 167.721" fill="white"/>
</g>
<path d="M92.1146 175.622C92.4828 175.516 92.8672 175.478 93.2492 175.509C93.6249 175.606 93.9791 175.773 94.2931 176.001C94.312 176.001 94.2591 175.849 94.0927 175.687C93.8655 175.487 93.5861 175.355 93.287 175.308C92.9872 175.254 92.678 175.29 92.3982 175.411C92.1978 175.494 92.0994 175.603 92.1146 175.622Z" fill="#263238"/>
<path d="M91.9026 177.097C92.2231 177.137 92.5413 177.194 92.8557 177.268C93.355 177.438 93.6538 177.771 93.7029 177.729C93.7521 177.687 93.4949 177.26 92.9465 177.063C92.7825 176.985 92.602 176.947 92.4204 176.953C92.2387 176.959 92.0611 177.009 91.9026 177.097Z" fill="#263238"/>
<path d="M92.0505 173.493C92.5495 173.508 93.0464 173.563 93.537 173.656C94.014 173.812 94.4792 174.003 94.9288 174.227C94.5967 173.814 94.1266 173.534 93.605 173.44C93.0971 173.272 92.5458 173.29 92.0505 173.493Z" fill="#263238"/>
<path d="M93.6611 170.966C93.6611 171.027 94.2171 171.163 94.7958 171.556C95.3745 171.95 95.7338 172.419 95.7867 172.381C95.6256 171.957 95.3221 171.603 94.9282 171.379C94.5684 171.095 94.1191 170.949 93.6611 170.966Z" fill="#263238"/>
<path d="M95.3481 168.625C95.7761 168.765 96.1832 168.963 96.5585 169.211C96.8921 169.513 97.1823 169.859 97.4208 170.24C97.4435 170.24 97.4208 170.07 97.3225 169.832C97.1771 169.522 96.9607 169.251 96.6908 169.041C96.4205 168.83 96.1044 168.685 95.768 168.618C95.5108 168.576 95.3481 168.599 95.3481 168.625Z" fill="#263238"/>
<path d="M96.8652 168.758C96.8652 168.758 96.9711 168.671 97.0959 168.463C97.2677 168.167 97.3796 167.841 97.425 167.502C97.4813 167.257 97.4547 167 97.3494 166.772C97.3076 166.7 97.245 166.643 97.17 166.608C97.0951 166.573 97.0112 166.562 96.9295 166.575C96.7749 166.616 96.6404 166.711 96.5513 166.844C96.3766 167.124 96.3049 167.457 96.3483 167.785C96.3918 168.112 96.5478 168.415 96.7896 168.64C97.0335 168.858 97.3367 168.999 97.6607 169.044C97.9846 169.089 98.3147 169.037 98.6088 168.894C98.6839 168.857 98.7499 168.804 98.8022 168.738C98.8545 168.673 98.8918 168.597 98.9114 168.515C98.9234 168.433 98.909 168.349 98.8703 168.274C98.8316 168.2 98.7706 168.141 98.6958 168.103C98.4698 168.005 98.2219 167.969 97.9772 167.997C97.6361 168.011 97.3002 168.086 96.9863 168.22C96.7631 168.315 96.6572 168.394 96.6648 168.406C97.0813 168.267 97.5157 168.189 97.9545 168.175C98.1685 168.158 98.3833 168.196 98.5786 168.285C98.6199 168.304 98.6537 168.336 98.6749 168.377C98.696 168.417 98.7034 168.463 98.6958 168.508C98.6791 168.559 98.6515 168.606 98.6149 168.646C98.5784 168.686 98.5338 168.718 98.484 168.739C98.2269 168.854 97.9418 168.894 97.6629 168.852C97.3839 168.811 97.1228 168.69 96.9106 168.504C96.7092 168.314 96.5777 168.061 96.5372 167.786C96.4967 167.512 96.5496 167.232 96.6875 166.991C96.7476 166.896 96.8404 166.826 96.9484 166.795C96.9933 166.784 97.0405 166.788 97.0828 166.806C97.1252 166.825 97.1603 166.856 97.1829 166.897C97.2725 167.089 97.299 167.305 97.2586 167.513C97.1994 167.947 97.0663 168.368 96.8652 168.758Z" fill="#263238"/>
<path d="M107.837 168.678L108.442 176.662C108.442 176.662 100.5 179.378 100.5 180.865L116.041 180.83L115.61 168.349L107.837 168.678Z" fill="#BDBDBD"/>
<g opacity="0.6">
<path opacity="0.6" d="M113.216 175.8C113.367 175.84 113.498 175.934 113.584 176.065C113.671 176.195 113.706 176.353 113.685 176.507C113.65 176.66 113.559 176.793 113.429 176.88C113.3 176.967 113.143 177.002 112.989 176.976C112.827 176.934 112.687 176.833 112.596 176.694C112.505 176.554 112.47 176.385 112.497 176.22C112.547 176.064 112.657 175.934 112.802 175.858C112.946 175.782 113.115 175.765 113.272 175.812" fill="white"/>
</g>
<g opacity="0.6">
<path opacity="0.6" d="M116.022 180.831L115.977 179.571L100.98 180.127C100.823 180.211 100.688 180.332 100.589 180.481C100.49 180.629 100.43 180.8 100.413 180.978L116.022 180.831Z" fill="white"/>
</g>
<path d="M108.185 176.594C108.185 176.67 108.564 176.689 108.942 176.92C109.32 177.15 109.536 177.457 109.604 177.426C109.672 177.396 109.543 176.957 109.074 176.689C108.605 176.42 108.166 176.526 108.185 176.594Z" fill="#263238"/>
<path d="M106.585 177.332C106.585 177.407 106.903 177.521 107.175 177.835C107.447 178.149 107.531 178.482 107.606 178.474C107.682 178.467 107.716 178.035 107.372 177.657C107.027 177.279 106.585 177.252 106.585 177.332Z" fill="#263238"/>
<path d="M105.739 179.317C105.807 179.317 105.897 178.939 105.686 178.561C105.474 178.183 105.114 178.001 105.084 178.066C105.054 178.13 105.285 178.345 105.462 178.682C105.64 179.019 105.663 179.314 105.739 179.317Z" fill="#263238"/>
<path d="M108.249 174.76C108.283 174.828 108.628 174.707 109.059 174.722C109.49 174.737 109.815 174.855 109.864 174.786C109.914 174.718 109.569 174.465 109.063 174.457C108.556 174.45 108.212 174.699 108.249 174.76Z" fill="#263238"/>
<g opacity="0.3">
<path opacity="0.3" d="M107.958 170.259L108.064 171.681L115.693 171.311L115.652 170.025L107.958 170.259Z" fill="black"/>
</g>
<path d="M108.166 173.145C108.423 173.207 108.692 173.195 108.942 173.111C109.221 173.051 109.492 172.955 109.747 172.827C109.899 172.754 110.044 172.669 110.182 172.574C110.269 172.522 110.347 172.457 110.413 172.381C110.46 172.325 110.488 172.255 110.491 172.182C110.494 172.109 110.474 172.036 110.432 171.976C110.391 171.925 110.339 171.884 110.28 171.857C110.221 171.829 110.157 171.816 110.091 171.817C109.992 171.819 109.894 171.837 109.8 171.87C109.636 171.917 109.476 171.979 109.324 172.056C109.065 172.182 108.83 172.351 108.628 172.555C108.28 172.899 108.166 173.19 108.193 173.202C108.219 173.213 108.393 172.982 108.753 172.691C108.959 172.523 109.186 172.383 109.43 172.275C109.571 172.21 109.718 172.158 109.868 172.12C110.031 172.067 110.171 172.063 110.216 172.12C110.262 172.177 110.216 172.158 110.216 172.207C110.167 172.262 110.109 172.309 110.046 172.347C109.918 172.438 109.784 172.522 109.645 172.596C109.405 172.729 109.151 172.835 108.889 172.914C108.643 172.974 108.401 173.051 108.166 173.145Z" fill="#263238"/>
<path d="M108.261 173.251C108.398 173.023 108.459 172.759 108.435 172.494C108.439 172.206 108.391 171.919 108.295 171.647C108.239 171.486 108.167 171.332 108.079 171.186C108.034 171.084 107.964 170.995 107.874 170.929C107.785 170.863 107.679 170.821 107.569 170.807C107.5 170.813 107.434 170.838 107.378 170.878C107.322 170.919 107.278 170.974 107.251 171.038C107.216 171.131 107.193 171.227 107.183 171.326C107.164 171.5 107.171 171.676 107.206 171.848C107.263 172.139 107.393 172.411 107.584 172.638C107.902 173.016 108.223 173.107 108.227 173.081C108.231 173.054 107.981 172.907 107.735 172.528C107.591 172.312 107.496 172.067 107.459 171.81C107.437 171.661 107.437 171.509 107.459 171.36C107.459 171.193 107.535 171.057 107.595 171.072C107.656 171.087 107.811 171.186 107.879 171.314C107.961 171.446 108.031 171.586 108.087 171.73C108.184 171.972 108.245 172.227 108.269 172.487C108.291 172.952 108.219 173.239 108.261 173.251Z" fill="#263238"/>
<path d="M102.81 100.363C102.81 100.363 99.1531 107.376 99.1531 113.053C99.1531 114.252 106.574 173.788 106.574 173.788L117.077 172.907L111.982 117.898L113.631 106.718L102.81 100.363Z" fill="#8B9093"/>
<path d="M126.196 106.578C126.196 106.578 123.741 127.074 122.591 134.975C121.385 143.243 119.013 144.809 119.013 144.809L98.0863 171.284L91.2102 165.176L109.229 138.099C109.229 138.099 113.049 105.776 112.894 106.578C112.739 107.38 126.196 106.578 126.196 106.578Z" fill="#8B9093"/>
<path d="M118.643 145.149C118.594 145.239 118.536 145.324 118.469 145.402L117.928 146.098L115.931 148.666L109.426 157.184C106.888 160.52 104.573 163.523 102.864 165.671C102.009 166.745 101.309 167.608 100.817 168.194L100.242 168.871C100.18 168.952 100.111 169.026 100.034 169.094C100.084 169.003 100.144 168.918 100.212 168.841L100.753 168.145L102.746 165.577L109.255 157.055C111.79 153.723 114.104 150.72 115.814 148.572C116.669 147.498 117.368 146.635 117.86 146.049L118.435 145.372C118.497 145.291 118.567 145.217 118.643 145.149Z" fill="#455A64"/>
<path d="M114.823 113.711C114.853 113.764 113.893 114.362 112.83 115.258C111.767 116.154 111.01 116.994 110.965 116.952C111.084 116.732 111.235 116.532 111.415 116.359C111.815 115.911 112.246 115.493 112.705 115.107C113.164 114.722 113.65 114.369 114.157 114.051C114.362 113.907 114.586 113.792 114.823 113.711Z" fill="#455A64"/>
<path d="M111.049 116.824C110.623 116.775 110.212 116.634 109.846 116.412C109.48 116.189 109.166 115.89 108.927 115.534C108.968 115.496 109.366 115.893 109.948 116.245C110.53 116.597 111.064 116.767 111.049 116.824Z" fill="#455A64"/>
<path d="M125.368 112.032C125.368 112.088 124.331 111.96 123.057 111.892C121.782 111.824 120.75 111.827 120.746 111.771C121.513 111.643 122.294 111.617 123.068 111.695C123.846 111.704 124.62 111.817 125.368 112.032Z" fill="#455A64"/>
<path d="M111.525 118.579C111.53 118.609 111.53 118.64 111.525 118.67L111.502 118.946C111.475 119.199 111.441 119.551 111.396 119.99C111.298 120.916 111.154 122.225 110.976 123.84C110.598 127.1 110.084 131.575 109.516 136.522C109.452 137.066 109.388 137.603 109.327 138.11V138.133V138.152L102.844 147.883L100.874 150.777L100.341 151.552C100.28 151.632 100.235 151.7 100.197 151.753C100.18 151.776 100.161 151.798 100.14 151.817C100.151 151.79 100.165 151.765 100.182 151.741L100.307 151.533L100.813 150.735L102.704 147.808L109.134 138.042V138.084C109.191 137.577 109.255 137.04 109.32 136.495C109.913 131.552 110.454 127.077 110.832 123.817C111.033 122.21 111.211 120.901 111.313 119.978C111.373 119.539 111.419 119.192 111.457 118.934C111.457 118.828 111.487 118.738 111.498 118.666C111.502 118.635 111.511 118.606 111.525 118.579Z" fill="#455A64"/>
<path d="M106.842 67.4657C106.842 67.4657 103.17 69.6707 102.069 71.6261C100.968 73.5816 95.0832 86.7891 95.329 89.1265C95.5749 91.4639 101.086 94.0434 101.086 94.0434L106.842 86.5773L103.415 84.2512L106.842 79.966V67.4657Z" fill="#5D5F61"/>
<path d="M112.773 65.5632L106.842 67.4543C106.842 67.4543 104.149 93.0373 102.803 96.7099C101.456 100.382 99.845 105.522 99.845 105.522C99.845 105.522 101.834 111.831 110.159 112.811C118.484 113.79 126.748 108.7 126.748 108.7C126.748 108.7 129.464 96.8536 130.931 86.0818C132.399 75.31 131.309 68.8954 131.309 68.8954L121.975 65.2985L112.773 65.5632Z" fill="#5D5F61"/>
<path d="M101.086 94.0435C101.086 94.0435 114.422 96.6911 119.263 90.9686L117.86 86.1008C117.86 86.1008 109.051 88.1848 106.298 87.2884L101.086 94.0435Z" fill="#5D5F61"/>
<path d="M119.04 85.3746C119.04 85.3746 121.525 80.4577 121.794 80.4123C122.062 80.367 125.977 78.9789 125.977 78.9789C126.094 79.2975 126.094 79.6474 125.977 79.966L127.38 80.1438C127.38 80.1438 127.172 81.0099 126.691 81.131L127.202 81.5773C126.948 81.9158 126.621 82.1925 126.245 82.3867C126.101 82.4574 125.942 82.4943 125.782 82.4943C125.621 82.4943 125.463 82.4574 125.319 82.3867C125.319 82.3867 125.496 82.7119 124.691 83.2188C123.885 83.7256 122.259 86.0819 122.259 86.0819L119.04 85.3746Z" fill="#E2E2E2"/>
<path d="M125.852 79.981C125.026 80.3801 124.17 80.7139 123.291 80.9795C122.936 81.1081 122.577 81.2027 122.297 81.3388C122.049 81.459 121.846 81.6534 121.714 81.8948C121.48 82.3147 121.393 82.621 121.359 82.6097C121.373 82.334 121.45 82.0652 121.582 81.823C121.714 81.5409 121.934 81.3098 122.21 81.1649C122.538 81.0165 122.875 80.8902 123.219 80.7866C124.075 80.4504 124.955 80.181 125.852 79.981Z" fill="#636363"/>
<path d="M126.764 81.1309C126.546 81.2611 126.306 81.3484 126.056 81.388C125.606 81.5091 124.975 81.6112 124.305 81.7927C123.733 81.9393 123.194 82.1963 122.72 82.5492C122.365 82.8253 122.206 83.0674 122.176 83.0484C122.261 82.805 122.417 82.5919 122.622 82.4357C123.09 82.0321 123.648 81.7456 124.248 81.5999C124.941 81.4145 125.572 81.3351 126.026 81.2519C126.268 81.1892 126.515 81.1487 126.764 81.1309Z" fill="#636363"/>
<path d="M123.178 83.196C123.409 82.8838 123.74 82.6597 124.116 82.5606C124.47 82.3935 124.872 82.3573 125.251 82.4585C125.251 82.519 124.759 82.5568 124.195 82.7611C123.632 82.9653 123.216 83.2452 123.178 83.196Z" fill="#EB996E"/>
<path d="M129.15 68.7402C128.798 68.8423 126.427 71.9967 125.205 76.1572C123.983 80.3176 122.633 84.6029 122.633 84.6029L122.255 86.0817L107.126 82.3865L103.756 86.8987C103.756 86.8987 113.552 95.4163 120.776 95.734C122.545 95.579 124.254 95.0118 125.764 94.0778C127.275 93.1439 128.546 91.8691 129.475 90.3556C132.66 85.0946 134.619 78.6043 134.619 78.6043C134.619 78.6043 134.411 67.1895 129.15 68.7402Z" fill="#5D5F61"/>
<path d="M106.404 78.8199C106.444 78.1186 106.555 77.423 106.733 76.7435C106.843 76.0488 107.023 75.367 107.27 74.7086C107.229 75.41 107.119 76.1055 106.941 76.7851C106.831 77.4797 106.651 78.1615 106.404 78.8199Z" fill="#263238"/>
<g opacity="0.3">
<path opacity="0.3" d="M116.896 95.0156C116.105 94.6827 115.349 94.2326 114.501 94.104C113.473 93.949 112.61 94.2553 111.585 94.4142C108.518 94.8945 106.234 94.5276 103.34 94.4142L103.185 95.303C104.456 96.2939 106.056 96.6116 107.667 96.5814C109.134 96.5549 110.568 96.0784 112.032 96.12C113.189 96.2121 114.332 96.4406 115.436 96.8008C117.3 97.2924 119.248 97.5988 121.154 97.3114C125.95 96.589 128.518 92.1335 129.316 90.3748C128.679 91.244 127.996 92.0785 127.27 92.8748C124.207 96.0405 119.426 96.0821 116.896 95.0156Z" fill="black"/>
</g>
<path d="M120.114 81.668C119.469 81.5561 118.836 81.3839 118.223 81.1536C117.59 80.981 116.975 80.7453 116.389 80.4501C117.035 80.5567 117.669 80.7291 118.28 80.9645C118.914 81.1356 119.528 81.3713 120.114 81.668Z" fill="white"/>
<path d="M131.639 86.2861C131.637 86.3159 131.631 86.3452 131.62 86.3731C131.597 86.4411 131.571 86.5244 131.537 86.6227C131.418 86.939 131.282 87.2484 131.128 87.5493C130.553 88.6466 129.892 89.6963 129.15 90.6886C128.685 91.3202 128.152 91.9972 127.535 92.6818C127.225 93.026 126.892 93.3664 126.525 93.703C126.134 94.0345 125.698 94.3106 125.232 94.5238C124.245 94.9894 123.203 95.3274 122.13 95.5298C120.971 95.7363 119.783 95.7235 118.628 95.492C117.484 95.2516 116.368 94.8955 115.296 94.4292C114.766 94.2325 114.271 93.9753 113.783 93.756C113.295 93.5366 112.818 93.2794 112.365 93.0336C110.751 92.1529 109.195 91.1714 107.705 90.0948C106.434 89.1833 105.436 88.3814 104.781 87.8254C104.448 87.5418 104.195 87.3148 104.025 87.1598C103.934 87.0842 103.851 87.0006 103.775 86.9101C103.801 86.9249 103.825 86.9427 103.847 86.9631L104.051 87.1295L104.83 87.7687C105.511 88.3171 106.51 89.0963 107.788 89.9927C109.282 91.0479 110.838 92.0128 112.448 92.8823C112.905 93.1281 113.378 93.3588 113.862 93.5971C114.346 93.8354 114.85 94.0661 115.375 94.2628C116.437 94.7202 117.542 95.0712 118.673 95.3105C119.804 95.5382 120.968 95.551 122.104 95.3483C123.161 95.1544 124.189 94.8264 125.164 94.3725C125.615 94.1675 126.038 93.9029 126.419 93.5858C126.779 93.2605 127.111 92.9239 127.422 92.5835C128.038 91.9065 128.575 91.2408 129.044 90.6167C129.794 89.6369 130.471 88.6027 131.068 87.5229C131.272 87.1446 131.416 86.8307 131.506 86.6189C131.548 86.5243 131.578 86.4449 131.609 86.3806C131.617 86.3485 131.627 86.3169 131.639 86.2861Z" fill="#263238"/>
<path d="M125.942 73.7896C125.929 73.8739 125.91 73.9573 125.886 74.0392L125.693 74.7503C125.511 75.3857 125.254 76.2632 124.936 77.3676C124.278 79.5991 123.374 82.6627 122.357 86.1083L122.33 86.1991L122.228 86.1726C121.869 86.0819 121.442 85.9949 121.029 85.9041C117.228 85.0909 113.798 84.2966 111.332 83.6348C110.099 83.3133 109.108 83.0258 108.423 82.8216L107.644 82.5719C107.551 82.5473 107.461 82.513 107.375 82.4698C107.471 82.4818 107.564 82.5033 107.655 82.5341L108.446 82.7497C109.134 82.9313 110.129 83.196 111.366 83.5062C113.836 84.1227 117.27 84.8942 121.071 85.7074C121.491 85.802 121.888 85.8814 122.296 85.9873L122.168 86.0516C123.208 82.6135 124.135 79.5537 124.815 77.326L125.621 74.7238C125.716 74.4326 125.791 74.2019 125.852 74.0241C125.873 73.9426 125.903 73.8639 125.942 73.7896Z" fill="#263238"/>
<path d="M104.244 86.8119L99.9324 86.9707C99.5012 86.9707 99.1003 86.5925 98.9188 85.976L95.5412 74.149C95.3294 73.332 95.7833 72.6739 96.517 72.6361L102.217 72.2806C103.132 72.2806 103.62 72.6588 103.786 73.3661L106.007 82.7271C106.476 84.7014 105.591 86.7627 104.244 86.8119Z" fill="#263238"/>
<path d="M107.932 81.2292L106.797 78.801L104.906 78.1732L105.481 80.4917C104.724 80.8472 103.631 81.0325 102.992 80.6808C102.353 80.329 99.8528 77.8403 99.38 78.0786C98.9073 78.3169 98.4874 78.888 98.9186 79.4326C99.3498 79.9773 101.695 81.6717 101.211 82.1748C100.727 82.6778 98.026 80.4803 97.2317 80.643C96.4375 80.8056 95.9533 81.267 96.3959 81.6074C96.8384 81.9478 97.9088 83.0333 98.1168 83.4985C98.0714 84.0961 97.7877 84.9434 98.0487 85.0871C98.6839 85.3914 99.3512 85.6236 100.038 85.7792C100.742 85.9967 101.435 86.2491 102.115 86.5357C103.156 86.9572 104.315 86.9841 105.375 86.6113L105.916 86.4222C106.326 86.2783 106.681 86.0093 106.931 85.6532C107.181 85.297 107.312 84.8715 107.308 84.4365L107.289 82.6475L107.932 81.2292Z" fill="#E2E2E2"/>
<path d="M105.038 80.6695C104.959 80.4856 104.898 80.2942 104.857 80.0983L104.429 78.5363C104.251 77.8593 104.051 77.065 103.82 76.1913C103.707 75.75 103.589 75.2886 103.468 74.807C103.332 74.338 103.279 73.7896 102.954 73.434C102.629 73.0785 102.065 73.0558 101.589 73.0823L100.167 73.192L97.7497 73.3622L96.1233 73.4643C95.9233 73.4833 95.722 73.4833 95.522 73.4643C95.7176 73.4214 95.9161 73.3924 96.1158 73.3773L97.7421 73.2185L100.155 73.0029L101.581 72.8818C101.834 72.8647 102.087 72.8762 102.338 72.9159C102.624 72.9553 102.89 73.0883 103.094 73.2941C103.278 73.5016 103.407 73.751 103.472 74.0203C103.544 74.2737 103.597 74.5158 103.661 74.7578L104.002 76.1459C104.214 77.0234 104.403 77.8177 104.569 78.4985L104.947 80.0908C104.993 80.281 105.023 80.4745 105.038 80.6695Z" fill="#455A64"/>
<path d="M99.8453 74.9508C99.8453 75.0346 99.8204 75.1165 99.7739 75.1861C99.7273 75.2558 99.6612 75.3101 99.5838 75.3421C99.5064 75.3742 99.4212 75.3826 99.339 75.3662C99.2568 75.3499 99.1814 75.3096 99.1221 75.2503C99.0629 75.1911 99.0225 75.1156 99.0062 75.0334C98.9898 74.9512 98.9982 74.8661 99.0303 74.7887C99.0624 74.7113 99.1166 74.6451 99.1863 74.5986C99.256 74.552 99.3379 74.5272 99.4217 74.5272C99.534 74.5272 99.6418 74.5718 99.7212 74.6512C99.8006 74.7307 99.8453 74.8384 99.8453 74.9508Z" fill="white"/>
<path d="M122.327 57.8551C122.707 56.3856 122.96 54.8861 123.083 53.3732C123.202 51.8546 122.942 50.3303 122.327 48.9366C122.229 48.7286 121.419 47.3519 121.192 47.3935C121.03 47.4238 121.57 48.7286 121.502 48.8799C120.88 50.3317 120.714 51.9383 121.026 53.4867C121.297 54.9873 121.736 56.4527 122.334 57.8551" fill="#263238"/>
<path d="M121.888 52.1742C122.051 48.2179 119.883 44.8215 115.92 44.7723H115.541C113.767 44.8527 112.087 45.5973 110.836 46.8585C109.584 48.1196 108.853 49.805 108.786 51.5803C108.665 55.0146 108.575 58.8044 108.681 60.6388C108.9 64.421 112.724 64.8522 112.724 64.8522L112.765 66.1533C112.785 66.7888 112.936 67.4133 113.209 67.9876C113.482 68.5618 113.871 69.0733 114.351 69.4898C114.832 69.9063 115.393 70.2187 116 70.4074C116.607 70.596 117.247 70.6569 117.879 70.586C119.009 70.459 120.052 69.9179 120.807 69.0673C121.562 68.2167 121.976 67.1166 121.968 65.9793L121.888 52.1742Z" fill="#E2E2E2"/>
<path d="M112.728 64.8787C114.485 64.8342 116.189 64.2667 117.622 63.2485C117.622 63.2485 116.578 66.036 112.773 65.8621L112.728 64.8787Z" fill="#8B5D54"/>
<path d="M110.212 54.5456C110.216 54.6867 110.276 54.8206 110.378 54.9183C110.48 55.016 110.616 55.0696 110.757 55.0676C110.826 55.0706 110.895 55.0597 110.96 55.0355C111.025 55.0112 111.084 54.9741 111.134 54.9265C111.184 54.8788 111.224 54.8215 111.252 54.758C111.279 54.6945 111.294 54.6261 111.294 54.557C111.29 54.4155 111.231 54.2812 111.129 54.1829C111.027 54.0846 110.891 54.0302 110.749 54.0312C110.68 54.0287 110.611 54.0401 110.546 54.0648C110.481 54.0894 110.422 54.1269 110.372 54.1748C110.322 54.2228 110.282 54.2803 110.255 54.344C110.227 54.4077 110.213 54.4763 110.212 54.5456Z" fill="#263238"/>
<path d="M109.63 53.237C109.702 53.3051 110.099 52.9836 110.681 52.9572C111.264 52.9307 111.706 53.203 111.767 53.1311C111.828 53.0593 111.722 52.9723 111.529 52.8437C111.269 52.6816 110.965 52.6037 110.659 52.6205C110.354 52.6332 110.062 52.7418 109.823 52.9307C109.653 53.0744 109.596 53.1954 109.63 53.237Z" fill="#263238"/>
<path d="M115.432 54.3073C115.436 54.4485 115.495 54.5823 115.597 54.68C115.699 54.7777 115.835 54.8313 115.977 54.8293C116.046 54.8318 116.115 54.8204 116.18 54.7957C116.245 54.7711 116.304 54.7336 116.354 54.6857C116.404 54.6377 116.444 54.5802 116.471 54.5165C116.499 54.4528 116.513 54.3842 116.514 54.3149C116.509 54.1741 116.449 54.0408 116.347 53.9433C116.246 53.8458 116.11 53.7919 115.969 53.7929C115.9 53.7904 115.831 53.8018 115.766 53.8265C115.701 53.8512 115.642 53.8886 115.592 53.9365C115.542 53.9845 115.502 54.0421 115.474 54.1057C115.447 54.1694 115.432 54.238 115.432 54.3073Z" fill="#263238"/>
<path d="M115.44 52.8172C115.5 52.8928 115.932 52.6129 116.514 52.6545C117.096 52.6962 117.505 53.0101 117.573 52.942C117.641 52.8739 117.547 52.7831 117.369 52.6356C117.127 52.4451 116.833 52.333 116.525 52.3141C116.222 52.2955 115.92 52.3722 115.663 52.5335C115.478 52.6508 115.406 52.7756 115.44 52.8172Z" fill="#263238"/>
<path d="M113.514 57.7075C113.203 57.6247 112.883 57.5815 112.561 57.5789C112.41 57.5789 112.266 57.5448 112.239 57.4465C112.217 57.2931 112.245 57.1365 112.319 57.0002C112.44 56.622 112.569 56.2437 112.697 55.8466C113.238 54.2013 113.62 52.8549 113.556 52.8208C113.491 52.7868 112.996 54.1144 112.459 55.7558C112.33 56.1643 112.205 56.5501 112.081 56.917C111.996 57.1017 111.977 57.3101 112.028 57.507C112.052 57.5582 112.088 57.6031 112.133 57.6385C112.177 57.6739 112.229 57.6987 112.285 57.7113C112.368 57.7301 112.453 57.739 112.538 57.7377C112.864 57.7667 113.191 57.7566 113.514 57.7075Z" fill="#263238"/>
<path d="M115.243 50.2944C115.307 50.4533 115.886 50.3512 116.574 50.4003C117.263 50.4495 117.826 50.6159 117.909 50.4684C117.947 50.4003 117.845 50.2528 117.614 50.1091C117.308 49.9346 116.966 49.8323 116.614 49.8101C116.262 49.7878 115.909 49.8461 115.583 49.9805C115.353 50.0902 115.217 50.2226 115.243 50.2944Z" fill="#263238"/>
<path d="M109.705 52.0834C109.815 52.212 110.212 52.0569 110.693 52.0267C111.173 51.9964 111.589 52.0758 111.68 51.9321C111.718 51.864 111.646 51.7354 111.46 51.6182C111.215 51.4737 110.931 51.4102 110.647 51.4367C110.364 51.4553 110.093 51.561 109.872 51.7392C109.709 51.8829 109.656 52.0229 109.705 52.0834Z" fill="#263238"/>
<path d="M121.707 54.9994C121.771 54.9691 124.278 54.1106 124.312 56.709C124.347 59.3074 121.733 58.8081 121.725 58.7325C121.718 58.6568 121.707 54.9994 121.707 54.9994Z" fill="#E2E2E2"/>
<path d="M122.508 57.7341C122.508 57.7341 122.554 57.7644 122.629 57.7984C122.738 57.843 122.861 57.843 122.97 57.7984C123.135 57.6882 123.268 57.5366 123.357 57.3588C123.445 57.1809 123.485 56.983 123.473 56.7848C123.476 56.5617 123.43 56.3407 123.337 56.138C123.312 56.0572 123.267 55.9838 123.207 55.9244C123.147 55.865 123.073 55.8214 122.992 55.7976C122.941 55.7846 122.886 55.7899 122.838 55.8126C122.789 55.8354 122.75 55.8742 122.728 55.9224C122.694 55.9981 122.728 56.0472 122.697 56.0548C122.667 56.0623 122.641 56.0094 122.659 55.9035C122.675 55.8385 122.711 55.7801 122.762 55.7371C122.833 55.6838 122.922 55.6595 123.011 55.669C123.118 55.6886 123.218 55.7355 123.302 55.805C123.385 55.8746 123.449 55.9645 123.488 56.0661C123.601 56.2898 123.658 56.5378 123.654 56.7885C123.671 57.0205 123.619 57.2522 123.503 57.4543C123.388 57.6563 123.216 57.8195 123.007 57.9232C122.938 57.9442 122.865 57.9493 122.794 57.9382C122.723 57.927 122.655 57.8999 122.595 57.8589C122.512 57.8022 122.497 57.7341 122.508 57.7341Z" fill="#636363"/>
<path d="M108.643 58.5887C108.74 58.5162 108.852 58.4662 108.971 58.4424C109.089 58.4187 109.212 58.4218 109.33 58.4515C109.447 58.4812 109.556 58.5368 109.65 58.6142C109.743 58.6916 109.817 58.7889 109.868 58.8989C109.967 58.7364 110.11 58.6051 110.28 58.52C110.45 58.4348 110.641 58.3993 110.83 58.4175C111.02 58.4356 111.2 58.5067 111.351 58.6226C111.502 58.7385 111.617 58.8946 111.684 59.0729C111.728 58.9398 111.805 58.82 111.907 58.7248C112.01 58.6296 112.136 58.562 112.272 58.5284C112.408 58.4947 112.55 58.4962 112.685 58.5325C112.821 58.5689 112.944 58.639 113.045 58.7363C113.11 58.617 113.211 58.5209 113.333 58.4612C113.455 58.4016 113.592 58.3814 113.726 58.4034C113.702 58.2775 113.716 58.1472 113.766 58.0292C113.817 57.9113 113.901 57.8111 114.009 57.7416C114.117 57.6721 114.243 57.6364 114.371 57.639C114.499 57.6417 114.624 57.6827 114.728 57.7567C114.798 57.627 114.893 57.5134 115.009 57.423C115.125 57.3326 115.258 57.2675 115.401 57.2318C115.544 57.1962 115.692 57.1908 115.837 57.2161C115.981 57.2413 116.119 57.2966 116.241 57.3784C116.262 57.2461 116.329 57.1252 116.429 57.0364C116.53 56.9475 116.658 56.8963 116.792 56.8914C116.925 56.8865 117.057 56.9282 117.164 57.0094C117.27 57.0907 117.345 57.2064 117.376 57.3368C117.49 57.1707 117.655 57.046 117.846 56.9812C118.037 56.9164 118.243 56.9152 118.435 56.9775C118.432 56.8827 118.451 56.7886 118.49 56.7021C118.529 56.6157 118.587 56.5392 118.66 56.4784C118.733 56.4177 118.819 56.3742 118.911 56.3512C119.003 56.3282 119.099 56.3264 119.191 56.3459C119.074 56.032 119.536 55.8504 119.759 55.5894C119.857 55.4798 119.918 55.3322 120.024 55.2339C120.129 55.1356 120.334 55.094 120.421 55.2339C120.383 55.1071 120.392 54.9708 120.446 54.85C120.5 54.7292 120.596 54.6319 120.716 54.5758C120.839 54.5275 120.976 54.5246 121.101 54.5676C121.226 54.6105 121.332 54.6965 121.4 54.8103C121.462 54.9537 121.503 55.1053 121.521 55.2604C121.631 55.7483 121.953 56.3194 121.62 56.6939C121.559 56.7619 121.48 56.8187 121.461 56.9057C121.423 57.0532 121.574 57.178 121.597 57.3293C121.62 57.4806 121.472 57.6508 121.412 57.8134C121.371 58.0673 121.395 58.3272 121.48 58.5698C121.518 58.827 121.393 59.1674 121.132 59.1636C121.234 59.3473 121.269 59.5606 121.232 59.7674C121.195 59.9741 121.087 60.1617 120.928 60.2983C120.981 60.4054 121.012 60.5222 121.019 60.6416C121.026 60.7611 121.009 60.8807 120.969 60.9934C120.928 61.106 120.866 61.2094 120.785 61.2973C120.704 61.3852 120.605 61.4558 120.496 61.5048C120.579 61.5784 120.632 61.6796 120.646 61.7894C120.66 61.8993 120.634 62.0105 120.572 62.1024C120.444 62.2851 120.271 62.4311 120.069 62.526C120.113 62.5514 120.151 62.5852 120.181 62.6256C120.212 62.6659 120.234 62.712 120.246 62.761C120.258 62.81 120.261 62.861 120.253 62.9109C120.245 62.9609 120.228 63.0088 120.201 63.0518C120.086 63.2216 119.915 63.345 119.717 63.3997C119.63 63.418 119.553 63.4662 119.498 63.5359C119.415 63.6796 119.555 63.8536 119.539 64.0162C119.539 64.2659 119.161 64.3604 119.089 64.5987C119.017 64.837 119.154 65.0828 119.002 65.2455C118.851 65.4081 118.738 65.3476 118.605 65.4043C118.367 65.5102 118.28 65.7825 118.14 66.0057C117.836 66.3865 117.412 66.6531 116.937 66.7621C116.699 66.8416 116.464 66.9096 116.222 66.9739C115.746 67.0988 115.262 67.1971 114.774 67.2917C114.536 67.337 114.237 67.3635 114.093 67.1668C114.009 67.2684 113.903 67.3491 113.782 67.4026C113.662 67.4561 113.531 67.4809 113.399 67.475C113.267 67.4692 113.139 67.4328 113.024 67.3688C112.909 67.3048 112.81 67.215 112.735 67.1063C112.288 67.2065 111.821 67.1532 111.408 66.955L110.965 66.8C110.523 66.6449 110.031 66.4217 109.872 66.0019C109.735 65.9816 109.604 65.9314 109.488 65.8548C109.373 65.7782 109.275 65.6772 109.203 65.5588C109.131 65.4404 109.086 65.3077 109.071 65.1698C109.056 65.032 109.071 64.8926 109.116 64.7613C108.923 64.8332 108.737 64.6517 108.673 64.4512C108.651 64.249 108.662 64.0445 108.707 63.846C108.794 63.0253 108.302 62.2272 108.352 61.4027C108.389 60.824 108.688 60.234 108.484 59.6932C108.429 59.5868 108.393 59.4716 108.378 59.3528C108.378 59.2355 108.476 59.1031 108.594 59.1296C108.555 59.0488 108.538 58.9595 108.544 58.8702C108.549 58.7808 108.577 58.6944 108.625 58.6188C108.673 58.5433 108.739 58.4811 108.818 58.4382C108.896 58.3952 108.985 58.3728 109.074 58.3732" fill="#263238"/>
<path d="M115.25 58.0329C115.156 58.0329 115.182 58.6645 114.66 59.1373C114.138 59.6101 113.461 59.5722 113.461 59.663C113.461 59.7538 113.616 59.7765 113.904 59.7727C114.275 59.7611 114.63 59.6191 114.906 59.3718C115.171 59.1327 115.334 58.8009 115.36 58.4451C115.371 58.1804 115.292 58.0253 115.25 58.0329Z" fill="white"/>
<path d="M119.278 62.2085C119.519 61.3198 119.469 60.3772 119.135 59.5193C119.221 59.6318 119.284 59.7604 119.32 59.8975C119.438 60.2063 119.507 60.5318 119.524 60.862C119.54 61.1928 119.507 61.5242 119.426 61.8454C119.397 61.9737 119.347 62.0964 119.278 62.2085Z" fill="#455A64"/>
<path d="M119.804 61.2515C119.804 61.2515 119.876 61.1456 119.929 60.9527C119.981 60.7032 119.981 60.4456 119.929 60.1962C119.838 59.5873 119.634 59.1258 119.664 59.1107C119.866 59.436 119.995 59.8011 120.043 60.1811C120.098 60.4486 120.085 60.7256 120.005 60.9867C119.922 61.1758 119.812 61.259 119.804 61.2515Z" fill="#455A64"/>
<path d="M120.402 60.6803C120.673 59.9433 120.647 59.1295 120.33 58.411C120.409 58.4991 120.471 58.6019 120.511 58.7136C120.622 58.9762 120.684 59.257 120.693 59.5419C120.703 59.8274 120.66 60.1123 120.564 60.3816C120.53 60.4909 120.475 60.5925 120.402 60.6803Z" fill="#455A64"/>
<path d="M109.876 48.0969C109.793 47.3404 110.84 45.7103 111.884 45.1884C113.465 44.3979 115.905 43.857 117.403 44.2201C119.211 44.6588 120.727 45.4909 121.684 47.0832C122.609 48.7057 123.087 50.5448 123.068 52.4124C123.111 52.9806 123.002 53.5499 122.751 54.0615C122.403 54.6666 121.699 55.0637 121.76 55.8807C121.776 56.0276 121.762 56.1761 121.72 56.3177C121.678 56.4593 121.608 56.591 121.514 56.7052C121.045 57.2461 120.425 56.7809 120.133 56.3005C119.506 55.2718 119.377 54.0312 119.294 52.8247C119.179 51.9765 119.204 51.1152 119.369 50.2754C119.483 49.8254 119.676 49.3942 119.748 48.9403C119.805 48.714 119.813 48.478 119.772 48.2483C119.73 48.0185 119.639 47.8005 119.506 47.609C119.436 47.5323 119.36 47.4614 119.279 47.3972C118.893 47.0854 118.432 46.8821 117.942 46.8083C117.452 46.7345 116.951 46.7929 116.491 46.9773C115.005 47.5674 112.463 48.46 111.771 47.9721C110.776 47.2724 110.67 47.0038 110.67 47.0038L109.876 48.0969Z" fill="#263238"/>
<path d="M110.47 65.4839C110.041 65.1929 109.694 64.7966 109.462 64.333C109.23 63.8694 109.121 63.354 109.146 62.8363C109.28 63.3156 109.446 63.7856 109.641 64.2433C109.892 64.6732 110.169 65.0875 110.47 65.4839Z" fill="#455A64"/>
<path d="M112.376 66.6449C111.856 66.4445 111.401 66.1058 111.06 65.6654C110.672 65.2663 110.399 64.7697 110.27 64.2281C110.326 64.2054 110.625 64.8711 111.208 65.5368C111.79 66.2024 112.406 66.592 112.376 66.6449Z" fill="#455A64"/>
<path d="M113.601 66.0549C113.239 66.0979 112.872 66.035 112.544 65.8739C112.217 65.7129 111.943 65.4605 111.755 65.1472C111.801 65.1094 112.134 65.4498 112.633 65.6956C113.132 65.9415 113.605 66.002 113.601 66.0549Z" fill="#455A64"/>
<path d="M122.713 49.5948C122.269 49.9701 121.721 50.2022 121.143 50.2604C120.571 50.3615 119.981 50.2918 119.448 50.06C119.448 49.9919 120.205 50.1924 121.116 50.06C122.028 49.9276 122.682 49.5305 122.713 49.5948Z" fill="#455A64"/>
<path d="M123.023 51.0509C122.445 51.4137 121.785 51.6233 121.104 51.6597C120.423 51.6961 119.743 51.5581 119.131 51.2589C119.776 51.3953 120.434 51.4637 121.094 51.4632C121.75 51.3959 122.396 51.2577 123.023 51.0509Z" fill="#455A64"/>
</svg>
