<svg width="225" height="225" viewBox="0 0 225 225" fill="none" xmlns="http://www.w3.org/2000/svg">
<circle cx="112.5" cy="112.5" r="111.5" fill="#ECECEC"/>
<path d="M25.8422 109.437L25.3765 109.491L26.204 116.568L26.6697 116.514L25.8422 109.437Z" fill="#CFD8DC"/>
<path d="M26.9784 119.146L26.5127 119.2L26.9302 122.77L27.3959 122.716L26.9784 119.146Z" fill="#CFD8DC"/>
<path d="M57.9049 95.0071L57.3533 93.4581C56.9739 92.3933 56.2444 91.4889 55.2841 90.8927C54.3238 90.2965 53.1896 90.0438 52.0671 90.176L30.0994 92.7456C28.7834 92.8999 27.5826 93.5706 26.7611 94.6102C25.9396 95.6498 25.5647 96.9732 25.7187 98.2892L31.9703 151.749C32.0222 152.196 32.1617 152.629 32.3809 153.022C32.6001 153.415 32.8947 153.761 33.2478 154.04C33.6008 154.319 34.0055 154.526 34.4386 154.649C34.8717 154.772 35.3247 154.808 35.7717 154.755L114.376 145.562C114.823 145.511 115.257 145.372 115.651 145.154C116.045 144.935 116.393 144.64 116.673 144.287C116.953 143.934 117.161 143.529 117.284 143.095C117.407 142.662 117.443 142.208 117.391 141.76L111.967 95.545C111.862 94.6428 111.403 93.8193 110.691 93.2555C109.979 92.6917 109.072 92.4339 108.17 92.5387L62.5246 97.8801C61.5432 97.9937 60.5523 97.7715 59.7134 97.2498C58.8745 96.7281 58.237 95.9376 57.9049 95.0071Z" fill="#CFD8DC"/>
<path d="M60.0984 71.7594L35.2634 76.7084L42.0819 110.925L66.9169 105.976L60.0984 71.7594Z" fill="#CFD8DC"/>
<path opacity="0.7" d="M60.0984 71.7594L35.2634 76.7084L42.0819 110.925L66.9169 105.976L60.0984 71.7594Z" fill="#878787"/>
<g opacity="0.4">
<path opacity="0.4" d="M56.7833 79.9805L41.4854 83.0327C41.129 83.1019 40.7597 83.0277 40.4577 82.8263C40.1556 82.625 39.9452 82.3126 39.872 81.9571C39.8028 81.6007 39.8769 81.2314 40.0783 80.9293C40.2797 80.6273 40.592 80.4168 40.9476 80.3436L56.2546 77.3052C56.611 77.236 56.9803 77.3101 57.2823 77.5115C57.5844 77.7129 57.7949 78.0252 57.8681 78.3808C57.933 78.7364 57.8557 79.1033 57.6528 79.4025C57.4499 79.7017 57.1377 79.9092 56.7833 79.9805Z" fill="#CFD8DC"/>
<path opacity="0.4" d="M57.9094 85.6482L42.6115 88.7142C42.2559 88.7821 41.8878 88.7073 41.5867 88.506C41.2857 88.3048 41.0759 87.9932 41.0027 87.6386C40.9349 87.2829 41.0096 86.9148 41.2109 86.6138C41.4121 86.3128 41.7237 86.103 42.0783 86.0297L57.3762 82.9821C57.7319 82.9143 58.1 82.9891 58.401 83.1903C58.702 83.3916 58.9118 83.7031 58.985 84.0578C59.0476 84.4107 58.9703 84.7741 58.7695 85.0709C58.5687 85.3678 58.2602 85.5749 57.9094 85.6482Z" fill="#CFD8DC"/>
<path opacity="0.4" d="M59.0356 91.3068L43.7378 94.3544C43.3821 94.4222 43.014 94.3474 42.713 94.1462C42.412 93.9449 42.2022 93.6334 42.1289 93.2787C42.0611 92.9231 42.1359 92.555 42.3371 92.254C42.5384 91.9529 42.8499 91.7431 43.2045 91.6699L58.5024 88.6177C58.8581 88.5498 59.2262 88.6246 59.5272 88.8259C59.8282 89.0271 60.038 89.3387 60.1113 89.6933C60.1804 90.0497 60.1063 90.419 59.9049 90.721C59.7035 91.0231 59.3912 91.2335 59.0356 91.3068Z" fill="#CFD8DC"/>
<path opacity="0.4" d="M60.1663 96.9883L44.8685 100.036C44.5121 100.105 44.1428 100.031 43.8407 99.8296C43.5387 99.6282 43.3282 99.3158 43.255 98.9603C43.1858 98.6039 43.26 98.2346 43.4613 97.9326C43.6627 97.6305 43.9751 97.42 44.3306 97.3468L59.6285 94.2992C59.9849 94.23 60.3542 94.3042 60.6562 94.5055C60.9583 94.7069 61.1687 95.0193 61.242 95.3748C61.3111 95.7312 61.237 96.1005 61.0356 96.4025C60.8342 96.7046 60.5219 96.9151 60.1663 96.9883Z" fill="#CFD8DC"/>
<path opacity="0.4" d="M57.1093 103.456L45.9945 105.671C45.6388 105.739 45.2707 105.665 44.9697 105.463C44.6687 105.262 44.4589 104.95 44.3856 104.596C44.3164 104.239 44.3906 103.87 44.592 103.568C44.7933 103.266 45.1057 103.056 45.4613 102.982L56.5761 100.767C56.9318 100.699 57.2999 100.774 57.6009 100.975C57.9019 101.176 58.1117 101.488 58.185 101.842C58.2541 102.199 58.18 102.568 57.9786 102.87C57.7772 103.172 57.4649 103.383 57.1093 103.456Z" fill="#CFD8DC"/>
</g>
<path d="M95.4851 65.1654L70.3955 68.5978L75.1245 103.165L100.214 99.7325L95.4851 65.1654Z" fill="#CFD8DC"/>
<path opacity="0.7" d="M95.4851 65.1654L70.3955 68.5978L75.1245 103.165L100.214 99.7325L95.4851 65.1654Z" fill="#878787"/>
<g opacity="0.4">
<path opacity="0.4" d="M91.6771 73.1774L76.223 75.2918C75.8631 75.3391 75.4991 75.2425 75.2099 75.023C74.9208 74.8036 74.7298 74.479 74.6785 74.1197C74.6313 73.7598 74.7278 73.3958 74.9473 73.1067C75.1667 72.8175 75.4913 72.6265 75.8506 72.5752L91.3048 70.4607C91.6647 70.4135 92.0287 70.5101 92.3178 70.7295C92.6069 70.9489 92.7979 71.2735 92.8493 71.6329C92.8965 71.9928 92.7999 72.3567 92.5805 72.6459C92.361 72.935 92.0364 73.126 91.6771 73.1774Z" fill="#CFD8DC"/>
<path opacity="0.4" d="M92.4588 78.8911L77.0046 81.0056C76.6447 81.0528 76.2807 80.9562 75.9916 80.7368C75.7024 80.5173 75.5115 80.1928 75.4601 79.8334C75.4142 79.4743 75.5114 79.1115 75.7307 78.8233C75.95 78.5352 76.2738 78.3449 76.6323 78.2935L92.0864 76.179C92.4456 76.1317 92.809 76.2277 93.098 76.4462C93.387 76.6647 93.5785 76.9881 93.6309 77.3466C93.6781 77.7065 93.5815 78.0705 93.3621 78.3596C93.1427 78.6488 92.8181 78.8397 92.4588 78.8911Z" fill="#CFD8DC"/>
<path opacity="0.4" d="M82.0425 86.1401L77.786 86.7239C77.4261 86.7711 77.0621 86.6745 76.7729 86.4551C76.4838 86.2356 76.2928 85.911 76.2415 85.5517C76.1942 85.1918 76.2908 84.8278 76.5103 84.5387C76.7297 84.2495 77.0543 84.0586 77.4136 84.0072L81.6748 83.4234C82.0339 83.3775 82.3967 83.4747 82.6849 83.694C82.973 83.9133 83.1633 84.2372 83.2147 84.5956C83.2619 84.9555 83.1653 85.3195 82.9459 85.6086C82.7264 85.8978 82.4018 86.0887 82.0425 86.1401Z" fill="#CFD8DC"/>
<path opacity="0.4" d="M90.303 85.0093L86.0419 85.5931C85.6827 85.639 85.3199 85.5418 85.0318 85.3225C84.7436 85.1031 84.5533 84.7793 84.502 84.4209C84.4547 84.061 84.5513 83.697 84.7708 83.4079C84.9902 83.1187 85.3148 82.9278 85.6741 82.8764L89.9307 82.2972C90.2899 82.2499 90.6533 82.3459 90.9423 82.5644C91.2313 82.7828 91.4227 83.1063 91.4752 83.4648C91.5224 83.8247 91.4258 84.1887 91.2064 84.4778C90.9869 84.7669 90.6623 84.9579 90.303 85.0093Z" fill="#CFD8DC"/>
<path opacity="0.4" d="M94.0217 90.3231L78.5676 92.4376C78.2077 92.4848 77.8437 92.3882 77.5546 92.1688C77.2654 91.9493 77.0745 91.6248 77.0231 91.2654C76.9772 90.9063 77.0744 90.5434 77.2937 90.2553C77.513 89.9672 77.8368 89.7769 78.1953 89.7255L93.6494 87.6064C94.0093 87.5592 94.3733 87.6558 94.6624 87.8753C94.9516 88.0947 95.1425 88.4193 95.1939 88.7786C95.2411 89.1385 95.1445 89.5025 94.9251 89.7916C94.7057 90.0808 94.3811 90.2717 94.0217 90.3231Z" fill="#CFD8DC"/>
<path opacity="0.4" d="M90.5832 96.616L79.3488 98.1513C78.9904 98.1973 78.6281 98.1008 78.3402 97.8824C78.0522 97.6641 77.8614 97.3414 77.8089 96.9838C77.7616 96.6246 77.8576 96.2612 78.0761 95.9722C78.2946 95.6832 78.618 95.4917 78.9765 95.4393L90.2109 93.904C90.5693 93.858 90.9315 93.9546 91.2195 94.1729C91.5075 94.3913 91.6983 94.714 91.7508 95.0715C91.798 95.4308 91.7021 95.7941 91.4836 96.0832C91.2651 96.3722 90.9417 96.5636 90.5832 96.616Z" fill="#CFD8DC"/>
</g>
<path d="M71.8105 70.2088L46.5828 72.407L49.6114 107.164L74.8391 104.966L71.8105 70.2088Z" fill="#CFD8DC"/>
<path opacity="0.8" d="M71.8105 70.2088L46.5828 72.407L49.6114 107.164L74.8391 104.966L71.8105 70.2088Z" fill="#878787"/>
<g opacity="0.4">
<path opacity="0.4" d="M67.6132 78.0315L52.0717 79.383C51.7101 79.4124 51.3515 79.2981 51.0736 79.0649C50.7957 78.8317 50.6208 78.4984 50.5869 78.1373C50.5588 77.7764 50.6737 77.419 50.9067 77.1421C51.1398 76.8652 51.4723 76.691 51.8326 76.6571L67.3741 75.2781C67.7357 75.2487 68.0943 75.363 68.3722 75.5961C68.6502 75.8293 68.825 76.1626 68.8589 76.5238C68.8766 76.7047 68.8584 76.8873 68.8053 77.0611C68.7522 77.235 68.6653 77.3966 68.5495 77.5367C68.4338 77.6768 68.2914 77.7927 68.1308 77.8776C67.9701 77.9625 67.7942 78.0148 67.6132 78.0315Z" fill="#CFD8DC"/>
<path opacity="0.4" d="M68.114 83.7774L52.5725 85.1564C52.2109 85.1858 51.8523 85.0715 51.5744 84.8384C51.2965 84.6052 51.1217 84.2719 51.0878 83.9107C51.0584 83.5491 51.1727 83.1905 51.4058 82.9126C51.639 82.6347 51.9723 82.4598 52.3335 82.426L67.875 81.047C68.2366 81.0176 68.5952 81.1318 68.8731 81.365C69.151 81.5982 69.3258 81.9315 69.3597 82.2927C69.3891 82.6542 69.2749 83.0129 69.0417 83.2908C68.8085 83.5687 68.4752 83.7435 68.114 83.7774Z" fill="#CFD8DC"/>
<path opacity="0.4" d="M68.615 89.5232L53.0735 90.9023C52.7119 90.9317 52.3533 90.8174 52.0754 90.5842C51.7975 90.351 51.6226 90.0178 51.5888 89.6566C51.5594 89.295 51.6736 88.9364 51.9068 88.6584C52.14 88.3805 52.4733 88.2057 52.8345 88.1718L68.376 86.7928C68.7375 86.7634 69.0962 86.8777 69.3741 87.1109C69.652 87.344 69.8268 87.6773 69.8607 88.0385C69.8901 88.4001 69.7758 88.7587 69.5427 89.0366C69.3095 89.3145 68.9762 89.4894 68.615 89.5232Z" fill="#CFD8DC"/>
<path opacity="0.4" d="M69.1252 95.2692L53.5838 96.6482C53.2222 96.6776 52.8636 96.5633 52.5857 96.3301C52.3077 96.097 52.1329 95.7637 52.099 95.4025C52.0696 95.0409 52.1839 94.6823 52.4171 94.4044C52.6502 94.1265 52.9835 93.9516 53.3447 93.9177L68.8862 92.5663C69.2478 92.5369 69.6064 92.6512 69.8843 92.8844C70.1622 93.1175 70.3371 93.4508 70.371 93.812C70.3928 94.169 70.2751 94.5206 70.0427 94.7925C69.8103 95.0643 69.4813 95.2353 69.1252 95.2692Z" fill="#CFD8DC"/>
<path opacity="0.4" d="M65.3699 101.387L54.0758 102.371C53.712 102.404 53.3498 102.292 53.0688 102.058C52.7879 101.825 52.6111 101.489 52.5773 101.125C52.5479 100.764 52.6622 100.405 52.8953 100.127C53.1285 99.8493 53.4618 99.6745 53.823 99.6406L65.1171 98.6569C65.4787 98.6275 65.8373 98.7418 66.1152 98.975C66.3932 99.2082 66.568 99.5415 66.6019 99.9026C66.6314 100.262 66.5191 100.619 66.2888 100.896C66.0585 101.174 65.7287 101.35 65.3699 101.387Z" fill="#CFD8DC"/>
</g>
<path d="M102.551 68.5201L77.2568 69.7394L78.9368 104.588L104.231 103.369L102.551 68.5201Z" fill="#CFD8DC"/>
<path opacity="0.8" d="M102.551 68.5201L77.2568 69.7394L78.9368 104.588L104.231 103.369L102.551 68.5201Z" fill="#878787"/>
<g opacity="0.4">
<path opacity="0.4" d="M98.0571 76.1653L82.4788 76.9191C82.1168 76.9342 81.7634 76.8061 81.495 76.5627C81.2267 76.3193 81.0649 75.98 81.0446 75.6182C81.0296 75.2562 81.1576 74.9028 81.4011 74.6345C81.6445 74.3661 81.9838 74.2043 82.3455 74.1841L97.9284 73.4302C98.2904 73.4152 98.6438 73.5432 98.9122 73.7866C99.1806 74.03 99.3423 74.3693 99.3626 74.7311C99.3776 75.0939 99.2489 75.4479 99.0045 75.7164C98.7601 75.9849 98.4197 76.1462 98.0571 76.1653Z" fill="#CFD8DC"/>
<path opacity="0.4" d="M98.3376 81.9295L82.7547 82.6787C82.3927 82.6938 82.0393 82.5658 81.7709 82.3223C81.5025 82.0789 81.3407 81.7396 81.3205 81.3779C81.3055 81.0151 81.4341 80.661 81.6786 80.3925C81.923 80.124 82.2634 79.9628 82.626 79.9437L98.2042 79.1898C98.567 79.1748 98.9211 79.3035 99.1896 79.5479C99.4581 79.7923 99.6194 80.1327 99.6384 80.4953C99.6535 80.8573 99.5254 81.2107 99.282 81.4791C99.0386 81.7475 98.6993 81.9093 98.3376 81.9295Z" fill="#CFD8DC"/>
<path opacity="0.4" d="M87.3288 88.2546L83.0355 88.4615C82.6734 88.4765 82.3201 88.3485 82.0517 88.1051C81.7833 87.8616 81.6215 87.5224 81.6013 87.1606C81.5862 86.7986 81.7143 86.4452 81.9577 86.1768C82.2011 85.9084 82.5404 85.7466 82.9022 85.7264L87.1955 85.515C87.5583 85.5 87.9123 85.6286 88.1808 85.873C88.4493 86.1174 88.6106 86.4579 88.6297 86.8204C88.6447 87.1825 88.5167 87.5359 88.2733 87.8042C88.0298 88.0726 87.6906 88.2344 87.3288 88.2546Z" fill="#CFD8DC"/>
<path opacity="0.4" d="M95.6535 87.8317L91.3602 88.0385C90.9982 88.0536 90.6448 87.9256 90.3764 87.6821C90.108 87.4387 89.9462 87.0994 89.926 86.7377C89.9109 86.3757 90.039 86.0223 90.2824 85.7539C90.5258 85.4855 90.8651 85.3237 91.2269 85.3035L95.5202 85.0967C95.8822 85.0816 96.2356 85.2096 96.504 85.453C96.7724 85.6965 96.9341 86.0358 96.9544 86.3975C96.9694 86.7595 96.8414 87.1129 96.598 87.3813C96.3545 87.6497 96.0153 87.8115 95.6535 87.8317Z" fill="#CFD8DC"/>
<path opacity="0.4" d="M98.8939 93.4535L83.3111 94.2027C82.9491 94.2178 82.5957 94.0898 82.3273 93.8463C82.0589 93.6029 81.8971 93.2636 81.8769 92.9019C81.8619 92.5391 81.9905 92.185 82.2349 91.9165C82.4794 91.648 82.8198 91.4867 83.1824 91.4677L98.7606 90.7138C99.1234 90.6988 99.4775 90.8275 99.746 91.0719C100.014 91.3163 100.176 91.6567 100.195 92.0193C100.21 92.3813 100.082 92.7347 99.8384 93.0031C99.595 93.2715 99.2557 93.4332 98.8939 93.4535Z" fill="#CFD8DC"/>
<path opacity="0.4" d="M94.9131 99.42L83.5914 99.967C83.2294 99.9821 82.876 99.8541 82.6076 99.6106C82.3392 99.3672 82.1774 99.0279 82.1572 98.6662C82.1421 98.3041 82.2702 97.9507 82.5136 97.6824C82.757 97.414 83.0963 97.2522 83.4581 97.232L94.7798 96.685C95.1418 96.6699 95.4952 96.7979 95.7636 97.0414C96.0319 97.2848 96.1937 97.6241 96.2139 97.9858C96.229 98.3479 96.101 98.7013 95.8575 98.9696C95.6141 99.238 95.2748 99.3998 94.9131 99.42Z" fill="#CFD8DC"/>
</g>
<path d="M64.9195 95.9954L64.515 94.4831C64.2316 93.4365 63.5736 92.5304 62.6659 91.9372C61.7583 91.3439 60.6643 91.1049 59.5919 91.2654L37.6242 93.835C36.2915 93.9983 35.0641 94.6422 34.1722 95.6458C33.2802 96.6495 32.785 97.944 32.7793 99.2867L34.025 151.62C34.0324 152.051 34.1321 152.476 34.3172 152.865C34.5023 153.254 34.7687 153.6 35.0983 153.877C35.428 154.155 35.8133 154.359 36.2284 154.476C36.6434 154.592 37.0786 154.619 37.5047 154.553L116.109 145.36C117.021 145.249 117.862 144.809 118.474 144.123C119.086 143.437 119.426 142.551 119.432 141.632L118.356 96.3908C118.348 95.9595 118.248 95.535 118.062 95.1456C117.877 94.7563 117.61 94.4112 117.28 94.1334C116.95 93.8557 116.564 93.6517 116.149 93.5352C115.734 93.4187 115.298 93.3924 114.872 93.4581L69.2312 98.7948C68.2943 98.9379 67.3375 98.7318 66.5426 98.2157C65.7477 97.6996 65.1701 96.9095 64.9195 95.9954Z" fill="#CFD8DC"/>
<path opacity="0.3" d="M64.9195 95.9954L64.515 94.4831C64.2316 93.4365 63.5736 92.5304 62.6659 91.9372C61.7583 91.3439 60.6643 91.1049 59.5919 91.2654L37.6242 93.835C36.2915 93.9983 35.0641 94.6422 34.1722 95.6458C33.2802 96.6495 32.785 97.944 32.7793 99.2867L34.025 151.62C34.0324 152.051 34.1321 152.476 34.3172 152.865C34.5023 153.254 34.7687 153.6 35.0983 153.877C35.428 154.155 35.8133 154.359 36.2284 154.476C36.6434 154.592 37.0786 154.619 37.5047 154.553L116.109 145.36C117.021 145.249 117.862 144.809 118.474 144.123C119.086 143.437 119.426 142.551 119.432 141.632L118.356 96.3908C118.348 95.9595 118.248 95.535 118.062 95.1456C117.877 94.7563 117.61 94.4112 117.28 94.1334C116.95 93.8557 116.564 93.6517 116.149 93.5352C115.734 93.4187 115.298 93.3924 114.872 93.4581L69.2312 98.7948C68.2943 98.9379 67.3375 98.7318 66.5426 98.2157C65.7477 97.6996 65.1701 96.9095 64.9195 95.9954Z" fill="#12CD19"/>
<path d="M141.754 70.8377C141.414 72.543 141.051 74.2254 140.642 75.894C140.232 77.5627 139.833 79.2496 139.387 80.9183L138.706 83.4143L138.619 83.736C138.578 83.8739 138.532 84.0118 138.476 84.1543C138.359 84.4672 138.205 84.765 138.017 85.0415C137.789 85.385 137.497 85.6815 137.157 85.9149C136.783 86.1687 136.352 86.3265 135.902 86.3746C135.222 86.424 134.541 86.279 133.94 85.9563C133.483 85.7076 133.054 85.4101 132.662 85.0691C131.951 84.4479 131.322 83.7389 130.791 82.9592L132.101 81.8192C132.726 82.3057 133.387 82.7451 134.077 83.1339C134.377 83.3039 134.695 83.4411 135.024 83.543C135.305 83.6349 135.553 83.6211 135.553 83.5752C135.553 83.5292 135.507 83.5752 135.484 83.5752C135.461 83.5752 135.484 83.5752 135.484 83.497C135.484 83.4189 135.539 83.3361 135.571 83.2166L135.677 82.7064L136.21 80.1966L137.291 75.177C137.64 73.5038 138.017 71.826 138.38 70.1711L141.754 70.8377Z" fill="#B1B1B1"/>
<path d="M140.228 65.5836C136.307 68.5852 136.467 74.2438 136.467 74.2438L143.477 75.9216C143.477 75.9216 145.633 70.2309 144.76 68.1486C143.85 65.9789 142.439 63.892 140.228 65.5836Z" fill="#263238"/>
<path d="M132.45 81.8881L129.871 79.3094L128.492 83.3453C128.492 83.3453 130.671 84.5175 132.753 83.4097L132.45 81.8881Z" fill="#B1B1B1"/>
<path d="M126.299 78.9095L125.826 82.0997L128.478 83.3454L129.871 79.3095L126.299 78.9095Z" fill="#B1B1B1"/>
<path d="M162.954 172.31L159.01 172.696L154.905 163.305L158.849 162.919L162.954 172.31Z" fill="#B1B1B1"/>
<path d="M188.364 158.428L185.399 161.209L179.005 154.181L181.97 151.4L188.364 158.428Z" fill="#B1B1B1"/>
<path d="M184.043 159.876L186.268 155.868C186.305 155.797 186.367 155.743 186.442 155.715C186.516 155.687 186.598 155.688 186.673 155.716L190.097 157.021C190.182 157.057 190.258 157.11 190.321 157.177C190.383 157.244 190.431 157.323 190.461 157.41C190.491 157.497 190.502 157.589 190.494 157.68C190.486 157.772 190.459 157.861 190.414 157.941C189.614 159.32 189.159 159.954 188.18 161.719C187.578 162.804 186.406 165.291 185.574 166.776C184.742 168.26 183.216 167.534 183.427 166.835C184.379 163.7 184.199 161.958 183.933 160.579C183.887 160.339 183.926 160.091 184.043 159.876Z" fill="#263238"/>
<path d="M158.486 171.478H163.331C163.418 171.478 163.503 171.507 163.572 171.56C163.641 171.614 163.69 171.688 163.712 171.772L164.765 175.601C164.791 175.692 164.795 175.787 164.778 175.879C164.76 175.972 164.721 176.059 164.664 176.133C164.607 176.208 164.533 176.268 164.448 176.309C164.364 176.35 164.271 176.37 164.177 176.369C162.467 176.369 161.658 176.369 159.529 176.369H153.02C151.246 176.369 150.878 174.581 151.609 174.415C154.896 173.689 156.785 172.687 157.801 171.731C157.989 171.564 158.234 171.473 158.486 171.478Z" fill="#263238"/>
<path opacity="0.2" d="M154.909 163.31L157.024 168.15H161.138L158.853 162.924L154.909 163.31Z" fill="black"/>
<path opacity="0.2" d="M181.97 151.404L179.005 154.185L182.306 157.808L185.271 155.022L181.97 151.404Z" fill="black"/>
<path d="M141.414 65.0045C141.414 65.0045 139.639 65.7814 145.588 89.3165L162.108 87.8869C161.253 81.1895 160.885 77.0433 162.903 62.9636C160.55 62.6852 158.179 62.5792 155.811 62.6464C153.298 62.684 150.791 62.9006 148.309 63.2945C145.983 63.7474 143.682 64.3181 141.414 65.0045Z" fill="#263238"/>
<path d="M155.81 62.5131C155.81 62.5131 156.73 62.5131 157.851 62.5131C158.518 63.5381 156.357 68.0291 152.795 70.9664C152.252 69.3334 151.256 67.8888 149.922 66.8018L155.81 62.5131Z" fill="#C4C4C4"/>
<path d="M148.309 63.2347C148.309 63.2347 147.89 63.2945 146.893 63.5243C146.226 64.5494 145.1 68.9301 147.063 71.1641C147.557 69.47 148.548 67.9631 149.908 66.8386L148.309 63.2347Z" fill="#C4C4C4"/>
<path d="M154.335 54.262C154.073 56.7166 153.981 61.157 155.81 62.6464C155.81 62.6464 153.857 64.6413 149.908 66.8386C147.035 64.8528 148.308 63.2945 148.308 63.2945C150.942 62.4211 150.699 60.4308 150.069 58.5921L154.335 54.262Z" fill="#B1B1B1"/>
<path d="M149.839 66.8523C149.839 66.8523 152.262 64.2138 153.516 64.7194C154.771 65.2251 153.801 66.1306 153.691 66.981C153.581 67.8314 154.178 70.093 152.501 69.5046C150.823 68.9162 149.839 66.8523 149.839 66.8523Z" fill="#FBFBFB"/>
<path d="M149.743 66.7971C149.743 66.7971 148.598 64.7746 147.362 65.0458C146.125 65.317 146.861 66.0249 146.971 66.7879C147.113 67.7624 146.084 69.6379 147.573 69.0863C149.062 68.5347 149.743 66.7971 149.743 66.7971Z" fill="#FBFBFB"/>
<g opacity="0.2">
<path opacity="0.2" d="M149.108 66.3605C149.092 66.7683 149.17 67.1744 149.338 67.5464C149.49 67.3088 149.624 67.0599 149.738 66.8018C149.568 66.5136 149.373 66.2413 149.154 65.9882C149.116 66.1084 149.101 66.2346 149.108 66.3605Z" fill="black"/>
<path opacity="0.2" d="M150.722 65.9973C150.202 66.457 149.844 66.8523 149.844 66.8523C149.977 67.1283 150.131 67.3941 150.303 67.6475C150.581 67.369 150.745 66.997 150.763 66.6041C150.807 66.402 150.793 66.1915 150.722 65.9973Z" fill="black"/>
</g>
<path d="M149.811 67.6798C149.467 67.6798 149.255 67.3074 149.232 66.4203C149.209 65.5331 149.89 66.025 149.89 66.025C149.89 66.025 150.809 65.5653 150.643 66.6271C150.524 67.4683 150.165 67.6798 149.811 67.6798Z" fill="#CFD8DC"/>
<path opacity="0.2" d="M152.598 56.0316L150.074 58.592C150.225 59.0183 150.341 59.4565 150.419 59.9021C151.435 59.6676 152.906 58.6104 152.919 57.5255C152.903 57.0123 152.794 56.5062 152.598 56.0316Z" fill="black"/>
<path d="M150.432 45.9649C150.432 45.9649 147.674 49.7848 147.215 51.481C145.339 52.575 144.962 47.1922 145.955 43.8734C149.053 45.8178 150.432 45.9649 150.432 45.9649Z" fill="#263238"/>
<path d="M156.495 50.4283C155.47 54.3493 155.116 56.0317 152.717 57.6727C149.099 60.1458 144.507 58.0313 144.337 53.8804C144.185 50.1479 145.886 44.3606 150.083 43.547C151.008 43.3593 151.965 43.412 152.864 43.7C153.763 43.9881 154.573 44.5019 155.216 45.1923C155.859 45.8827 156.315 46.7266 156.539 47.6434C156.763 48.5601 156.748 49.519 156.495 50.4283Z" fill="#B1B1B1"/>
<path d="M158.628 48.8609C158.628 48.8609 156.656 52.0556 156.389 53.4576C154.96 54.4275 154.358 50.1709 154.96 47.4818C155.617 45.087 158.628 48.8609 158.628 48.8609Z" fill="#263238"/>
<path d="M157.842 46.6406C157.272 47.0727 156.67 45.4777 157.235 44.2549C156.146 44.3239 154.836 43.6758 155.116 42.6231C152.97 43.3448 152.174 41.1614 152.423 39.649C152.721 37.8104 154.321 37.4196 155.263 37.9023C155.263 37.0795 157.341 35.3649 158.132 36.7071C159.598 36.1877 161.961 36.3486 161.91 38.1505C162.88 38.1781 165.744 39.2767 164.668 41.8279C165.932 41.9014 166.617 43.5057 165.914 44.7192C166.191 44.866 166.429 45.0772 166.607 45.3352C166.785 45.5931 166.899 45.8902 166.938 46.2012C166.977 46.5122 166.941 46.8282 166.832 47.1223C166.724 47.4164 166.546 47.68 166.314 47.8909C166.898 49.1045 165.128 50.911 164.186 50.6949C163.469 51.7936 162.37 52.621 161.653 51.6832C160.274 52.6991 158.688 51.4074 159.042 50.4145C157.479 50.1755 155.884 47.5692 157.842 46.6406Z" fill="#263238"/>
<path d="M160.177 42.7794C161.207 44.4985 161.12 46.4567 159.989 47.1233C158.858 47.7898 157.098 46.9624 156.068 45.2432C155.038 43.524 155.121 41.5658 156.256 40.8993C157.392 40.2328 159.148 41.0648 160.177 42.7794Z" fill="#CFD8DC"/>
<path d="M150.616 45.5052C150.556 45.997 149.2 45.8683 148.809 44.9995C148.249 45.5879 146.929 45.8913 146.479 45.2523C145.716 46.6865 144.181 46.3096 143.785 45.6247C143.39 44.9398 143.128 43.6665 143.923 43.4136C143.463 43.0183 143.601 41.1567 144.806 41.3911C145.311 40.3982 146.695 39.272 147.706 40.15C148.258 39.6903 150.464 38.7342 151.356 40.4855C151.552 40.3519 151.775 40.2643 152.009 40.2294C152.244 40.1944 152.483 40.2131 152.709 40.2838C152.935 40.3546 153.142 40.4757 153.314 40.638C153.487 40.8004 153.62 40.9997 153.705 41.221C155.134 40.8487 155.755 41.9335 155.75 42.5219C156.766 42.7977 156.835 44.5536 156.21 44.9306C156.454 45.8177 156.325 46.7693 155.392 46.6865C155.213 47.8817 153.613 48.0655 153.236 47.4174C152.197 48.0839 150.078 46.9255 150.616 45.5052Z" fill="#263238"/>
<path d="M148.189 42.1129C149.352 40.504 153.595 39.8145 157.268 42.2462C160.577 44.4204 160.361 49.4722 157.727 49.201C155.093 48.9298 152.492 45.8454 152.492 45.8454L148.189 42.1129Z" fill="#263238"/>
<path d="M156.817 53.9677C156.451 54.6589 155.826 55.1776 155.08 55.411C154.082 55.7098 153.567 54.8272 153.825 53.8757C154.059 53.0207 154.854 51.8348 155.861 51.9543C156.081 51.9835 156.289 52.0671 156.468 52.1976C156.647 52.3281 156.791 52.5012 156.886 52.7013C156.981 52.9014 157.025 53.122 157.013 53.3432C157.001 53.5644 156.933 53.779 156.817 53.9677Z" fill="#B1B1B1"/>
<path d="M145.587 89.3165C145.587 89.3165 139.998 114.047 143.749 131.482C146.249 143.158 155.241 166.743 155.241 166.743L162.292 166.564C162.292 166.564 155.466 141.811 154.055 132.089C151.641 115.44 157.686 88.2868 157.686 88.2868L145.587 89.3165Z" fill="#CFD8DC"/>
<path opacity="0.2" d="M152.032 94.3131L155.544 99.8705C154.482 106.46 153.808 113.106 153.526 119.774C148.584 110.903 150.947 99.0064 152.032 94.3131Z" fill="black"/>
<path d="M154.248 167.111L162.954 166.886L162.453 164.215L153.567 164.634L154.248 167.111Z" fill="#263238"/>
<path d="M149.201 89.0545C149.201 89.0545 152.478 115.279 159.589 129.597C165.331 141.163 180.651 157.637 180.651 157.637L184.568 153.602C184.568 153.602 174.221 135.711 169.955 128.03C159.488 109.183 168.043 94.8187 162.108 87.9007L149.201 89.0545Z" fill="#CFD8DC"/>
<path d="M180.256 158.166L185.312 153.238L183.634 150.954L178.27 156.304L180.256 158.166Z" fill="#263238"/>
<path d="M162.273 86.8986L163.147 88.3144C163.216 88.4201 163.087 88.5488 162.898 88.5672L145.569 90.0657C145.422 90.0657 145.293 90.0151 145.275 89.9232L144.999 88.4569C144.976 88.3557 145.1 88.2592 145.261 88.2454L161.993 86.7974C162.044 86.7878 162.098 86.7921 162.147 86.8099C162.196 86.8276 162.24 86.8583 162.273 86.8986Z" fill="#CFD8DC"/>
<path opacity="0.5" d="M162.273 86.8986L163.147 88.3144C163.216 88.4201 163.087 88.5488 162.898 88.5672L145.569 90.0657C145.422 90.0657 145.293 90.0151 145.275 89.9232L144.999 88.4569C144.976 88.3557 145.1 88.2592 145.261 88.2454L161.993 86.7974C162.044 86.7878 162.098 86.7921 162.147 86.8099C162.196 86.8276 162.24 86.8583 162.273 86.8986Z" fill="white"/>
<path d="M160.186 88.9625L160.646 88.9257C160.733 88.9257 160.798 88.866 160.789 88.8108L160.412 86.9078C160.412 86.848 160.32 86.8112 160.228 86.8204L159.768 86.8572C159.676 86.8572 159.612 86.917 159.626 86.9721L160.003 88.8752C160.016 88.9303 160.099 88.9717 160.186 88.9625Z" fill="#CFD8DC"/>
<path d="M146.842 90.1163L147.302 90.0795C147.389 90.0795 147.453 90.0198 147.444 89.9646L147.067 88.0616C147.051 88.0286 147.024 88.0021 146.99 87.9863C146.957 87.9705 146.919 87.9662 146.883 87.9742L146.424 88.011C146.332 88.011 146.267 88.0708 146.281 88.1259L146.658 90.029C146.672 90.0933 146.755 90.1255 146.842 90.1163Z" fill="#CFD8DC"/>
<path d="M153.517 89.5417L153.976 89.5004C154.068 89.5004 154.133 89.4406 154.119 89.3855L153.742 87.4824C153.742 87.4273 153.65 87.3859 153.563 87.3951L153.103 87.4365C153.016 87.4365 152.951 87.4962 152.96 87.5514L153.337 89.4544C153.346 89.5096 153.425 89.5463 153.517 89.5417Z" fill="#CFD8DC"/>
<path d="M149.858 50.295C149.794 50.6168 149.573 50.8466 149.362 50.8053C149.15 50.7639 149.031 50.4651 149.09 50.1433C149.15 49.8216 149.38 49.5917 149.591 49.6331C149.803 49.6745 149.922 49.9687 149.858 50.295Z" fill="#263238"/>
<path d="M146.198 49.5727C146.262 49.2488 146.142 48.9526 145.93 48.9109C145.718 48.8693 145.495 49.0981 145.431 49.4219C145.368 49.7458 145.488 50.042 145.699 50.0837C145.911 50.1253 146.134 49.8965 146.198 49.5727Z" fill="#263238"/>
<path d="M146.029 48.9527L145.293 48.5758C145.293 48.5758 145.574 49.2607 146.029 48.9527Z" fill="#263238"/>
<path d="M147.458 50.3823C147.028 51.064 146.505 51.6828 145.905 52.221C146.044 52.3745 146.215 52.4954 146.407 52.5748C146.599 52.6543 146.805 52.6904 147.012 52.6807L147.458 50.3823Z" fill="#B1B1B1"/>
<path d="M148.506 54.1977C149.185 54.2049 149.842 53.9553 150.345 53.499C150.355 53.4917 150.363 53.4824 150.369 53.4717C150.374 53.4609 150.378 53.4491 150.378 53.437C150.379 53.4248 150.377 53.4127 150.372 53.4014C150.368 53.3902 150.361 53.38 150.352 53.3718C150.343 53.3635 150.332 53.3574 150.321 53.3537C150.309 53.35 150.297 53.349 150.285 53.3506C150.273 53.3522 150.261 53.3564 150.251 53.363C150.241 53.3696 150.232 53.3783 150.225 53.3886C149.916 53.6614 149.547 53.8573 149.147 53.9603C148.748 54.0634 148.33 54.0707 147.927 53.9816C147.917 53.9796 147.906 53.9797 147.896 53.9819C147.886 53.9841 147.876 53.9883 147.868 53.9943C147.859 54.0003 147.852 54.008 147.846 54.0169C147.841 54.0257 147.837 54.0356 147.835 54.046C147.832 54.0563 147.832 54.0671 147.834 54.0776C147.836 54.0881 147.84 54.0981 147.846 54.1068C147.852 54.1156 147.86 54.1229 147.869 54.1283C147.879 54.1336 147.889 54.1369 147.9 54.1379C148.099 54.1797 148.302 54.1998 148.506 54.1977Z" fill="#263238"/>
<path d="M152.05 49.0401C152.079 49.0397 152.108 49.0317 152.133 49.0171C152.17 48.9952 152.196 48.9596 152.206 48.9182C152.217 48.8768 152.21 48.8331 152.188 48.7965C152.036 48.5382 151.825 48.32 151.571 48.1601C151.318 48.0001 151.03 47.9031 150.731 47.8771C150.71 47.8765 150.689 47.8801 150.669 47.8876C150.649 47.8951 150.631 47.9065 150.616 47.921C150.6 47.9355 150.588 47.9529 150.579 47.9722C150.571 47.9915 150.566 48.0123 150.565 48.0334C150.565 48.0546 150.568 48.0756 150.576 48.0954C150.583 48.1151 150.595 48.1332 150.609 48.1486C150.624 48.1639 150.641 48.1763 150.661 48.1849C150.68 48.1936 150.701 48.1983 150.722 48.1989C150.968 48.226 151.205 48.3115 151.412 48.4482C151.619 48.5848 151.791 48.7688 151.912 48.985C151.929 49.0046 151.951 49.0198 151.975 49.0294C151.999 49.039 152.025 49.0427 152.05 49.0401Z" fill="#263238"/>
<path d="M145.192 47.7438C145.218 47.7497 145.244 47.7497 145.27 47.7438C145.484 47.6174 145.724 47.5433 145.972 47.5273C146.219 47.5113 146.467 47.554 146.695 47.6519C146.732 47.6674 146.774 47.6684 146.812 47.6546C146.85 47.6407 146.882 47.6131 146.9 47.5772C146.919 47.5413 146.923 47.4997 146.912 47.4607C146.902 47.4218 146.877 47.3883 146.842 47.3669C146.567 47.2422 146.266 47.1858 145.964 47.2026C145.662 47.2194 145.369 47.3089 145.109 47.4634C145.073 47.4846 145.047 47.519 145.036 47.5593C145.024 47.5996 145.029 47.6427 145.05 47.6795C145.065 47.7021 145.087 47.7201 145.112 47.7314C145.137 47.7427 145.165 47.747 145.192 47.7438Z" fill="#263238"/>
<path d="M163.607 66.7236C163.919 67.027 164.135 67.266 164.379 67.5372C164.623 67.8085 164.839 68.0751 165.059 68.3463C165.496 68.8933 165.914 69.4541 166.305 70.0287C167.082 71.1871 167.77 72.4026 168.364 73.6647C168.957 74.9327 169.435 76.2511 169.794 77.6041C169.973 78.2798 170.134 78.9831 170.253 79.6588C170.482 80.635 170.37 81.6599 169.936 82.5639C169.684 83.0388 169.335 83.4554 168.911 83.7866C168.544 84.0691 168.14 84.301 167.711 84.4761C166.974 84.7607 166.2 84.9432 165.413 85.0186C164.016 85.1527 162.609 85.1342 161.216 84.9634C158.55 84.6533 155.918 84.0947 153.356 83.2948L153.779 81.6262C155.029 81.833 156.316 82.0261 157.585 82.1594C158.854 82.2927 160.132 82.4122 161.386 82.4398C162.602 82.4836 163.819 82.4159 165.022 82.2375C165.541 82.1533 166.045 81.9986 166.521 81.7779C166.813 81.6674 167.053 81.4529 167.197 81.1757C167.235 81.0697 167.254 80.9575 167.252 80.8447C167.258 80.7621 167.258 80.6791 167.252 80.5965C167.252 80.5046 167.22 80.4218 167.178 80.2518C167.05 79.6588 166.879 79.075 166.696 78.4958C166.322 77.341 165.861 76.2162 165.317 75.131C164.77 74.0395 164.143 72.99 163.441 71.9915C163.096 71.4858 162.733 70.994 162.356 70.5205C162.168 70.2815 161.97 70.0608 161.777 69.8264C161.584 69.592 161.363 69.3667 161.212 69.2013L163.607 66.7236Z" fill="#B1B1B1"/>
<path d="M154.831 81.879L151.613 80.1736L151.466 84.4348C151.466 84.4348 153.765 84.5819 155.079 83.5155L154.831 81.879Z" fill="#B1B1B1"/>
<path d="M149.186 104.803L151.843 75.9309L146.166 71.5824L128.837 69.9874L125.826 102.652L149.186 104.803Z" fill="#CFD8DC"/>
<path opacity="0.8" d="M149.186 104.803L151.843 75.9309L146.166 71.5824L128.837 69.9874L125.826 102.652L149.186 104.803Z" fill="#878787"/>
<path d="M151.843 75.9309L146.167 71.5824L147.656 76.7859L151.843 75.9309Z" fill="#CFD8DC"/>
<path opacity="0.4" d="M147.605 81.9158C147.582 82.1684 147.51 82.4141 147.392 82.6387C147.273 82.8633 147.112 83.0624 146.917 83.2246C146.722 83.3868 146.497 83.509 146.255 83.5841C146.012 83.6593 145.757 83.6859 145.505 83.6625L132.864 82.4995C132.354 82.4517 131.884 82.2038 131.556 81.8101C131.229 81.4163 131.071 80.9089 131.117 80.3988C131.14 80.1462 131.213 79.9005 131.331 79.6759C131.449 79.4513 131.61 79.2522 131.805 79.09C132 78.9278 132.226 78.8056 132.468 78.7305C132.71 78.6553 132.965 78.6287 133.218 78.6521L145.859 79.8151C146.111 79.8381 146.357 79.9108 146.582 80.0289C146.806 80.147 147.005 80.3082 147.167 80.5033C147.33 80.6984 147.452 80.9236 147.527 81.1659C147.602 81.4083 147.629 81.6631 147.605 81.9158Z" fill="#CFD8DC"/>
<path opacity="0.4" d="M143.298 87.1331C143.275 87.3857 143.202 87.6314 143.084 87.856C142.966 88.0806 142.805 88.2797 142.61 88.4419C142.415 88.6041 142.19 88.7263 141.947 88.8014C141.705 88.8766 141.45 88.9032 141.198 88.8798L132.363 88.0662C132.11 88.0431 131.864 87.9704 131.64 87.8523C131.415 87.7342 131.216 87.573 131.054 87.3779C130.892 87.1828 130.769 86.9577 130.694 86.7153C130.619 86.4729 130.592 86.2182 130.616 85.9655C130.639 85.7128 130.712 85.4671 130.83 85.2426C130.948 85.018 131.109 84.8189 131.304 84.6567C131.499 84.4944 131.724 84.3722 131.967 84.2971C132.209 84.222 132.464 84.1953 132.717 84.2187L141.551 85.037C142.06 85.0848 142.53 85.3321 142.857 85.7248C143.184 86.1175 143.343 86.6238 143.298 87.1331Z" fill="#CFD8DC"/>
<path d="M149.646 80.4265L150.129 83.612L151.462 84.4348L151.609 80.1736L149.646 80.4265Z" fill="#B1B1B1"/>
<path d="M162.898 62.9727C164.925 63.3313 167.766 69.1415 167.766 69.1415L162.659 73.7382C162.659 73.7382 158.596 69.307 158.812 66.6685C159 64.4391 160.324 62.513 162.898 62.9727Z" fill="#263238"/>
<path d="M183.253 162.032C183.306 162.031 183.358 162.023 183.409 162.009C183.897 161.843 184.214 160.947 184.361 160.428C184.364 160.413 184.363 160.397 184.358 160.383C184.353 160.368 184.345 160.355 184.333 160.345C184.321 160.335 184.305 160.329 184.29 160.329C184.274 160.329 184.258 160.335 184.246 160.345C184.099 160.418 182.803 161.113 182.761 161.623C182.755 161.678 182.765 161.735 182.789 161.785C182.814 161.835 182.852 161.878 182.899 161.908C182.999 161.989 183.124 162.032 183.253 162.032ZM184.172 160.57C183.947 161.287 183.657 161.761 183.382 161.853C183.319 161.872 183.253 161.874 183.189 161.86C183.125 161.845 183.066 161.814 183.019 161.77C182.994 161.756 182.974 161.735 182.961 161.71C182.948 161.684 182.942 161.656 182.945 161.627C182.945 161.315 183.703 160.823 184.149 160.57H184.172Z" fill="#CFD8DC"/>
<path d="M183.051 160.772C183.492 160.77 183.928 160.668 184.324 160.474C184.335 160.466 184.345 160.456 184.351 160.444C184.357 160.432 184.361 160.418 184.361 160.405C184.361 160.39 184.358 160.376 184.35 160.364C184.343 160.352 184.332 160.342 184.319 160.336C184.278 160.313 183.253 159.747 182.701 159.945C182.632 159.965 182.568 160.002 182.515 160.051C182.463 160.101 182.422 160.162 182.398 160.23C182.363 160.294 182.352 160.369 182.365 160.441C182.379 160.512 182.416 160.578 182.471 160.625C182.643 160.737 182.847 160.789 183.051 160.772ZM184.103 160.405C183.667 160.593 182.816 160.708 182.577 160.506C182.536 160.469 182.494 160.414 182.55 160.29C182.566 160.244 182.593 160.203 182.628 160.169C182.663 160.136 182.705 160.111 182.752 160.097C183.124 159.963 183.814 160.262 184.103 160.423V160.405Z" fill="#CFD8DC"/>
<path d="M156.339 172.26C156.783 172.249 157.225 172.192 157.658 172.089C157.673 172.084 157.686 172.074 157.696 172.061C157.705 172.048 157.71 172.032 157.71 172.016C157.71 172 157.705 171.984 157.696 171.971C157.686 171.958 157.673 171.948 157.658 171.942C157.46 171.846 155.7 171.023 155.259 171.336C155.218 171.362 155.186 171.399 155.165 171.443C155.145 171.487 155.138 171.536 155.144 171.584C155.145 171.674 155.167 171.762 155.208 171.842C155.25 171.922 155.31 171.991 155.383 172.044C155.67 172.216 156.005 172.291 156.339 172.26ZM157.382 171.984C156.863 172.08 155.898 172.209 155.498 171.91C155.446 171.87 155.404 171.819 155.374 171.761C155.344 171.703 155.327 171.64 155.323 171.575C155.319 171.554 155.321 171.533 155.329 171.515C155.338 171.496 155.351 171.48 155.369 171.469C155.613 171.299 156.651 171.662 157.382 171.984Z" fill="#CFD8DC"/>
<path d="M157.64 172.094C157.658 172.099 157.677 172.099 157.695 172.094C157.706 172.084 157.715 172.071 157.719 172.056C157.723 172.041 157.722 172.026 157.718 172.011C157.718 171.938 157.304 170.205 156.339 170.315C156.1 170.347 156.031 170.462 156.022 170.559C155.962 171.018 157.07 171.887 157.598 172.108L157.64 172.094ZM156.435 170.453C157.047 170.453 157.401 171.464 157.52 171.869C156.946 171.565 156.141 170.844 156.192 170.563C156.192 170.54 156.192 170.476 156.371 170.458L156.435 170.453Z" fill="#CFD8DC"/>
<path d="M149.678 49.6699L148.948 49.293C148.948 49.293 149.228 49.9779 149.678 49.6699Z" fill="#263238"/>
</svg>
