<svg width="225" height="225" viewBox="0 0 225 225" fill="none" xmlns="http://www.w3.org/2000/svg">
<circle cx="112.5" cy="112.5" r="111.5" fill="#ECECEC"/>
<path d="M110.694 173.587C153.813 173.587 188.767 171.547 188.767 169.029C188.767 166.512 153.813 164.471 110.694 164.471C67.5761 164.471 32.6219 166.512 32.6219 169.029C32.6219 171.547 67.5761 173.587 110.694 173.587Z" fill="#F5F5F5"/>
<path d="M112.446 54.9102L112.164 54.6888C113.433 53.0781 114.765 51.5641 116.126 50.1467L116.38 50.3964C115.027 51.8017 113.702 53.3237 112.446 54.9102Z" fill="#ADADAD"/>
<path d="M110.942 56.2325L109.643 57.8699L109.921 58.0901L111.22 56.4527L110.942 56.2325Z" fill="#ADADAD"/>
<path d="M138.881 73.5896C147.631 59.5245 148.823 45.6648 142.453 41.1791C136.083 36.6935 123.435 42.4838 113.139 55.4616L83.7163 92.5752L113.884 113.82L138.881 73.5896Z" fill="#D0D0D0"/>
<path opacity="0.1" d="M135.438 71.1657L109.829 110.977L106.696 104.989L132.132 68.6691C139.324 58.3972 143.355 49.0111 143.371 43.7845C143.37 43.6835 143.405 43.5854 143.47 43.5078C143.534 43.4302 143.624 43.378 143.724 43.3606C143.824 43.3432 143.926 43.3617 144.013 43.4128C144.1 43.4639 144.167 43.5442 144.2 43.6395C146.012 48.854 142.871 59.6132 135.438 71.1657Z" fill="white"/>
<path d="M113.865 113.81C117.938 108.026 114.486 98.5817 106.154 92.7153C97.8225 86.8489 87.7668 86.7822 83.6942 92.5663C79.6215 98.3504 83.074 107.795 91.4056 113.661C99.7371 119.528 109.793 119.594 113.865 113.81Z" fill="#ADADAD"/>
<path opacity="0.5" d="M113.865 113.81C117.938 108.026 114.486 98.5817 106.154 92.7153C97.8225 86.8489 87.7668 86.7822 83.6942 92.5663C79.6215 98.3504 83.074 107.795 91.4056 113.661C99.7371 119.528 109.793 119.594 113.865 113.81Z" fill="#797979"/>
<path opacity="0.1" d="M110.735 86.1608C104.115 81.498 96.6054 80.1652 91.8097 82.3436L84.3403 91.7579C88.7696 86.8131 98.2362 87.1514 106.153 92.7243C114.069 98.2971 117.584 107.111 114.411 112.938L120.681 102.871C121.22 97.5844 117.427 90.872 110.735 86.1608Z" fill="black"/>
<path opacity="0.2" d="M121.337 55.8081C119.501 58.7153 118.116 64.1553 123.572 67.9927C129.028 71.8301 133.683 68.7014 135.797 65.9794L121.337 55.8081Z" fill="black"/>
<path d="M137.085 62.629C136.461 67.8234 130.458 71.6125 124.156 67.1751C117.854 62.7378 119.396 55.8079 124.075 53.4845C126.958 52.043 130.631 52.6792 133.143 54.4268C135.656 56.1743 137.472 59.4077 137.085 62.629Z" fill="white"/>
<path d="M125.013 65.9473C122.561 64.2239 121.305 61.9689 121.482 59.6093C121.563 58.5909 121.905 57.6107 122.477 56.764C123.048 55.9172 123.829 55.2328 124.744 54.7774C126.934 53.6821 130.035 54.0244 132.286 55.6068C134.536 57.1893 135.91 59.9999 135.608 62.432C135.488 63.4436 135.109 64.4071 134.507 65.229C133.905 66.0509 133.101 66.7033 132.173 67.123C130.023 68.0975 127.466 67.6747 125.013 65.9473Z" fill="#ADADAD"/>
<path opacity="0.3" d="M125.013 65.9473C122.561 64.2239 121.305 61.9689 121.482 59.6093C121.563 58.5909 121.905 57.6107 122.477 56.764C123.048 55.9172 123.829 55.2328 124.744 54.7774C126.934 53.6821 130.035 54.0244 132.286 55.6068C134.536 57.1893 135.91 59.9999 135.608 62.432C135.488 63.4436 135.109 64.4071 134.507 65.229C133.905 66.0509 133.101 66.7033 132.173 67.123C130.023 68.0975 127.466 67.6747 125.013 65.9473Z" fill="black"/>
<path d="M125.014 65.947C122.561 64.2236 121.261 62.0331 121.357 59.7863C121.399 58.831 121.704 57.9059 122.238 57.1129C122.773 56.3199 123.516 55.69 124.385 55.2925C126.491 54.3181 129.531 54.7449 131.782 56.3314C134.033 57.9179 135.459 60.6359 135.249 62.9472C135.168 63.9013 134.824 64.8143 134.255 65.5848C133.687 66.3553 132.916 66.9532 132.028 67.3121C129.962 68.1617 127.466 67.6745 125.014 65.947Z" fill="#ADADAD"/>
<path opacity="0.2" d="M125.014 65.947C122.561 64.2236 121.261 62.0331 121.357 59.7863C121.399 58.831 121.704 57.9059 122.238 57.1129C122.773 56.3199 123.516 55.69 124.385 55.2925C126.491 54.3181 129.531 54.7449 131.782 56.3314C134.033 57.9179 135.459 60.6359 135.249 62.9472C135.168 63.9013 134.824 64.8143 134.255 65.5848C133.687 66.3553 132.916 66.9532 132.028 67.3121C129.962 68.1617 127.466 67.6745 125.014 65.947Z" fill="white"/>
<path opacity="0.3" d="M133.489 57.9221L122.154 62.9232C121.592 61.9759 121.313 60.8875 121.349 59.7865C121.37 59.2679 121.472 58.7558 121.651 58.2684L128.967 55.0471C130.743 55.4971 132.326 56.5083 133.481 57.9302L133.489 57.9221Z" fill="white"/>
<path opacity="0.3" d="M135.116 61.1474L124.715 65.7297C124.09 65.2709 123.52 64.7412 123.016 64.1512L134.331 59.1582C134.684 59.7812 134.949 60.4508 135.116 61.1474Z" fill="white"/>
<path opacity="0.1" d="M146.455 52.18C146.109 49.4016 143.975 46.1883 140.601 43.8126C137.226 41.4369 133.485 40.5108 130.751 41.1188C135.402 39.2223 139.57 39.1498 142.453 41.1792C145.336 43.2086 146.673 47.1628 146.455 52.18Z" fill="black"/>
<path opacity="0.5" d="M106.148 102.484C107.417 100.682 106.389 97.7735 103.852 95.9875C101.316 94.2014 98.2308 94.2143 96.962 96.0163C95.6932 97.8183 96.721 100.727 99.2575 102.513C101.794 104.299 104.879 104.286 106.148 102.484Z" fill="#ADADAD"/>
<path opacity="0.5" d="M94.1856 100.794C92.9172 102.594 89.8328 102.61 87.296 100.822C84.7592 99.034 83.7284 96.1267 84.9968 94.3268C86.2652 92.5269 89.3536 92.5108 91.8904 94.2986C94.4272 96.0865 95.4378 98.9937 94.1856 100.794Z" fill="#ADADAD"/>
<path opacity="0.5" d="M111.786 113.2C110.517 115.004 107.433 115.016 104.896 113.228C102.359 111.44 101.332 108.533 102.601 106.733C103.869 104.933 106.954 104.917 109.49 106.705C112.027 108.493 113.054 111.4 111.786 113.2Z" fill="#ADADAD"/>
<path opacity="0.5" d="M99.8226 111.505C98.5543 113.305 95.4698 113.317 92.9331 111.533C90.3963 109.749 89.3695 106.838 90.6379 105.034C91.9063 103.23 94.9907 103.222 97.5275 105.006C100.064 106.789 101.075 109.701 99.8226 111.505Z" fill="#ADADAD"/>
<path opacity="0.5" d="M106.153 102.493C106.018 102.683 105.862 102.856 105.685 103.008C106.39 101.212 105.327 98.7199 103.06 97.1253C100.793 95.5308 98.0913 95.3697 96.6376 96.6341C96.7231 96.4197 96.8325 96.2158 96.9638 96.0261C98.2322 94.2261 101.321 94.21 103.857 95.9979C106.394 97.7857 107.417 100.689 106.153 102.493Z" fill="#ADADAD"/>
<path opacity="0.5" d="M94.1854 100.794C94.0517 100.983 93.8963 101.156 93.7223 101.309C94.427 99.5092 93.368 97.0207 91.0969 95.4221C88.8259 93.8235 86.1281 93.6665 84.6744 94.9349C84.759 94.7201 84.8684 94.5161 85.0006 94.3269C86.269 92.5229 89.3534 92.5109 91.8902 94.2987C94.427 96.0865 95.4376 98.9897 94.1854 100.794Z" fill="#ADADAD"/>
<path opacity="0.5" d="M111.786 113.204C111.652 113.392 111.496 113.563 111.322 113.715C112.027 111.915 110.964 109.427 108.697 107.832C106.43 106.238 103.728 106.073 102.275 107.345C102.358 107.129 102.468 106.923 102.601 106.733C103.869 104.929 106.954 104.917 109.49 106.705C112.027 108.493 113.058 111.4 111.786 113.204Z" fill="#ADADAD"/>
<path opacity="0.5" d="M99.823 111.505C99.6915 111.694 99.5358 111.866 99.3599 112.016C100.065 110.22 99.0016 107.728 96.7346 106.133C94.4676 104.539 91.7657 104.377 90.3121 105.646C90.395 105.429 90.5045 105.224 90.6382 105.034C91.9066 103.23 94.991 103.222 97.5278 105.006C100.065 106.789 101.075 109.701 99.823 111.505Z" fill="#ADADAD"/>
<path d="M103.68 69.1645C103.68 69.1645 98.2442 76.2192 93.5088 82.2914C92.8364 83.1379 91.9553 83.795 90.9521 84.1981C89.949 84.6012 88.8582 84.7365 87.787 84.5906C83.6516 84.0792 76.915 87.0066 76.915 87.0066C76.915 87.0066 89.6594 66.0721 103.68 69.1645Z" fill="#ADADAD"/>
<path opacity="0.3" d="M103.68 69.1645C103.68 69.1645 98.2442 76.2192 93.5088 82.2914C92.8364 83.1379 91.9553 83.795 90.9521 84.1981C89.949 84.6012 88.8582 84.7365 87.787 84.5906C83.6516 84.0792 76.915 87.0066 76.915 87.0066C76.915 87.0066 89.6594 66.0721 103.68 69.1645Z" fill="#FF0606"/>
<path d="M129.173 87.1191C129.173 87.1191 124.385 94.6127 120.242 101.116C119.672 102.034 119.35 103.085 119.31 104.165C119.269 105.245 119.509 106.318 120.008 107.276C121.885 111.001 121.394 118.346 121.394 118.346C121.394 118.346 136.812 99.2715 129.173 87.1191Z" fill="#ADADAD"/>
<path opacity="0.3" d="M129.173 87.1191C129.173 87.1191 124.385 94.6127 120.242 101.116C119.672 102.034 119.35 103.085 119.31 104.165C119.269 105.245 119.509 106.318 120.008 107.276C121.885 111.001 121.394 118.346 121.394 118.346C121.394 118.346 136.812 99.2715 129.173 87.1191Z" fill="#FF0606"/>
<path d="M146.737 140.992C151.766 128.686 130.023 125.199 121.418 128.288C112.813 131.376 104.039 133.671 103.7 125.437C103.362 117.202 109.99 112.096 106.829 110.196C105.078 109.141 104.578 111.001 103.713 113.715C101.063 122.03 86.0557 124.011 92.9614 136.047C99.8671 148.083 96.1827 145.469 84.5659 150.297C72.949 155.125 78.9286 169.029 90.1669 169.029H157.847C188.868 169.029 159.498 109.652 146.737 140.992Z" fill="#ADADAD"/>
<path opacity="0.6" d="M146.737 140.992C151.766 128.686 130.023 125.199 121.418 128.288C112.813 131.376 104.039 133.671 103.7 125.437C103.362 117.202 109.99 112.096 106.829 110.196C105.078 109.141 104.578 111.001 103.713 113.715C101.063 122.03 86.0557 124.011 92.9614 136.047C99.8671 148.083 96.1827 145.469 84.5659 150.297C72.949 155.125 78.9286 169.029 90.1669 169.029H157.847C188.868 169.029 159.498 109.652 146.737 140.992Z" fill="#BDBDBD"/>
<path d="M89.5749 98.0998C88.6729 94.967 83.7926 98.9051 78.9848 103.677C74.177 108.448 71.8053 119.34 67.1546 125.018C62.5038 130.695 49.1877 135.825 54.3941 144.37C62.0729 156.961 44.4242 169.041 65.3265 169.041H108.198C116.038 169.041 124.538 159.454 112.329 152.935C100.121 146.415 81.8317 161.616 76.895 147.116C74.4468 139.92 83.3376 143.222 79.2184 131.44C75.0991 119.658 75.3729 116.449 77.4708 111.198C82.5766 98.4018 90.9641 102.859 89.5749 98.0998Z" fill="#ADADAD"/>
<path opacity="0.6" d="M89.5749 98.0998C88.6729 94.967 83.7926 98.9051 78.9848 103.677C74.177 108.448 71.8053 119.34 67.1546 125.018C62.5038 130.695 49.1877 135.825 54.3941 144.37C62.0729 156.961 44.4242 169.041 65.3265 169.041H108.198C116.038 169.041 124.538 159.454 112.329 152.935C100.121 146.415 81.8317 161.616 76.895 147.116C74.4468 139.92 83.3376 143.222 79.2184 131.44C75.0991 119.658 75.3729 116.449 77.4708 111.198C82.5766 98.4018 90.9641 102.859 89.5749 98.0998Z" fill="#DEDEDE"/>
<path d="M98.4616 99.5454C99.5247 97.6045 103.173 98.7682 103.092 101.309C103.012 103.85 93.5652 107.18 95.3209 115.954C97.0765 124.728 113.94 125.356 117.898 134.146C121.856 142.936 106.523 144.169 111.097 149.665C115.671 155.161 129.789 142.538 139.847 145.783C149.906 149.029 159.956 169.029 141.506 169.029H84.6543C72.2925 169.029 63.2648 143.504 75.1434 133.003C87.0219 122.501 77.4385 125.912 81.8719 119.183C86.3052 112.455 94.3826 106.987 98.4616 99.5454Z" fill="#ADADAD"/>
<path opacity="0.8" d="M98.4616 99.5454C99.5246 97.6045 103.173 98.7682 103.092 101.309C103.012 103.85 93.5652 107.18 95.3208 115.954C97.0764 124.728 113.94 125.356 117.898 134.146C121.856 142.936 106.523 144.169 111.097 149.665C115.671 155.161 129.789 142.538 139.847 145.783C149.906 149.029 159.956 169.029 141.506 169.029H84.6542C72.2924 169.029 63.2647 143.504 75.1433 133.003C87.0219 122.501 77.4385 125.912 81.8718 119.183C86.3051 112.455 94.3826 106.987 98.4616 99.5454Z" fill="#929292"/>
</svg>
