<svg xmlns="http://www.w3.org/2000/svg" width="375" height="555" viewBox="0 0 375 555">
  <g id="Layer_2" data-name="Layer 2">
    <g id="Layer_2-2" data-name="Layer 2">
      <rect width="375" height="555" fill="#494949"/>
    </g>
    <g id="Layer_1-2" data-name="Layer 1">
      <g>
        <ellipse cx="187.5" cy="225.91" rx="75.46" ry="97.55" fill="#8c8c8c"/>
        <path d="M187.5,451.66A193.39,193.39,0,0,0,327.86,391.5c-18.9-35.25-74.58-60.8-140.36-60.8S66,356.25,47.14,391.5A193.39,193.39,0,0,0,187.5,451.66Z" fill="#8c8c8c"/>
        <rect x="153.43" y="257.68" width="68.14" height="123.19" rx="9.62" fill="#8c8c8c"/>
        <path d="M266.2,314.74c12.86-22.16,20.52-49.88,20.52-80,0-72.58-44.42-131.41-99.22-131.41S88.28,162.17,88.28,234.75c0,30.11,7.66,57.83,20.52,80Z" fill="#8c8c8c"/>
      </g>
    </g>
  </g>
</svg>
