<svg xmlns="http://www.w3.org/2000/svg" width="375" height="555" viewBox="0 0 375 555">
  <g id="Layer_2" data-name="Layer 2">
    <g id="Layer_2-2" data-name="Layer 2">
      <rect width="375" height="555" fill="#494949"/>
    </g>
    <g id="Layer_1-2" data-name="Layer 1">
      <g>
        <ellipse cx="187.5" cy="223.07" rx="76.86" ry="99.36" fill="#8c8c8c"/>
        <path d="M187.5,337.76c-64.89,0-121.24,18.87-149.68,46.58a197.44,197.44,0,0,0,299.36,0C308.74,356.63,252.39,337.76,187.5,337.76Z" fill="#8c8c8c"/>
        <rect x="152.79" y="255.43" width="69.41" height="125.48" rx="9.62" fill="#8c8c8c"/>
        <path d="M254.3,230.18c-1.8,13.52,2.41,25.24,9.4,26.17s14.12-9.28,15.92-22.8-2.41-25.23-9.4-26.17S256.1,216.66,254.3,230.18Z" fill="#8c8c8c"/>
        <path d="M120.7,230.18c1.8,13.52-2.41,25.24-9.4,26.17s-14.12-9.28-15.92-22.8,2.41-25.23,9.4-26.17S118.9,216.66,120.7,230.18Z" fill="#8c8c8c"/>
        <rect x="144.07" y="101.98" width="86.87" height="103.9" rx="12" fill="#8c8c8c"/>
        <path d="M205.84,257.93s46.23,67,124.58,13.63c0,0-7.95,29.63-29.53,38.09,0,0,15.9,7.33,29.53-5.16,0,0-3.12,22-18,25.41,0,0,8.09,4.68,14.91,0,0,0-11.55,30.23-57.73,32.79C269.57,362.69,180.2,358.85,205.84,257.93Z" fill="#8c8c8c"/>
      </g>
    </g>
  </g>
</svg>
