<svg xmlns="http://www.w3.org/2000/svg" width="375" height="555" viewBox="0 0 375 555">
  <g id="Layer_2" data-name="Layer 2">
    <g id="Layer_2-2" data-name="Layer 2">
      <rect width="375" height="555" fill="#494949"/>
    </g>
    <g id="Layer_1-2" data-name="Layer 1">
      <g>
        <ellipse cx="187.5" cy="224.38" rx="76.44" ry="98.81" fill="#8c8c8c"/>
        <path d="M187.5,330.53c-61.5,0-115.66,22.2-147.39,55.9a196.35,196.35,0,0,0,294.78,0C303.15,352.73,249,330.53,187.5,330.53Z" fill="#8c8c8c"/>
        <path d="M162.61,256.56h49.78a9.62,9.62,0,0,1,9.62,9.62V371.72a9.63,9.63,0,0,1-9.62,9.63H162.61a9.62,9.62,0,0,1-9.62-9.62V266.19A9.62,9.62,0,0,1,162.61,256.56Z" fill="#8c8c8c"/>
        <path d="M121.62,229c4.45,12.82,2.68,25.07-4,27.37s-15.6-6.22-20-19-2.69-25.07,3.94-27.37S117.17,216.15,121.62,229Z" fill="#8c8c8c"/>
        <path d="M253.38,229c-4.45,12.82-2.68,25.07,3.95,27.37s15.6-6.22,20.05-19,2.69-25.07-3.94-27.37S257.83,216.15,253.38,229Z" fill="#8c8c8c"/>
        <path d="M281.27,237.5c-1.67-24.4-.84-49.44-8.69-72.6-8.82-26-29.14-48.28-54.9-57.85s-56.5-5.63-78,11.46c-7.54,6-14.32,14.57-13.56,24.17-13.08-4.42-27.65,4.86-33.76,17.24s-5.81,26.83-4.94,40.6c2.55,40.37,8.7,81.74-2.22,120.64l100.49,3c10.73.32,21.46.64,32.18.18,27.36-1.18,55.71-7.34,81.47,1.93A345.9,345.9,0,0,1,281.27,237.5Z" fill="#8c8c8c"/>
      </g>
    </g>
  </g>
</svg>
