<svg xmlns="http://www.w3.org/2000/svg" width="375" height="555" viewBox="0 0 375 555">
  <g id="Layer_2" data-name="Layer 2">
    <g id="Layer_2-2" data-name="Layer 2">
      <rect width="375" height="555" fill="#494949"/>
    </g>
    <g id="Layer_1-2" data-name="Layer 1">
      <g>
        <ellipse cx="187.5" cy="215.9" rx="76.88" ry="99.39" fill="#8c8c8c"/>
        <path d="M187.5,329.49c-70.81,0-130.38,21.07-148,49.7a197.51,197.51,0,0,0,296,0C317.88,350.56,258.31,329.49,187.5,329.49Z" fill="#8c8c8c"/>
        <path d="M162.41,248.27h50.18a9.63,9.63,0,0,1,9.63,9.63V364.16a9.62,9.62,0,0,1-9.62,9.62H162.41a9.62,9.62,0,0,1-9.62-9.62V257.9A9.62,9.62,0,0,1,162.41,248.27Z" fill="#8c8c8c"/>
        <ellipse cx="109.89" cy="227.54" rx="12.78" ry="24.71" transform="translate(-43.24 26.53) rotate(-11.52)" fill="#8c8c8c"/>
        <path d="M252.59,225c-2.72,13.37.67,25.35,7.59,26.76s14.73-8.29,17.45-21.66-.67-25.35-7.58-26.76S255.32,211.62,252.59,225Z" fill="#8c8c8c"/>
        <path d="M283.5,254.75c-1.75-25.65-.43-52-8.28-76.44-8.56-26.69-28.61-49.07-53.49-61.84-31-14.48-60.13-3.68-66.77-.83-25.65,12.61-46.43,35.38-55.18,62.67-7.85,24.48-6.53,50.79-8.28,76.44s-7.55,52.83-26,70.72a12.62,12.62,0,0,0,15.22-3.38q.07,3.63.14,7.24a9.7,9.7,0,0,0,11-7,8.65,8.65,0,0,0,17.11-1c-.54,4,4.72,6.79,8.58,5.51s6.35-4.91,8.56-8.32c-.1,5.57,7.4,9.54,11.95,6.32-.55,3,3.12,5.14,6.16,5s6-1.58,9-1.34c5.89.48,11.18,7,16.57,4.62,2.35-1.05,4.5-3.77,6.89-2.79,1.44.58,2,2.26,3,3.47,1.86,2.27,5,2.54,7.84,1.51,2.8,1,6,.76,7.84-1.51,1-1.21,1.59-2.89,3-3.47,2.39-1,4.54,1.74,6.89,2.79,5.4,2.42,10.68-4.14,16.57-4.62,3-.24,6,1.18,9,1.34s6.71-2,6.16-5c4.55,3.22,12-.75,11.95-6.32,2.21,3.41,4.71,7,8.56,8.32s9.12-1.49,8.58-5.51a8.65,8.65,0,0,0,17.11,1,9.7,9.7,0,0,0,10.95,7q.06-3.61.14-7.24a12.62,12.62,0,0,0,15.22,3.38C291.05,307.58,285.25,280.39,283.5,254.75Z" fill="#8c8c8c"/>
      </g>
    </g>
  </g>
</svg>
