<svg xmlns="http://www.w3.org/2000/svg" width="375" height="555" viewBox="0 0 375 555">
  <g id="Layer_2" data-name="Layer 2">
    <g id="Layer_2-2" data-name="Layer 2">
      <rect width="375" height="555" fill="#494949"/>
    </g>
    <g id="Layer_1-2" data-name="Layer 1">
      <g>
        <ellipse cx="187.5" cy="219.72" rx="77.88" ry="100.67" fill="#8c8c8c"/>
        <path d="M187.5,327.87c-65.14,0-122.48,19.9-156,50.08a200.1,200.1,0,0,0,311.94,0C310,347.77,252.64,327.87,187.5,327.87Z" fill="#8c8c8c"/>
        <path d="M158.68,252.51h57.64a9.62,9.62,0,0,1,9.62,9.62V370a9.62,9.62,0,0,1-9.62,9.62H158.68a9.63,9.63,0,0,1-9.62-9.62V262.13A9.63,9.63,0,0,1,158.68,252.51Z" fill="#8c8c8c"/>
        <path d="M120.38,224.39c4.53,13.05,2.73,25.54-4,27.88s-15.91-6.34-20.44-19.39-2.73-25.54,4-27.89S115.84,211.33,120.38,224.39Z" fill="#8c8c8c"/>
        <ellipse cx="266.85" cy="228.63" rx="25.02" ry="12.94" transform="translate(-36.67 405.72) rotate(-70.85)" fill="#8c8c8c"/>
        <path d="M119.34,224c-10.12-18.4-20.53-37.93-20-58.93s16.51-43.17,37.5-42.41c3.66.14,7.33.94,11,.43,7.26-1,12.64-7,18.53-11.34a49.36,49.36,0,0,1,47.1-5.95c9.46,3.85,17.47,10.59,26.7,15A60,60,0,0,0,295,118.52a31.1,31.1,0,0,1-16.08,14.28,29.69,29.69,0,0,0,19.45-.54,33.4,33.4,0,0,1-17.07,14.88l16,1.1a40.27,40.27,0,0,1-18.42,14.29l12.54.41a29.48,29.48,0,0,1-20.64,18.86l8.08.11-26.47,38.2c-2.52,3.64-5.14,7.37-8.87,9.76-3.09,2-6.74,2.9-10.33,3.7a258.89,258.89,0,0,1-79.87,5.2c-9.12-.83-18.67-2.33-25.92-7.93s-11.13-16.56-6.14-24.24" fill="#8c8c8c"/>
        <path d="M137.3,346.89a226.47,226.47,0,0,1,3.93-31.47c5.22,6,14.09,6.72,22,7l36,1.47c1.4,8.18,2.37,17.81-3.54,23.64-2.74,2.7-6.53,4-10.24,5.07a95.45,95.45,0,0,1-24.87,3.48c-10,.06-21.82-2.92-25-12.36l3.24-2.66" fill="#8c8c8c"/>
        <path d="M237.7,346.89a226.47,226.47,0,0,0-3.93-31.47c-5.22,6-14.09,6.72-22,7l-36,1.47c-1.4,8.18-2.37,17.81,3.54,23.64,2.74,2.7,6.53,4,10.24,5.07a95.45,95.45,0,0,0,24.87,3.48c10,.06,21.83-2.92,25-12.36l-3.24-2.66" fill="#8c8c8c"/>
      </g>
    </g>
  </g>
</svg>
