<svg xmlns="http://www.w3.org/2000/svg" width="375" height="555" viewBox="0 0 375 555">
  <g id="Layer_2" data-name="Layer 2">
    <g id="Layer_2-2" data-name="Layer 2">
      <rect width="375" height="555" fill="#494949"/>
    </g>
    <g id="Layer_1-2" data-name="Layer 1">
      <g>
        <ellipse cx="191.16" cy="221.79" rx="80.51" ry="113.74" fill="#8c8c8c"/>
        <path d="M191.16,323.94c-67.35,0-126.63,20.58-161.25,51.78a206.86,206.86,0,0,0,322.49,0C317.78,344.52,258.5,323.94,191.16,323.94Z" fill="#8c8c8c"/>
        <rect x="141.74" y="246.03" width="98.83" height="131.44" rx="9.62" fill="#8c8c8c"/>
        <path d="M121.76,217c4.69,13.5,2.83,26.4-4.15,28.83s-16.45-6.55-21.13-20-2.83-26.41,4.15-28.83S117.07,203.46,121.76,217Z" fill="#8c8c8c"/>
        <path d="M260.55,217c-4.69,13.5-2.83,26.4,4.16,28.83s16.44-6.55,21.12-20,2.83-26.41-4.15-28.83S265.24,203.46,260.55,217Z" fill="#8c8c8c"/>
        <path d="M117.34,102.7H265a6.65,6.65,0,0,1,6.65,6.65V212.13a0,0,0,0,1,0,0H110.69a0,0,0,0,1,0,0V109.34A6.65,6.65,0,0,1,117.34,102.7Z" fill="#8c8c8c"/>
        <path d="M177.4,311.75H120.31a14.62,14.62,0,0,1,2.08,17l-8.53,15.38,63.54,28.55Z" fill="#8c8c8c"/>
        <path d="M204.91,311.75H262a14.59,14.59,0,0,0-2.08,17l8.52,15.38-63.54,28.55Z" fill="#8c8c8c"/>
      </g>
    </g>
  </g>
</svg>
