<svg xmlns="http://www.w3.org/2000/svg" width="375" height="555" viewBox="0 0 375 555">
  <g id="Layer_2" data-name="Layer 2">
    <g id="Layer_2-2" data-name="Layer 2">
      <rect width="375" height="555" fill="#494949"/>
    </g>
    <g id="Layer_1-2" data-name="Layer 1">
      <g>
        <ellipse cx="187.16" cy="229.07" rx="72.86" ry="97.68" fill="#8c8c8c"/>
        <path d="M187.16,336.44c-68.34,0-127.11,15.12-153.46,36.82a187.22,187.22,0,0,0,306.91,0C314.27,351.56,255.49,336.44,187.16,336.44Z" fill="#8c8c8c"/>
        <path d="M163.88,265.93h46.55a9.62,9.62,0,0,1,9.62,9.62v99.69a9.63,9.63,0,0,1-9.62,9.63H163.88a9.62,9.62,0,0,1-9.62-9.62V275.56A9.62,9.62,0,0,1,163.88,265.93Z" fill="#8c8c8c"/>
        <path d="M250.55,238.26c.37,13.35,6.26,24,13.17,23.83s12.21-11.17,11.84-24.52-6.27-24-13.18-23.83S250.17,224.91,250.55,238.26Z" fill="#8c8c8c"/>
        <path d="M123.77,238.26c-.37,13.35-6.27,24-13.18,23.83s-12.2-11.17-11.83-24.52,6.27-24,13.17-23.83S124.14,224.91,123.77,238.26Z" fill="#8c8c8c"/>
        <rect x="168.86" y="102" width="36.6" height="96.88" rx="5.67" fill="#8c8c8c"/>
        <path d="M182.1,107.8c1.08-3.37,4.71-5.45,8.25-5.59s6.94,1.32,10,3.18c7.15,4.41,12.63,11,18.75,16.76,9.29,8.78,20.4,15.84,32.71,19.29s25.86,3.11,37.52-2.14c-24.82,17.52-59.73,19.47-86.35,4.82-11.26-6.2-21.82-16.87-21.35-29.72" fill="#8c8c8c"/>
      </g>
    </g>
  </g>
</svg>
