<svg xmlns="http://www.w3.org/2000/svg" width="375" height="555" viewBox="0 0 375 555">
  <g id="Layer_2" data-name="Layer 2">
    <g id="Layer_2-2" data-name="Layer 2">
      <rect width="375" height="555" fill="#494949"/>
    </g>
    <g id="Layer_1-2" data-name="Layer 1">
      <g>
        <ellipse cx="191.16" cy="219.19" rx="79.43" ry="106.49" fill="#8c8c8c"/>
        <path d="M191.16,343.28c-68.18,0-126.39,18.38-149.73,44.31a204.07,204.07,0,0,0,299.45,0C317.54,361.66,259.33,343.28,191.16,343.28Z" fill="#8c8c8c"/>
        <rect x="155.29" y="248.82" width="71.73" height="129.67" rx="9.62" fill="#8c8c8c"/>
        <path d="M258.33,229.24c-2.42,13.89,1.44,26.16,8.62,27.41s15-9,17.39-22.87-1.44-26.16-8.62-27.41S260.75,215.36,258.33,229.24Z" fill="#8c8c8c"/>
        <path d="M124,229.24c2.42,13.89-1.44,26.16-8.62,27.41s-15-9-17.39-22.87,1.44-26.16,8.62-27.41S121.56,215.36,124,229.24Z" fill="#8c8c8c"/>
        <path d="M127.16,230.16c-9.27,7.24-25.13,2.5-28.9-8.63-3.76,5.24-12.53,5.74-16.86,1S78.4,209,84,205.8a11.4,11.4,0,0,1,2.17-22.06c-4.43-4.54-8.67-10-9-16.3s5.32-13.14,11.51-11.77c-3.64-3.11-2.29-9.48,1.41-12.52s8.76-3.67,13.53-4.18c-4.23-.08-6.78-5.5-5.27-9.45s5.65-6.29,9.76-7.29c10.52-2.57,23.45,1,31.1-6.67,1.57-1.58,2.8-3.56,4.7-4.74,3.11-1.93,7.1-1.2,10.73-1.73s7.59-3.94,6-7.25a29.73,29.73,0,0,0,15.57.84c1.93-.41,3.91-1,5.82-.55a9.22,9.22,0,0,1,4.21,2.78c8.32,8.51,11.06,20.89,12.92,32.65a395.27,395.27,0,0,1,4.66,50.71c.24,8.89.07,18.21-4.18,26-5,9.25-15,14.79-25,17.87a81.77,81.77,0,0,1-47.55,0" fill="#8c8c8c"/>
        <path d="M255.16,230.16c9.26,7.24,25.12,2.5,28.89-8.63,3.76,5.24,12.53,5.74,16.86,1s3-13.45-2.58-16.69a11.4,11.4,0,0,0-2.17-22.06c4.44-4.54,8.68-10,9-16.3s-5.32-13.14-11.51-11.77c3.64-3.11,2.29-9.48-1.41-12.52s-8.76-3.67-13.52-4.18c4.22-.08,6.77-5.5,5.26-9.45s-5.65-6.29-9.76-7.29c-10.52-2.57-23.44,1-31.09-6.67-1.58-1.58-2.81-3.56-4.7-4.74-3.12-1.93-7.11-1.2-10.74-1.73s-7.59-3.94-6-7.25a29.73,29.73,0,0,1-15.57.84c-1.92-.41-3.9-1-5.81-.55a9.25,9.25,0,0,0-4.22,2.78c-8.32,8.51-11.06,20.89-12.92,32.65a395.27,395.27,0,0,0-4.66,50.71c-.24,8.89-.07,18.21,4.18,26,5,9.25,15,14.79,25.06,17.87a81.74,81.74,0,0,0,47.54,0" fill="#8c8c8c"/>
      </g>
    </g>
  </g>
</svg>
