<svg xmlns="http://www.w3.org/2000/svg" width="375" height="555" viewBox="0 0 375 555">
  <g id="Layer_2" data-name="Layer 2">
    <g id="Layer_2-2" data-name="Layer 2">
      <rect width="375" height="555" fill="#494949"/>
    </g>
    <g id="Layer_1-2" data-name="Layer 1">
      <g>
        <ellipse cx="187.55" cy="221.71" rx="79.77" ry="110.49" fill="#8c8c8c"/>
        <path d="M186.29,325.13c-66.77,0-126.47,16-166.17,41.14a205,205,0,0,0,334.07,1.11C314.5,341.6,254,325.13,186.29,325.13Z" fill="#8c8c8c"/>
        <rect x="144.93" y="247.93" width="85.25" height="130.23" rx="9.62" fill="#8c8c8c"/>
        <path d="M120.38,228c2.38,17.71-1.55,33.07-8.79,34.3s-15-12.13-17.43-29.84,1.54-33.08,8.78-34.31S118,210.27,120.38,228Z" fill="#8c8c8c"/>
        <path d="M254.73,228c-2.39,17.71,1.54,33.07,8.78,34.3s15.05-12.13,17.44-29.84-1.55-33.08-8.79-34.31S257.12,210.27,254.73,228Z" fill="#8c8c8c"/>
        <path d="M110.57,217.36q-4-26.54-8-53.06c-1-6.42-1.92-13.19.43-19.25s9.22-10.88,15.3-8.6c-2.43-12.31,11.18-21.39,23-25.48,19.87-6.84,41.19-10.32,62-7.63s41.2,11.92,55.26,27.55A49.14,49.14,0,0,1,269,147.76c4.08,12.14,1.48,25.38-1.15,37.91q-3.13,14.94-6.26,29.87c-.48,2.27-1,4.66-2.57,6.39-2.47,2.75-6.64,3-10.34,3L130,225.15c-7.44,0-17.15-1.82-18.13-9.19" fill="#8c8c8c"/>
      </g>
    </g>
  </g>
</svg>
