<svg width="225" height="225" viewBox="0 0 225 225" fill="none" xmlns="http://www.w3.org/2000/svg">
<circle cx="112.5" cy="112.5" r="111.5" fill="#ECECEC"/>
<path d="M84.2966 45.462C86.0167 47.567 86.9481 50.2064 86.9301 52.9248C86.9118 54.4641 86.6273 56.1602 87.5246 57.4113C88.2031 58.3596 89.4432 58.8374 89.994 59.866C90.6578 61.1026 90.0925 62.6673 90.501 64.0096C91.0773 65.9136 93.3096 66.7124 94.6336 68.197C95.1981 68.8535 95.5929 69.6383 95.7837 70.4827C95.9745 71.3272 95.9553 72.2056 95.7279 73.0409C95.4867 73.8728 95.0504 74.635 94.4554 75.2644C93.8603 75.8937 93.1236 76.3719 92.3065 76.6592C91.4341 77.0032 90.4609 76.9874 89.6001 76.6155C88.7064 76.1705 88.1411 75.2549 87.7034 74.3613C86.8243 72.6032 79.1025 63.1014 78.6648 61.1828" fill="#263238"/>
<path d="M78.6795 43.2225C75.5207 42.7118 72.4787 44.8091 71.1547 47.7199C69.8306 50.6306 69.7868 53.9206 69.6957 57.1305C69.6045 60.3403 69.371 63.6668 67.7406 66.4171C66.7047 68.1642 65.0998 69.6998 64.8481 71.7096C64.6219 73.5115 65.5557 75.328 65.2457 77.1189C64.9758 78.68 63.7867 80.0369 63.8341 81.6163C63.8924 83.5203 65.8512 84.9538 67.7515 85.0048C69.6519 85.0559 71.4319 84.0601 72.9237 82.8783C75.3543 80.9485 77.2993 78.4764 78.6029 75.6599" fill="#263238"/>
<path d="M73.4816 50.7509C73.3823 49.9563 73.4437 49.1499 73.6622 48.3795C73.8806 47.6091 74.2515 46.8905 74.753 46.2662C75.2544 45.6419 75.8762 45.1247 76.5814 44.7454C77.2865 44.366 78.0607 44.1321 78.858 44.0577C82.0423 43.7513 84.8764 46.1258 85.3542 49.2919C85.7737 52.0677 86.1312 54.8689 86.1202 55.8866C86.0801 58.9542 84.2965 60.1469 83.567 60.508C83.3046 60.6022 83.0332 60.6694 82.7572 60.7086V60.7305L83.4357 64.254C83.7457 66.5629 82.4581 68.631 80.1529 68.9557C77.8476 69.2803 76.0348 67.5186 75.681 65.2097L73.4816 50.7509Z" fill="#CDCCCC"/>
<path d="M84.7269 50.6341C84.6758 50.707 84.271 50.4918 83.753 50.5684C83.2351 50.645 82.8885 50.9587 82.8229 50.904C82.7572 50.8493 82.8229 50.7581 82.9834 50.6122C83.1828 50.4179 83.4378 50.2904 83.7129 50.2475C83.9828 50.2058 84.2589 50.2519 84.5008 50.3788C84.6831 50.4955 84.7524 50.6049 84.7269 50.6341Z" fill="#263238"/>
<path d="M80.109 51.7576C80.058 51.8306 79.6531 51.6117 79.1315 51.6883C78.6099 51.7649 78.2707 52.0823 78.205 52.0276C78.1394 51.9728 78.205 51.878 78.3655 51.7358C78.565 51.5415 78.8199 51.414 79.095 51.371C79.3653 51.3325 79.6408 51.3797 79.8829 51.506C80.0616 51.619 80.1346 51.7248 80.109 51.7576Z" fill="#263238"/>
<path d="M82.0021 54.5406C82.263 54.4151 82.5388 54.3231 82.8228 54.267C82.9541 54.2342 83.0745 54.1904 83.0854 54.0956C83.0736 53.9623 83.0229 53.8355 82.9395 53.7308L82.3961 52.7606C81.641 51.4037 81.0757 50.2803 81.1304 50.2474C81.1851 50.2146 81.8599 51.2979 82.5894 52.6548C82.7754 52.9904 82.9541 53.3113 83.1146 53.6141C83.2206 53.7624 83.2721 53.9428 83.2605 54.1247C83.2485 54.1745 83.2251 54.2208 83.1922 54.2601C83.1593 54.2993 83.1178 54.3304 83.0709 54.3509C82.9997 54.382 82.925 54.4041 82.8484 54.4165C82.5729 54.4946 82.2884 54.5363 82.0021 54.5406Z" fill="#263238"/>
<path d="M82.7281 60.7122C82.7281 60.7122 80.7475 61.1682 78.0192 60.0265C78.0192 60.0265 79.1973 62.5615 82.9141 61.6606L82.7281 60.7122Z" fill="#263238"/>
<path d="M79.8427 50.3971C79.8135 50.5467 79.2846 50.554 78.6864 50.7181C78.0882 50.8823 77.6177 51.1157 77.5192 51.0026C77.4754 50.9479 77.5411 50.802 77.7198 50.6379C77.9605 50.432 78.2448 50.2837 78.5513 50.2041C78.8578 50.1244 79.1785 50.1156 79.4889 50.1783C79.7296 50.233 79.8427 50.3278 79.8427 50.3971Z" fill="#263238"/>
<path d="M84.2998 49.4853C84.2268 49.6166 83.8511 49.5473 83.4207 49.602C82.9903 49.6567 82.6365 49.799 82.5344 49.6859C82.4906 49.6312 82.5344 49.5072 82.673 49.3722C82.8643 49.2027 83.1043 49.098 83.3587 49.0731C83.6099 49.0429 83.8644 49.09 84.0882 49.2081C84.2633 49.3066 84.3326 49.4197 84.2998 49.4853Z" fill="#263238"/>
<path d="M78.9822 52.4288C78.9902 52.4852 79.0093 52.5395 79.0385 52.5885C79.0677 52.6375 79.1063 52.6802 79.1521 52.7141C79.1979 52.7481 79.25 52.7726 79.3054 52.7862C79.3607 52.7998 79.4183 52.8023 79.4746 52.7935C79.5294 52.7872 79.5823 52.7701 79.6304 52.7431C79.6785 52.7162 79.7208 52.6799 79.7547 52.6364C79.7886 52.593 79.8136 52.5432 79.8281 52.4901C79.8427 52.4369 79.8465 52.3813 79.8393 52.3267C79.8222 52.2131 79.7608 52.1109 79.6685 52.0425C79.5762 51.9742 79.4606 51.9452 79.3469 51.9619C79.292 51.9677 79.2387 51.9846 79.1904 52.0114C79.1421 52.0382 79.0996 52.0745 79.0656 52.118C79.0315 52.1616 79.0066 52.2115 78.9923 52.2649C78.978 52.3183 78.9745 52.374 78.9822 52.4288Z" fill="#263238"/>
<path d="M83.5815 51.433C83.5987 51.5466 83.6601 51.6487 83.7524 51.7171C83.8447 51.7855 83.9603 51.8145 84.074 51.7977C84.1287 51.7914 84.1817 51.7743 84.2298 51.7473C84.2779 51.7204 84.3201 51.6841 84.3541 51.6407C84.388 51.5972 84.413 51.5474 84.4275 51.4943C84.442 51.4411 84.4458 51.3855 84.4387 51.3309C84.4216 51.2173 84.3602 51.1151 84.2679 51.0468C84.1756 50.9784 84.0599 50.9494 83.9463 50.9661C83.8913 50.9719 83.8381 50.9888 83.7898 51.0156C83.7414 51.0424 83.699 51.0787 83.6649 51.1222C83.6309 51.1658 83.606 51.2158 83.5917 51.2691C83.5773 51.3225 83.5739 51.3783 83.5815 51.433Z" fill="#263238"/>
<path d="M82.8193 55.5475C82.6761 55.5029 82.5218 55.5099 82.3832 55.5672C82.2446 55.6245 82.1305 55.7285 82.0606 55.8612C81.9938 55.983 81.9667 56.1226 81.983 56.2606C81.9994 56.3985 82.0584 56.528 82.1518 56.6308C82.2512 56.7285 82.3821 56.7876 82.521 56.7976C82.66 56.8076 82.7981 56.7679 82.9104 56.6855C83.0511 56.5574 83.1362 56.3794 83.1475 56.1895C83.1723 56.0153 83.1306 55.8382 83.0308 55.6934C82.9796 55.6226 82.9064 55.5706 82.8227 55.5456C82.7389 55.5205 82.6493 55.5238 82.5676 55.5548" fill="#263238"/>
<path d="M84.9492 46.7933C84.6629 45.6377 83.9485 44.6338 82.9504 43.9847C82.1334 43.3946 81.163 43.0538 80.1564 43.0036C79.1436 42.9599 78.1547 43.3193 77.4062 44.003C76.875 44.5295 76.5712 45.2431 76.5599 45.9909L76.6183 45.4802C76.465 45.8957 76.465 46.3523 76.6183 46.7678C76.7022 46.9903 76.8043 47.2164 76.8919 47.4389C77.153 48.0819 77.6374 48.609 78.256 48.9235C78.5362 49.0738 78.85 49.1503 79.1679 49.146C79.3271 49.1428 79.4836 49.1049 79.6266 49.035C79.7696 48.965 79.8957 48.8648 79.9959 48.7411C80.2224 48.3457 80.2927 47.8799 80.1929 47.4353C80.4322 47.8746 80.7738 48.25 81.1887 48.5295C81.4005 48.6649 81.6525 48.7232 81.9022 48.6947C82.152 48.6661 82.3843 48.5524 82.5601 48.3727C82.8592 48.008 82.7425 47.4316 82.5601 46.9794C82.8423 47.406 83.2376 47.7457 83.7018 47.9605C83.8239 48.0306 83.9593 48.0746 84.0993 48.0896C84.2393 48.1047 84.3809 48.0906 84.5152 48.0481C84.6225 47.9948 84.7164 47.9179 84.7897 47.8232C84.863 47.7284 84.9138 47.6182 84.9383 47.5009C84.9924 47.2686 84.9962 47.0273 84.9492 46.7933Z" fill="#263238"/>
<path d="M82.3122 47.7636C82.2794 47.7636 82.2867 47.3296 82.1444 46.6694C81.9803 45.7921 81.5393 44.9905 80.886 44.3824C80.527 44.0559 80.0938 43.8217 79.624 43.7003C79.2392 43.6058 78.8385 43.5959 78.4495 43.6711C78.0909 43.7549 77.7485 43.8966 77.4355 44.0906C77.4355 44.0906 77.4975 43.9994 77.658 43.8826C77.8883 43.7215 78.1469 43.6052 78.4203 43.5398C78.8294 43.444 79.2551 43.444 79.6641 43.5398C80.1682 43.6656 80.6323 43.9165 81.0137 44.2693C81.6977 44.9025 82.1443 45.7507 82.2794 46.673C82.3228 46.9456 82.3448 47.2213 82.3451 47.4973C82.3496 47.5873 82.3385 47.6774 82.3122 47.7636Z" fill="#455A64"/>
<path d="M115.906 90.29L101.881 84.7275C101.881 84.7275 94.6989 75.306 94.8485 75.1236L89.804 80.6459L97.1355 90.5636L114.129 94.5467L117.047 93.7369C116.405 90.6402 115.906 90.29 115.906 90.29Z" fill="#CDCCCC"/>
<path d="M85.3395 63.4115L83.4282 62.682L75.1775 63.7288V65.1879L74.9404 65.217C73.1619 65.5952 71.456 66.2578 69.8886 67.1794C68.4204 68.0757 67.2538 69.3906 66.5388 70.9551C65.8238 72.5197 65.5931 74.2623 65.8763 75.959C66.2119 78.0454 66.8611 80.5804 68.1159 82.0467C70.5123 84.8516 72.7008 81.3865 72.7008 81.3865C72.7008 81.3865 74.2036 84.8152 74.1161 86.4383C74.0431 87.7988 73.4449 90.6293 73.2516 91.512C73.2437 91.5473 73.243 91.5838 73.2496 91.6194C73.2563 91.6549 73.2701 91.6887 73.2902 91.7188C73.3103 91.7488 73.3364 91.7744 73.3667 91.7941C73.3971 91.8137 73.4311 91.827 73.4668 91.833L90.8728 95.0538L90.9567 90.7971L90.4022 73.289L89.618 66.49C89.618 66.49 89.6436 63.2437 85.3395 63.4115Z" fill="#676879"/>
<path d="M89.3517 65.3593L95.9902 74.9487L90.6466 81.4558L89.3517 65.3593Z" fill="#CDCCCC"/>
<path d="M90.7855 85.5373C90.7616 85.3315 90.7531 85.1242 90.7599 84.9172C90.7599 84.4868 90.7599 83.9214 90.7381 83.232C90.7058 81.3818 90.573 79.5346 90.3405 77.6987C90.0669 75.5467 89.6474 73.6245 89.3301 72.2275L88.9435 70.5861C88.8874 70.3875 88.846 70.1852 88.8195 69.9806C88.9024 70.1701 88.9683 70.3666 89.0164 70.5678C89.1295 70.9326 89.2827 71.5053 89.4578 72.1983C89.9287 73.998 90.2869 75.8253 90.5301 77.6696C90.7646 79.5131 90.8792 81.37 90.873 83.2284C90.873 83.9579 90.8548 84.5196 90.8329 84.9172C90.8348 85.1249 90.8189 85.3323 90.7855 85.5373Z" fill="#263238"/>
<path d="M74.4443 70.9581C74.4443 70.9873 73.941 70.9836 73.1349 71.0238C72.0831 71.0808 71.037 71.2161 70.0053 71.4286C68.9739 71.6451 67.9596 71.9364 66.9705 72.3004C66.2119 72.5813 65.7559 72.7892 65.7413 72.76C65.8348 72.6867 65.9379 72.6266 66.0477 72.5813C66.2483 72.4718 66.5474 72.3332 66.9231 72.1764C68.8913 71.3636 70.9948 70.9281 73.1239 70.8925C73.5324 70.8925 73.8534 70.8925 74.0905 70.9143C74.21 70.9105 74.3294 70.9253 74.4443 70.9581Z" fill="#FAFAFA"/>
<path d="M89.8184 75.3461C89.5516 75.4431 89.2732 75.5044 88.9904 75.5285C87.6416 75.7254 86.2751 75.7719 84.9161 75.6671C84.6323 75.6622 84.3503 75.6205 84.0771 75.5431C84.3587 75.5181 84.6418 75.5181 84.9234 75.5431C85.4413 75.5431 86.1599 75.5431 86.9514 75.5431C87.7429 75.5431 88.4578 75.4628 88.9758 75.4154C89.2539 75.3668 89.536 75.3436 89.8184 75.3461Z" fill="#FAFAFA"/>
<path d="M92.8647 71.0092C92.4627 71.4737 91.9809 71.8628 91.4422 72.1582C90.9336 72.502 90.3661 72.7492 89.768 72.8877C89.7461 72.8366 90.4975 72.5229 91.3437 71.9831C92.1899 71.4433 92.8283 70.9654 92.8647 71.0092Z" fill="#FAFAFA"/>
<path d="M90.1836 66.5629C89.0328 67.5981 87.5665 68.2149 86.0217 68.3137C86.0217 68.2553 87.0248 68.1021 88.1774 67.6097C89.33 67.1173 90.1471 66.5155 90.1836 66.5629Z" fill="#FAFAFA"/>
<path d="M90.5445 82.7725C90.4372 82.8446 90.3222 82.9046 90.2016 82.9512C89.9718 83.0607 89.6399 83.1956 89.2168 83.3525C88.1175 83.7475 86.9828 84.0358 85.8282 84.2133C84.6738 84.3915 83.5046 84.4562 82.3376 84.4066C81.8889 84.3884 81.5278 84.3555 81.2798 84.3227C81.1499 84.3141 81.0214 84.2908 80.8968 84.2534C80.8968 84.2206 81.4512 84.2534 82.3558 84.2753C84.6749 84.2969 86.9821 83.9422 89.1876 83.2248C90.0192 82.9512 90.5335 82.7433 90.5445 82.7725Z" fill="#FAFAFA"/>
<path d="M90.6794 87.715C90.6794 87.715 90.6283 87.7514 90.5226 87.8062L90.0557 88.0104C89.6545 88.2001 89.0599 88.4481 88.3158 88.7399C87.5717 89.0317 86.6708 89.3126 85.6568 89.5898C83.4523 90.1834 81.1896 90.5345 78.9089 90.6366C77.8584 90.6768 76.9137 90.6731 76.1185 90.6366C75.3233 90.6002 74.685 90.5418 74.2437 90.4798L73.7367 90.4105C73.6769 90.4061 73.6181 90.3939 73.5616 90.374C73.6208 90.3646 73.6811 90.3646 73.7403 90.374L74.251 90.4068C74.6923 90.4433 75.3452 90.4798 76.1221 90.5017C76.8991 90.5236 77.8584 90.5017 78.9016 90.4652C79.9447 90.4287 81.0901 90.2974 82.2828 90.1004C83.4756 89.9035 84.599 89.6664 85.613 89.4111C86.627 89.1557 87.5243 88.8676 88.2684 88.6013C89.0125 88.335 89.618 88.1125 90.0265 87.9448L90.5007 87.7587C90.5586 87.7379 90.6185 87.7233 90.6794 87.715Z" fill="#FAFAFA"/>
<path d="M58.6872 165.257L56.7139 174.168L53.1138 180.767C53.0525 180.879 53.0151 181.003 53.0037 181.131C52.9923 181.259 53.0073 181.388 53.0476 181.509C53.0879 181.631 53.1528 181.743 53.2382 181.839C53.3236 181.934 53.4278 182.011 53.5442 182.065C53.6793 182.127 53.8273 182.156 53.9758 182.149C54.1243 182.142 54.269 182.1 54.3977 182.025C56.0682 181.062 62.1997 177.477 62.3055 176.816C62.4332 176.054 65.012 167.555 65.012 167.555L58.6872 165.257Z" fill="#CDCCCC"/>
<g opacity="0.6">
<path opacity="0.6" d="M53.5441 182.065L62.455 176.229L62.3602 176.594C62.2822 176.92 62.0908 177.207 61.8204 177.404C61.0909 177.925 59.0592 179.326 54.4268 182.032C54.2938 182.11 54.1436 182.154 53.9896 182.16C53.8356 182.166 53.6825 182.133 53.5441 182.065Z" fill="white"/>
</g>
<g opacity="0.6">
<path opacity="0.6" d="M61.3354 172.914C61.2067 172.967 61.1024 173.067 61.0425 173.193C60.9826 173.319 60.9713 173.462 61.0108 173.596C61.0595 173.726 61.1562 173.833 61.281 173.894C61.4058 173.955 61.5493 173.966 61.6819 173.924C61.8197 173.867 61.9313 173.761 61.9947 173.626C62.0581 173.491 62.0689 173.337 62.0248 173.195C61.9602 173.065 61.8487 172.966 61.713 172.916C61.5774 172.867 61.4279 172.871 61.2953 172.928" fill="white"/>
</g>
<path d="M56.5205 178.688C56.3734 178.36 56.1669 178.062 55.9114 177.809C55.6171 177.604 55.2867 177.456 54.9375 177.375C54.9375 177.349 55.0652 177.309 55.2804 177.331C55.5604 177.367 55.824 177.484 56.0391 177.666C56.2558 177.842 56.4157 178.078 56.4986 178.345C56.5606 178.553 56.5424 178.688 56.5205 178.688Z" fill="#263238"/>
<path d="M55.5976 179.72C55.5466 179.749 55.3314 179.392 54.9046 179.147C54.6324 179.021 54.3521 178.912 54.0657 178.823C54.2231 178.771 54.3906 178.758 54.5543 178.784C54.7179 178.81 54.873 178.874 55.0067 178.972C55.4919 179.253 55.6487 179.709 55.5976 179.72Z" fill="#263238"/>
<path d="M58.067 177.455C57.7568 177.111 57.4202 176.791 57.0603 176.499C56.6637 176.257 56.2491 176.046 55.8201 175.868C56.3134 175.858 56.7943 176.024 57.177 176.335C57.5989 176.589 57.915 176.986 58.067 177.455Z" fill="#263238"/>
<path d="M58.8951 174.796C58.8586 174.843 58.4173 174.519 57.8008 174.34C57.1844 174.161 56.6263 174.19 56.6227 174.128C57.0287 174.023 57.4555 174.03 57.8581 174.147C58.2607 174.265 58.624 174.489 58.9097 174.796H58.8951Z" fill="#263238"/>
<path d="M59.5409 172.195C59.1851 171.975 58.801 171.805 58.3992 171.688C57.9853 171.632 57.5657 171.632 57.1518 171.688C57.1518 171.666 57.2649 171.579 57.4983 171.51C57.8052 171.426 58.1273 171.416 58.4389 171.479C58.7505 171.542 59.0429 171.678 59.2929 171.874C59.4789 172.049 59.5555 172.181 59.5409 172.195Z" fill="#263238"/>
<path d="M58.534 171.196C58.5342 171.08 58.5591 170.966 58.6069 170.86C58.7103 170.559 58.8741 170.282 59.0884 170.047C59.2286 169.86 59.4258 169.724 59.6501 169.66C59.7265 169.648 59.8049 169.658 59.8751 169.691C59.9453 169.723 60.0042 169.776 60.0441 169.842C60.1111 169.978 60.1254 170.134 60.0842 170.28C59.9907 170.573 59.7983 170.824 59.5402 170.99C59.282 171.156 58.974 171.228 58.6689 171.192C58.3681 171.149 58.0867 171.018 57.8602 170.816C57.6336 170.613 57.4721 170.348 57.396 170.054C57.3784 169.979 57.3769 169.902 57.3913 169.826C57.4058 169.751 57.4359 169.679 57.4798 169.616C57.5302 169.557 57.5981 169.516 57.6735 169.498C57.7489 169.481 57.828 169.488 57.8993 169.518C58.1055 169.621 58.2814 169.775 58.41 169.966C58.6033 170.219 58.7502 170.505 58.844 170.809C58.8885 170.918 58.9096 171.035 58.906 171.152C58.759 170.759 58.5536 170.39 58.2969 170.058C58.1773 169.902 58.0223 169.777 57.8446 169.693C57.8055 169.676 57.762 169.672 57.7206 169.682C57.6792 169.692 57.642 169.715 57.6148 169.748C57.5893 169.791 57.5729 169.838 57.5666 169.888C57.5604 169.937 57.5643 169.988 57.5783 170.036C57.6544 170.283 57.7989 170.504 57.995 170.673C58.1912 170.842 58.4311 170.953 58.6872 170.991C58.9452 171.021 59.2057 170.963 59.4263 170.826C59.6469 170.689 59.8145 170.481 59.9018 170.236C59.9371 170.137 59.9371 170.029 59.9018 169.93C59.8811 169.893 59.8492 169.863 59.8106 169.844C59.772 169.826 59.7286 169.82 59.6866 169.828C59.4965 169.88 59.3271 169.99 59.2015 170.142C58.9217 170.453 58.696 170.809 58.534 171.196Z" fill="#263238"/>
<g opacity="0.3">
<path opacity="0.3" d="M58.4464 166.224L58.0197 168.267L64.4721 169.339L65.012 167.555L58.6762 165.257L58.4464 166.224Z" fill="black"/>
</g>
<path d="M87.5022 168.555L86.9697 175.675C86.9697 175.675 94.0313 178.593 94.0605 179.935L80.1999 179.399L80.5646 168.267L87.5022 168.555Z" fill="#CDCCCC"/>
<g opacity="0.6">
<path opacity="0.6" d="M82.7205 174.909C82.586 174.945 82.4693 175.029 82.3927 175.145C82.3161 175.262 82.2848 175.402 82.3047 175.54C82.3354 175.675 82.4166 175.794 82.5318 175.872C82.6469 175.95 82.7875 175.981 82.9248 175.959C83.0678 175.921 83.1917 175.832 83.2726 175.708C83.3534 175.584 83.3854 175.434 83.3625 175.288C83.3164 175.15 83.2185 175.034 83.0893 174.966C82.9602 174.898 82.8097 174.883 82.6694 174.923" fill="white"/>
</g>
<g opacity="0.6">
<path opacity="0.6" d="M80.2075 179.399L80.2878 178.276L93.5465 179.198C93.5465 179.198 94.1556 179.49 94.0681 179.928L80.2075 179.399Z" fill="white"/>
</g>
<path d="M87.2034 175.613C87.2034 175.682 86.8605 175.7 86.5213 175.905C86.1821 176.109 85.9924 176.386 85.9304 176.357C85.8684 176.328 85.9851 175.941 86.4009 175.7C86.8168 175.46 87.2216 175.551 87.2034 175.613Z" fill="#263238"/>
<path d="M88.6333 176.28C88.6333 176.35 88.3488 176.452 88.108 176.729C87.8673 177.006 87.7907 177.305 87.7214 177.302C87.6521 177.298 87.6265 176.911 87.9329 176.572C88.2393 176.233 88.6333 176.208 88.6333 176.28Z" fill="#263238"/>
<path d="M89.3918 178.042C89.3298 178.042 89.2496 177.71 89.4356 177.349C89.6216 176.988 89.9462 176.849 89.9718 176.908C89.9973 176.966 89.7967 177.156 89.6471 177.455C89.4976 177.754 89.4575 178.039 89.3918 178.042Z" fill="#263238"/>
<path d="M87.138 173.979C87.1088 174.037 86.8024 173.931 86.4085 173.942C86.0145 173.953 85.7227 174.063 85.679 174.004C85.6352 173.946 85.9416 173.716 86.4085 173.709C86.8753 173.702 87.1817 173.928 87.138 173.979Z" fill="#263238"/>
<g opacity="0.3">
<path opacity="0.3" d="M87.4042 169.967L87.3094 171.236L80.5068 170.908L80.5542 169.441L87.4042 169.967Z" fill="black"/>
</g>
<path d="M87.229 172.538C86.9998 172.593 86.7597 172.583 86.536 172.509C86.2831 172.456 86.038 172.372 85.8065 172.257C85.6715 172.191 85.5411 172.115 85.4162 172.031C85.34 171.984 85.2712 171.926 85.2119 171.86C85.1717 171.807 85.1499 171.743 85.1499 171.677C85.1499 171.611 85.1717 171.547 85.2119 171.495C85.2474 171.449 85.2934 171.412 85.346 171.387C85.3987 171.362 85.4565 171.35 85.5147 171.353C85.6025 171.356 85.6895 171.371 85.7737 171.396C85.9196 171.439 86.0613 171.495 86.1968 171.564C86.4271 171.677 86.6377 171.826 86.8205 172.005C87.1305 172.315 87.229 172.574 87.2071 172.585C87.1852 172.596 87.0284 172.388 86.7111 172.129C86.5248 171.984 86.3214 171.861 86.1056 171.765C85.9769 171.711 85.8454 171.665 85.7116 171.626C85.5657 171.582 85.4417 171.579 85.4016 171.626C85.3615 171.674 85.4016 171.663 85.4016 171.706C85.4454 171.755 85.4957 171.796 85.5512 171.83C85.6682 171.912 85.79 171.986 85.9159 172.053C86.1262 172.169 86.3474 172.264 86.5761 172.337C86.7982 172.389 87.0164 172.456 87.229 172.538Z" fill="#263238"/>
<path d="M87.1376 172.633C87.0164 172.428 86.9616 172.191 86.9808 171.954C86.9822 171.698 87.0241 171.443 87.1048 171.199C87.1572 171.057 87.2218 170.919 87.2981 170.787C87.3391 170.697 87.4025 170.619 87.4824 170.56C87.5622 170.501 87.6557 170.464 87.7541 170.452C87.8163 170.456 87.8762 170.477 87.9266 170.514C87.977 170.551 88.0158 170.601 88.0386 170.66C88.0703 170.741 88.0899 170.827 88.0969 170.915C88.1209 171.07 88.1209 171.227 88.0969 171.382C88.0482 171.64 87.9367 171.881 87.7723 172.086C87.4878 172.451 87.2033 172.505 87.196 172.483C87.1887 172.461 87.4148 172.326 87.6373 171.987C87.765 171.794 87.8485 171.575 87.8817 171.345C87.9002 171.212 87.9002 171.077 87.8817 170.944C87.8635 170.798 87.8124 170.674 87.7577 170.689C87.703 170.703 87.568 170.791 87.506 170.908C87.4348 171.024 87.3726 171.146 87.32 171.272C87.2356 171.493 87.1816 171.723 87.1595 171.958C87.1121 172.367 87.1741 172.633 87.1376 172.633Z" fill="#263238"/>
<path d="M73.1752 91.7673C73.1752 91.7673 70.9866 91.8658 69.5276 99.3505C68.0686 106.835 56.9473 167.483 56.9473 167.483L65.012 167.556L80.2076 109.896L79.1972 169.35L87.3895 169.978C87.3895 169.978 93.5356 104.216 93.5903 100.39C93.6633 95.6191 90.924 90.7935 90.924 90.7935L73.1752 91.7673Z" fill="#263238"/>
<path d="M84.2599 91.129C84.311 91.129 83.472 95.4148 82.3887 100.678C81.3054 105.942 80.3862 110.202 80.3352 110.191C80.2841 110.18 81.1194 105.905 82.2027 100.642C83.286 95.3784 84.2198 91.118 84.2599 91.129Z" fill="#455A64"/>
<path d="M85.5146 92.1977C85.5146 92.1758 85.7334 92.1102 85.9851 92.3327C86.0566 92.3975 86.1132 92.477 86.151 92.5658C86.1888 92.6546 86.2068 92.7505 86.204 92.847C86.1948 92.9689 86.1513 93.0858 86.0783 93.184C86.0053 93.2821 85.906 93.3575 85.7918 93.4014C85.6804 93.452 85.5571 93.4702 85.4359 93.4541C85.3146 93.438 85.2004 93.3881 85.1061 93.3102C85.0355 93.2441 84.9799 93.1637 84.9428 93.0744C84.9057 92.9851 84.888 92.8889 84.8909 92.7923C84.8909 92.4567 85.117 92.34 85.1207 92.3619C85.0592 92.4958 85.0268 92.6413 85.0258 92.7886C85.0307 92.8627 85.0503 92.935 85.0835 93.0014C85.1167 93.0678 85.1628 93.1269 85.2191 93.1753C85.2911 93.2249 85.3744 93.2556 85.4613 93.2646C85.5483 93.2736 85.6361 93.2607 85.7167 93.2269C85.7973 93.1931 85.8682 93.1396 85.9227 93.0713C85.9773 93.003 86.0138 92.9221 86.0289 92.836C86.0343 92.7621 86.0248 92.6879 86.001 92.6177C85.9772 92.5476 85.9395 92.4829 85.8903 92.4275C85.7116 92.2196 85.511 92.2269 85.5146 92.1977Z" fill="#455A64"/>
<path d="M85.1681 95.1595C85.1681 95.1376 85.3942 95.1595 85.5328 95.4622C85.5681 95.5486 85.584 95.6417 85.5796 95.735C85.5752 95.8282 85.5505 95.9193 85.5073 96.0021C85.4445 96.1004 85.3562 96.1798 85.2518 96.2317C85.1473 96.2836 85.0307 96.306 84.9145 96.2967C84.7982 96.2873 84.6867 96.2464 84.592 96.1784C84.4972 96.1105 84.4227 96.018 84.3765 95.9109C84.3474 95.823 84.3378 95.7297 84.3486 95.6377C84.3593 95.5457 84.39 95.4572 84.4386 95.3783C84.61 95.1048 84.8434 95.1121 84.8361 95.1339C84.8288 95.1558 84.6611 95.2069 84.5553 95.4403C84.5018 95.5713 84.5018 95.7179 84.5553 95.8489C84.5934 95.9212 84.6491 95.9828 84.7174 96.0279C84.7857 96.0729 84.8642 96.1 84.9457 96.1065C85.0273 96.1131 85.1091 96.0989 85.1837 96.0653C85.2583 96.0318 85.3232 95.9799 85.3723 95.9145C85.441 95.7898 85.4581 95.6431 85.4197 95.506C85.314 95.258 85.1498 95.185 85.1681 95.1595Z" fill="#455A64"/>
<path d="M77.4387 92.2707C77.4237 92.396 77.3918 92.5187 77.3439 92.6354C77.23 92.9694 77.0872 93.2928 76.9171 93.602C76.3606 94.6338 75.5568 95.5115 74.5778 96.1564C73.5987 96.8012 72.475 97.1931 71.3073 97.297C70.9565 97.3275 70.6038 97.3275 70.2531 97.297C70.1296 97.293 70.007 97.2734 69.8884 97.2386C69.8884 97.2021 70.4391 97.2641 71.3109 97.1547C72.4471 97.0168 73.5358 96.6173 74.4915 95.9876C75.4471 95.3579 76.2437 94.515 76.8187 93.5254C77.2454 92.7886 77.4059 92.2597 77.4387 92.2707Z" fill="#455A64"/>
<path d="M93.1308 97.5924C93.1308 97.5924 93.036 97.5486 92.8864 97.4465C92.6774 97.2962 92.4822 97.1278 92.3028 96.9432C91.7029 96.3359 91.2349 95.6114 90.928 94.8149C90.621 94.0185 90.4819 93.1672 90.5192 92.3145C90.5275 92.0578 90.5605 91.8025 90.6176 91.5521C90.6578 91.3734 90.6833 91.2786 90.6979 91.2822C90.7125 91.2859 90.6541 91.6798 90.6541 92.3181C90.6547 93.9937 91.2773 95.6093 92.4013 96.852C92.828 97.3225 93.149 97.5632 93.1308 97.5924Z" fill="#455A64"/>
<path d="M121.424 97.8039C121.545 97.5121 121.512 97.6288 119.579 96.3449C119.579 96.3449 122.351 98.1687 122.063 97.3005C121.813 96.9717 121.509 96.689 121.162 96.4653C121.891 96.8957 122.314 96.9431 122.442 96.768C122.661 96.4653 121.074 95.309 120.319 94.7874C121.009 95.2812 121.733 95.7261 122.486 96.1187C122.935 96.2574 122.719 95.7321 122.417 95.3491C122.114 94.9661 119.765 92.7047 119.134 92.0299C119.074 91.9785 119.026 91.9147 118.992 91.843C118.959 91.7712 118.942 91.6931 118.942 91.6141C118.942 91.535 118.959 91.4569 118.992 91.3852C119.026 91.3134 119.074 91.2496 119.134 91.1982C120.265 90.4687 120.761 89.3052 120.746 88.9222C120.733 88.836 120.694 88.7559 120.633 88.6936C120.572 88.6312 120.493 88.5898 120.407 88.5752C120.321 88.5606 120.233 88.5736 120.155 88.6124C120.077 88.6511 120.013 88.7136 119.973 88.7909C119.687 89.1457 119.355 89.4598 118.984 89.7246C118.697 89.9487 118.374 90.1226 118.029 90.2389C117.627 90.3703 115.654 90.2608 115.231 90.0456L113.885 94.6087C113.885 94.6087 118.769 96.892 119.696 97.337C120.834 97.8769 121.341 98.0264 121.424 97.8039Z" fill="#CDCCCC"/>
<path d="M118.7 95.6702C118.659 95.7249 119.294 96.1881 120.115 96.7097C120.936 97.2313 121.625 97.607 121.658 97.5523C121.691 97.4976 121.056 97.0307 120.239 96.5127C119.422 95.9948 118.736 95.6009 118.7 95.6702Z" fill="#EB996E"/>
<path d="M119.159 94.7765C119.123 94.8312 119.772 95.3637 120.618 95.9692C121.464 96.5747 122.165 97.0234 122.201 96.9723C122.238 96.9212 121.592 96.385 120.742 95.7796C119.892 95.1741 119.199 94.7254 119.159 94.7765Z" fill="#EB996E"/>
<path d="M119.645 93.872C119.608 93.923 120.214 94.441 120.998 95.0246C121.782 95.6082 122.457 96.0386 122.486 95.9875C122.515 95.9365 121.921 95.4185 121.137 94.8349C120.352 94.2513 119.685 93.8209 119.645 93.872Z" fill="#EB996E"/>
<path d="M69.9688 77.3448L73.5506 77.5418C73.8044 78.5418 74.1436 79.518 74.5647 80.4598C77.4498 75.4554 79.6712 68.7476 80.2402 66.0521C80.16 65.7871 80.0615 65.488 79.9448 65.1548C79.8574 64.6512 79.8722 64.1352 79.9885 63.6374C80.087 63.0393 80.2548 62.2295 80.3022 61.8575C80.4591 60.7194 80.6414 60.5371 81.0317 60.6684C81.5715 60.8434 80.8092 63.8672 81.2506 63.9329C81.4913 63.9657 81.7795 62.9298 81.867 62.08C81.9545 61.2301 82.3339 58.6185 82.6147 58.4324C83.0269 58.1771 83.3844 58.582 83.2822 59.4282C83.1801 60.2744 83.0451 62.8386 83.4938 62.8715C83.9424 62.9043 84.3072 58.571 84.3072 58.571C84.3072 58.571 84.2379 57.63 84.7558 57.6519C85.6933 57.692 84.9637 62.2623 84.8835 62.6964C84.8251 62.9955 85.3139 63.0611 85.3577 62.7256C85.4014 62.39 85.6276 58.3887 86.5796 58.4215C87.3091 58.447 86.0142 62.1857 86.4264 63.0538C86.8386 63.922 87.1231 60.1103 87.8234 60.1614C88.0824 60.1832 88.2757 60.2343 87.7979 62.39C87.3315 64.1042 86.7726 65.7918 86.1237 67.4455C85.0294 73.4274 80.1454 92.5623 72.5148 89.0607C68.2472 87.102 66.252 77.3886 66.252 77.3886L69.9688 77.3448Z" fill="#CDCCCC"/>
<path d="M86.1311 67.4783C86.1374 67.4331 86.1497 67.389 86.1676 67.347C86.2004 67.2522 86.2405 67.1282 86.2953 66.9823C86.4156 66.6357 86.5798 66.1543 86.795 65.5233C87.0102 64.8922 87.2691 64.1262 87.5245 63.2217C87.6558 62.773 87.7652 62.2842 87.8637 61.7627C87.9148 61.5 87.9622 61.2301 87.995 60.9529C88.0041 60.8157 88.0041 60.678 87.995 60.5407C87.995 60.3985 87.9622 60.2818 87.8491 60.2781C87.736 60.2745 87.6558 60.3438 87.5755 60.4641C87.5029 60.5929 87.443 60.7285 87.3968 60.869C87.2947 61.1572 87.2144 61.4636 87.1342 61.7736C87.0539 62.0836 86.981 62.4083 86.8862 62.7365C86.8448 62.9164 86.7706 63.087 86.6673 63.2399C86.6413 63.2698 86.6071 63.2914 86.5688 63.3019C86.5447 63.3072 86.5198 63.307 86.4958 63.3013C86.4718 63.2956 86.4494 63.2846 86.4302 63.2691C86.3883 63.2306 86.3537 63.1849 86.3281 63.1341C86.2896 63.0445 86.2638 62.95 86.2515 62.8533C86.2349 62.1176 86.3084 61.3826 86.4703 60.6648C86.5323 60.3 86.598 59.9352 86.6454 59.5705C86.6673 59.3845 86.6892 59.2057 86.6928 59.0088C86.6965 58.8118 86.6673 58.6039 86.5907 58.5711C86.5141 58.5382 86.3281 58.6404 86.226 58.7936C86.1251 58.9554 86.0455 59.1295 85.9889 59.3115C85.8645 59.6925 85.7706 60.0828 85.708 60.4787C85.6387 60.88 85.584 61.2885 85.5366 61.7043C85.5183 61.9122 85.4965 62.1201 85.4782 62.3317L85.449 62.649C85.4529 62.7168 85.4419 62.7846 85.4167 62.8476C85.3915 62.9106 85.3527 62.9674 85.3031 63.0138C85.2407 63.0594 85.1653 63.084 85.0879 63.084C85.0106 63.084 84.9352 63.0594 84.8727 63.0138C84.8374 62.9904 84.8074 62.9598 84.7847 62.9239C84.7621 62.8881 84.7473 62.8478 84.7414 62.8058C84.7359 62.7671 84.7359 62.7278 84.7414 62.6891V62.6125L84.8399 61.9742C84.9019 61.5438 84.953 61.1134 84.9931 60.6757C85.0332 60.238 85.066 59.7966 85.0733 59.3553C85.0947 58.9183 85.0504 58.4806 84.942 58.0568C84.9169 57.9492 84.8516 57.8553 84.7597 57.7942C84.7157 57.78 84.6683 57.7802 84.6244 57.7946C84.5805 57.809 84.5423 57.8369 84.5153 57.8744C84.3972 58.0903 84.3488 58.3375 84.3767 58.582C84.2964 59.4392 84.2052 60.2818 84.0812 61.1098C84.0192 61.5219 83.9499 61.9341 83.8478 62.339C83.8186 62.4374 83.7894 62.5396 83.7529 62.6417C83.7183 62.7655 83.6455 62.8752 83.545 62.9554C83.5006 62.9772 83.4501 62.9833 83.4017 62.9727C83.3533 62.9621 83.31 62.9354 83.2788 62.897C83.2342 62.8503 83.2006 62.7942 83.1803 62.7329C83.1409 62.6317 83.1128 62.5265 83.0964 62.4192C83.0109 61.6255 83.0036 60.8253 83.0745 60.0301C83.1284 59.6594 83.1492 59.2847 83.1365 58.9103C83.1247 58.7505 83.0515 58.6015 82.9322 58.4945C82.9042 58.4771 82.873 58.4655 82.8404 58.4605C82.8078 58.4555 82.7745 58.4571 82.7426 58.4653C82.7085 58.4768 82.6755 58.4915 82.6441 58.5091C82.6113 58.5382 82.6149 58.5091 82.593 58.5711C82.4611 58.8991 82.3645 59.2402 82.3049 59.5887C82.2319 59.9535 82.1699 60.2854 82.1152 60.6283C82.0605 60.9711 82.0094 61.3067 81.9657 61.6423C81.9219 61.9779 81.9 62.3061 81.8343 62.6344C81.7777 62.9551 81.6922 63.2701 81.579 63.5755C81.549 63.6532 81.5136 63.7287 81.4732 63.8016C81.4222 63.8709 81.393 63.9585 81.2544 64.0022C81.2189 64.0087 81.1823 64.0046 81.1492 63.9903C81.1161 63.976 81.088 63.9523 81.0684 63.922C81.0428 63.8799 81.0232 63.8345 81.01 63.787C80.9936 63.7077 80.9838 63.6272 80.9808 63.5463C80.9808 62.9226 81.0647 62.3536 81.0975 61.8028C81.1213 61.5395 81.1213 61.2746 81.0975 61.0113C81.0975 60.8945 81.0428 60.7559 80.9772 60.7304C80.9312 60.7079 80.8807 60.6961 80.8294 60.6961C80.7782 60.6961 80.7277 60.7079 80.6817 60.7304C80.5286 60.8948 80.4338 61.105 80.4118 61.3286C80.3571 61.5511 80.3352 61.7772 80.2951 61.9924C80.1419 62.8533 79.9814 63.5974 79.9048 64.2028C79.8688 64.4691 79.8688 64.739 79.9048 65.0053C79.9559 65.2242 80.0325 65.4211 80.0726 65.5743C80.1127 65.7275 80.1528 65.8369 80.1784 65.9391C80.1919 65.9782 80.2017 66.0185 80.2075 66.0594C80.1857 66.0241 80.1685 65.9861 80.1565 65.9464L80.0325 65.5816C79.9814 65.4248 79.9048 65.2497 79.8428 65.009C79.8038 64.7356 79.8038 64.458 79.8428 64.1846C79.9121 63.5682 80.058 62.8314 80.2075 61.9669C80.2477 61.7517 80.2696 61.5256 80.317 61.2921C80.3431 61.1688 80.376 61.0471 80.4155 60.9274C80.4519 60.7947 80.5315 60.6779 80.6416 60.5954C80.7079 60.5603 80.7818 60.542 80.8568 60.542C80.9318 60.542 81.0057 60.5603 81.072 60.5954C81.1433 60.6404 81.2019 60.7029 81.2421 60.777C81.2824 60.8511 81.3029 60.9343 81.3018 61.0186C81.3274 61.2927 81.3274 61.5687 81.3018 61.8429C81.2763 62.3973 81.1887 62.9773 81.2033 63.5682C81.206 63.6381 81.2145 63.7076 81.2289 63.7761C81.2289 63.8454 81.2799 63.8746 81.2726 63.86C81.2653 63.8454 81.3419 63.8016 81.3711 63.7433C81.4071 63.6785 81.4388 63.6115 81.4659 63.5426C81.574 63.247 81.6534 62.9416 81.703 62.6308C81.765 62.3134 81.7869 61.9852 81.8307 61.6459C81.8745 61.3067 81.9182 60.9711 81.9729 60.6246C82.0277 60.2781 82.0897 59.9316 82.159 59.5778C82.2183 59.2083 82.3211 58.8471 82.4654 58.5018C82.4945 58.4439 82.5386 58.3947 82.593 58.3595C82.6415 58.3329 82.6929 58.3121 82.7462 58.2975C82.8074 58.28 82.8716 58.2759 82.9345 58.2853C82.9975 58.2947 83.0576 58.3176 83.111 58.3522C83.1956 58.4194 83.2655 58.5033 83.3164 58.5987C83.3672 58.6941 83.3978 58.7989 83.4064 58.9066C83.4338 59.1051 83.4338 59.3064 83.4064 59.5048C83.3882 59.6909 83.3699 59.8696 83.359 60.0739C83.2879 60.8508 83.2953 61.6328 83.3809 62.4083C83.3965 62.5004 83.4209 62.5908 83.4538 62.6782C83.4648 62.7135 83.4835 62.7459 83.5086 62.773C83.5086 62.773 83.5086 62.773 83.5268 62.773C83.5268 62.8569 83.5268 62.773 83.5268 62.8058C83.5268 62.8387 83.5268 62.8059 83.5268 62.7767C83.5723 62.7157 83.608 62.648 83.6326 62.5761C83.6666 62.4861 83.6958 62.3912 83.7201 62.2915C83.8186 61.9049 83.8842 61.4964 83.9463 61.0879C84.0703 60.2672 84.1615 59.4246 84.2381 58.5711V58.5893C84.2056 58.2887 84.2708 57.9856 84.4241 57.7249C84.4826 57.6503 84.5628 57.5959 84.6537 57.5691C84.7446 57.5423 84.8415 57.5445 84.9311 57.5753C85.0076 57.6178 85.0748 57.6751 85.1287 57.7441C85.1826 57.813 85.222 57.892 85.2448 57.9765C85.3616 58.425 85.4096 58.8887 85.387 59.3516C85.387 59.8039 85.3469 60.2489 85.3068 60.6903C85.2667 61.1316 85.2119 61.5657 85.1499 61.9961C85.1171 62.2149 85.0843 62.4265 85.0515 62.6417C85.0223 62.7767 85.0296 62.7803 85.0515 62.8204C85.0768 62.8375 85.1066 62.8467 85.1372 62.8467C85.1677 62.8467 85.1976 62.8375 85.2229 62.8204C85.2667 62.7876 85.274 62.7256 85.2849 62.6052L85.3104 62.2879L85.3761 61.6569C85.4199 61.2411 85.4782 60.8252 85.5475 60.4204C85.615 60.0137 85.7125 59.6126 85.8393 59.2203C85.9055 59.0221 85.9949 58.8323 86.1056 58.655C86.1658 58.5594 86.2453 58.4774 86.339 58.4142C86.391 58.3766 86.4513 58.352 86.5148 58.3425C86.5782 58.333 86.643 58.3388 86.7038 58.3595C86.7597 58.394 86.8068 58.4409 86.8416 58.4966C86.8764 58.5522 86.8979 58.6152 86.9044 58.6805C86.9194 58.7831 86.9255 58.8869 86.9226 58.9905C86.9226 59.1912 86.8971 59.3845 86.8752 59.5778C86.8242 59.9425 86.7549 60.3292 86.6892 60.6976C86.5325 61.3905 86.4566 62.0992 86.463 62.8095C86.4733 62.8858 86.4929 62.9605 86.5214 63.032C86.5346 63.0579 86.5505 63.0823 86.5688 63.1049C86.5688 63.1049 86.5688 63.1049 86.5688 63.0794C86.6507 62.9476 86.7111 62.8035 86.7476 62.6527C86.8424 62.3353 86.919 62.0143 87.0029 61.7006C87.0781 61.3885 87.1694 61.0805 87.2764 60.7778C87.327 60.6279 87.393 60.4837 87.4734 60.3474C87.5169 60.2732 87.5738 60.2076 87.6412 60.1541C87.6779 60.1223 87.7217 60.0998 87.7689 60.0884C87.816 60.0811 87.864 60.0811 87.9111 60.0884C87.9609 60.0934 88.0084 60.1116 88.0488 60.1411C88.0892 60.1706 88.121 60.2103 88.1409 60.2562C88.1714 60.3329 88.1874 60.4145 88.1883 60.497C88.1912 60.6445 88.1826 60.7921 88.1628 60.9383C88.13 61.2228 88.0752 61.4927 88.0242 61.759C87.9184 62.2806 87.8017 62.7767 87.6594 63.218C87.3859 64.1226 87.1123 64.8886 86.8898 65.5123C86.6673 66.136 86.4776 66.6066 86.35 66.9421C86.288 67.0953 86.2369 67.2157 86.2004 67.3069C86.1841 67.3665 86.1608 67.4241 86.1311 67.4783Z" fill="#242221"/>
<path d="M66.2193 77.7573C66.9123 80.2047 68.2692 83.9799 69.7246 87.9703C69.7704 88.0989 69.8534 88.2109 69.9631 88.2923C70.0727 88.3736 70.204 88.4206 70.3403 88.4272C70.4767 88.4339 70.6119 88.3999 70.7289 88.3296C70.8459 88.2593 70.9394 88.1558 70.9976 88.0323L74.5648 80.4856C74.5648 80.4856 73.704 74.2848 73.777 74.5073C73.8499 74.7298 66.4163 75.3098 66.4163 75.3098L66.2193 77.7573Z" fill="#CDCCCC"/>
<path d="M74.2585 76.5425C74.2585 76.5717 73.8135 76.703 73.1095 76.9729C72.1895 77.3221 71.3031 77.7543 70.4614 78.2641C69.6208 78.7763 68.8274 79.3622 68.0905 80.0149C67.5251 80.5146 67.2005 80.8575 67.1786 80.8356C67.1567 80.8137 67.2406 80.7335 67.3792 80.5694C67.5746 80.3413 67.7816 80.1233 67.9993 79.9165C68.7183 79.2241 69.5109 78.6126 70.3629 78.0927C71.2152 77.5792 72.1201 77.1585 73.0621 76.8379C73.3468 76.7399 73.6366 76.6571 73.9302 76.5899C74.0364 76.5567 74.1472 76.5407 74.2585 76.5425Z" fill="#FAFAFA"/>
<path d="M75.6736 78.4246C75.4418 78.1909 75.2408 77.9286 75.0754 77.644C74.6495 76.9799 74.2833 76.2793 73.9812 75.5504C73.6789 74.8193 73.4433 74.0624 73.2772 73.2889C73.1922 72.9725 73.1493 72.6463 73.1495 72.3187C73.2583 72.6245 73.3449 72.9378 73.4085 73.2561C73.6039 74.0114 73.8476 74.7533 74.138 75.4774C74.4414 76.1977 74.7899 76.8982 75.1812 77.5747C75.3634 77.8472 75.5278 78.1311 75.6736 78.4246Z" fill="#263238"/>
<path d="M78.0522 45.0061C77.4334 46.026 77.0498 47.171 76.9293 48.3579C76.8088 49.5448 76.9544 50.7436 77.3556 51.8671C77.7203 52.8701 78.3039 53.8586 78.1981 54.9237C78.0924 55.9888 77.2607 57.0429 77.5525 58.0934C77.7276 58.7171 78.2602 59.1876 78.4681 59.7931C78.7052 60.5226 78.4681 61.2922 78.3404 62.04C78.0486 63.9513 78.6614 65.8735 78.8109 67.7994C78.9605 69.7253 78.4462 71.9831 76.7245 72.8221C76.203 73.0774 75.5209 73.1503 75.0868 72.7601C74.5324 72.2676 74.6856 71.3776 74.8388 70.6481C76.3489 63.3531 71.6837 56.2331 72.7488 48.8505C72.9202 47.6688 73.5804 45.6626 74.4303 44.8383C75.2801 44.0139 77.6401 44.1088 78.4425 44.9842" fill="#263238"/>
<path d="M70.8661 66.1689C70.8661 66.1689 71.0886 65.9063 71.4169 65.3883C71.8776 64.6568 72.2003 63.847 72.3689 62.9992C72.479 62.4151 72.517 61.8198 72.482 61.2265C72.4182 60.5366 72.3926 59.8437 72.4054 59.1511C72.4272 58.7717 72.497 58.3966 72.6133 58.0349C72.7466 57.6623 72.9152 57.3032 73.1167 56.9625C73.5252 56.2732 74.0395 55.6312 74.5137 54.9455C75.0006 54.2974 75.3393 53.5503 75.5058 52.7569C75.5867 52.0097 75.5435 51.2542 75.3781 50.521C75.2401 49.8396 75.1862 49.1438 75.2176 48.4492C75.261 47.8425 75.3837 47.2441 75.5824 46.6692C75.861 45.835 76.2996 45.0632 76.8736 44.3968C77.0261 44.2157 77.1919 44.0462 77.3697 43.8898C77.426 43.8298 77.4898 43.7771 77.5594 43.733C77.5594 43.733 77.315 43.9701 76.9283 44.4625C76.0074 45.6055 75.469 47.0091 75.3891 48.4748C75.3647 49.158 75.4247 49.8416 75.5678 50.5101C75.7418 51.263 75.7886 52.0397 75.7064 52.808C75.5335 53.6235 75.185 54.3915 74.6851 55.0585C74.2073 55.7552 73.693 56.3935 73.2918 57.0647C73.0944 57.3926 72.9306 57.7397 72.803 58.1006C72.6876 58.4475 72.6177 58.808 72.5951 59.1729C72.5789 59.858 72.5984 60.5434 72.6534 61.2265C72.6824 61.8318 72.6358 62.4383 72.5148 63.032C72.3321 63.8914 71.9853 64.7076 71.4935 65.4357C71.3604 65.6326 71.2142 65.8202 71.0558 65.9974C70.9991 66.0614 70.9355 66.1189 70.8661 66.1689Z" fill="#455A64"/>
<path d="M67.4085 66.7125C67.4379 66.6275 67.4758 66.5456 67.5216 66.4682C67.6128 66.2967 67.7295 66.0706 67.8863 65.7861C68.1927 65.1915 68.6487 64.3271 69.0973 63.2328C69.6461 61.9548 69.9505 60.5852 69.9946 59.195C69.9948 58.7945 69.9643 58.3945 69.9034 57.9986C69.8414 57.5901 69.7466 57.1779 69.6846 56.7475C69.6087 56.3023 69.6186 55.8467 69.7137 55.4052C69.8371 54.9519 70.0907 54.5448 70.4432 54.2344C71.129 53.6106 71.957 53.2021 72.3874 52.469C72.7603 51.742 72.98 50.9462 73.033 50.1309C73.1102 49.3835 73.2792 48.6484 73.5363 47.9424C74.1145 46.4266 75.1446 45.1253 76.4872 44.2146C76.7012 44.0705 76.9242 43.9402 77.1547 43.8243C77.2325 43.7777 77.3158 43.741 77.4027 43.7149C77.4027 43.7149 77.0744 43.89 76.531 44.2766C75.765 44.8232 75.1018 45.5012 74.5722 46.2791C74.205 46.8124 73.906 47.3895 73.6822 47.9971C73.4365 48.7048 73.2772 49.4396 73.2081 50.1856C73.0986 50.9625 73.0111 51.8306 72.5442 52.6003C72.0773 53.3699 71.2238 53.8076 70.5709 54.424C70.2382 54.7128 69.9983 55.0935 69.8815 55.5183C69.7929 55.936 69.7842 56.3667 69.856 56.7876C69.9144 57.2071 70.0055 57.6229 70.0675 58.0351C70.1306 58.4405 70.1599 58.8504 70.1551 59.2606C70.1055 60.6763 69.7848 62.0693 69.2104 63.3641C68.8373 64.2391 68.4134 65.0917 67.941 65.9174L67.5544 66.49C67.5138 66.5691 67.4649 66.6437 67.4085 66.7125Z" fill="#455A64"/>
<path d="M153.001 57.9329C153.001 57.9329 152.903 57.9329 152.713 57.9329C152.436 57.9164 152.158 57.9164 151.881 57.9329C150.81 57.9956 149.757 58.2424 148.77 58.6624C147.205 59.3185 145.842 60.3799 144.823 61.7373C144.195 62.5848 143.728 63.5405 143.445 64.5568C142.806 66.9777 143.151 69.5529 144.404 71.7205C144.745 72.3207 145.162 72.8747 145.644 73.3692C146.13 73.8931 146.697 74.3363 147.322 74.6823C147.964 75.0434 148.69 75.2261 149.427 75.2112C150.186 75.2021 150.913 74.9078 151.465 74.3869C151.732 74.1072 151.942 73.7778 152.081 73.4173C152.221 73.0568 152.288 72.6723 152.279 72.2859C152.273 71.483 152.018 70.7017 151.549 70.05C150.605 68.7186 149.073 67.825 147.442 67.3435C145.752 66.8687 143.966 66.8435 142.263 67.2706C141.393 67.4967 140.555 67.83 139.768 68.2627C138.973 68.7113 138.251 69.2783 137.627 69.9442C137.477 70.1156 137.306 70.2725 137.171 70.4621L136.759 71.0166C136.508 71.4072 136.284 71.8142 136.088 72.2348C135.697 73.0888 135.431 73.9939 135.296 74.9231C135.031 76.7792 135.284 78.6724 136.026 80.3943C136.735 82.0769 137.969 83.4845 139.545 84.4066C140.309 84.8432 141.162 85.1013 142.04 85.1616C142.901 85.2098 143.757 85.0044 144.502 84.5708C145.242 84.162 145.827 83.5211 146.166 82.747C146.486 81.9841 146.508 81.129 146.228 80.3506C145.939 79.5995 145.468 78.9325 144.856 78.4101C144.263 77.8973 143.579 77.5002 142.839 77.2392C141.397 76.7845 139.854 76.7579 138.396 77.1626C137.033 77.5321 135.781 78.2296 134.749 79.1943C133.809 80.0947 133.093 81.2027 132.659 82.4297C131.899 84.5585 131.934 86.8901 132.757 88.9952C133.399 90.5667 134.433 91.9479 135.759 93.0075C136.595 93.6776 137.525 94.2197 138.52 94.616C138.863 94.7437 139.13 94.8385 139.312 94.8896L139.582 94.9771C139.582 94.9771 139.487 94.9589 139.305 94.9078C139.035 94.8357 138.77 94.7493 138.509 94.6489C137.501 94.27 136.559 93.7359 135.715 93.0658C134.367 92.007 133.313 90.619 132.655 89.0353C131.817 86.9104 131.775 84.5544 132.535 82.4005C132.97 81.155 133.694 80.0301 134.647 79.1177C135.693 78.1336 136.964 77.4199 138.349 77.0386C139.837 76.6235 141.413 76.6489 142.887 77.1116C143.648 77.3771 144.352 77.7842 144.962 78.3116C145.598 78.8511 146.087 79.5424 146.384 80.3214C146.684 81.1346 146.671 82.0303 146.348 82.8345C145.988 83.6391 145.378 84.3057 144.608 84.7349C143.835 85.1853 142.948 85.4007 142.055 85.355C141.156 85.2922 140.282 85.0253 139.502 84.5744C137.89 83.6394 136.624 82.2074 135.894 80.4928C135.136 78.7393 134.876 76.811 135.143 74.9194C135.282 73.9715 135.555 73.048 135.953 72.1765C136.153 71.7469 136.382 71.3314 136.638 70.9327L137.061 70.3673C137.196 70.174 137.371 70.0025 137.525 69.8348C138.164 69.1562 138.901 68.5782 139.713 68.1204C140.519 67.6795 141.377 67.3413 142.266 67.1137C144.002 66.6787 145.822 66.7051 147.544 67.1903C149.208 67.6864 150.765 68.5946 151.746 69.9734C152.239 70.6523 152.507 71.4687 152.512 72.3078C152.53 73.1336 152.219 73.9326 151.648 74.5291C151.064 75.0769 150.296 75.3855 149.496 75.3936C148.73 75.411 147.974 75.2206 147.307 74.8428C146.667 74.4895 146.088 74.035 145.593 73.4969C145.105 72.9913 144.682 72.4264 144.335 71.8154C143.059 69.6074 142.713 66.9835 143.372 64.5203C143.664 63.4923 144.142 62.5266 144.783 61.6716C145.821 60.3039 147.207 59.2396 148.795 58.5894C149.791 58.1775 150.852 57.9454 151.929 57.9037C152.208 57.8853 152.488 57.8853 152.768 57.9037L153.001 57.9329Z" fill="#263238"/>
<path d="M165.18 94.43H114.038V133.874H165.18V94.43Z" fill="#A39A7D"/>
<path d="M114.038 94.43L123.486 103.242H173.759L165.18 94.43H114.038Z" fill="#C6C0AD"/>
<path d="M114.038 94.43L165.195 94.3388H165.235L165.264 94.3643L173.756 103.086L173.843 103.177L174 103.337H173.774L123.5 103.297H123.478L114.038 94.43L123.522 103.184H123.482L173.756 103.148L173.69 103.308L173.599 103.217L165.111 94.4956L165.177 94.5248L114.038 94.43Z" fill="#263238"/>
<path d="M129.401 112.62C129.124 112.63 128.862 112.749 128.672 112.95C128.481 113.151 128.377 113.419 128.382 113.696C128.387 113.974 128.501 114.238 128.699 114.432C128.896 114.626 129.163 114.735 129.44 114.735C129.717 114.735 129.983 114.626 130.181 114.432C130.379 114.238 130.492 113.974 130.497 113.696C130.502 113.419 130.398 113.151 130.208 112.95C130.017 112.749 129.755 112.63 129.478 112.62" fill="#263238"/>
<path d="M141.486 112.62C141.21 112.631 140.949 112.749 140.759 112.95C140.57 113.151 140.466 113.418 140.472 113.694C140.477 113.97 140.59 114.233 140.787 114.426C140.984 114.619 141.25 114.728 141.526 114.728C141.802 114.728 142.067 114.619 142.264 114.426C142.461 114.233 142.574 113.97 142.58 113.694C142.585 113.418 142.482 113.151 142.292 112.95C142.102 112.749 141.842 112.631 141.566 112.62" fill="#263238"/>
<path d="M141.555 122.06C141.344 121.254 141.001 120.489 140.541 119.795C140.029 119.053 139.371 118.422 138.608 117.942C137.687 117.331 136.613 116.991 135.508 116.96C134.403 116.93 133.312 117.211 132.36 117.77C131.572 118.21 130.882 118.803 130.328 119.514C129.829 120.182 129.446 120.929 129.193 121.724C129.196 121.665 129.206 121.606 129.223 121.549C129.258 121.385 129.303 121.223 129.358 121.064C129.557 120.478 129.849 119.928 130.222 119.434C130.772 118.689 131.471 118.068 132.276 117.61C133.253 117.026 134.377 116.733 135.515 116.764C136.653 116.795 137.758 117.149 138.703 117.785C139.479 118.284 140.143 118.94 140.65 119.711C140.997 120.225 141.259 120.792 141.427 121.389C141.472 121.551 141.507 121.715 141.533 121.881C141.546 121.94 141.553 122 141.555 122.06Z" fill="#263238"/>
<path opacity="0.5" d="M114.155 94.864L123.201 106.332H165.18V103.242H123.485L114.155 94.864Z" fill="black"/>
<path d="M155.095 133.787C155.044 133.787 155 126.926 155 118.467C155 110.009 155.044 103.148 155.095 103.148C155.146 103.148 155.193 110.005 155.193 118.467C155.193 126.929 155.15 133.787 155.095 133.787Z" fill="#263238"/>
<path d="M163.126 124.843H158.618V129.939H163.126V124.843Z" fill="#F5F5F5"/>
<path d="M114.038 94.43L103.541 103.242H114.038V94.43Z" fill="#C6C0AD"/>
<g opacity="0.4">
<path opacity="0.4" d="M114.038 94.43L103.541 103.242H114.038V94.43Z" fill="#C6C0AD"/>
</g>
<path d="M166.69 133.874H107.888V179.228H166.69V133.874Z" fill="#C7B5A1"/>
<path opacity="0.3" d="M166.69 133.874H107.888V179.228H166.69V133.874Z" fill="black"/>
<path d="M151.958 178.907C151.907 178.907 151.863 168.799 151.863 156.332C151.863 143.865 151.907 133.754 151.958 133.754C152.009 133.754 152.053 143.861 152.053 156.332C152.053 168.803 152.009 178.907 151.958 178.907Z" fill="#383326"/>
<path d="M161.704 168.905H157.196V174.001H161.704V168.905Z" fill="#F5F5F5"/>
<path d="M132.505 133.995H125.827V143.672H132.505V133.995Z" fill="#263238"/>
<path d="M132.505 169.416H125.827V179.093H132.505V169.416Z" fill="#263238"/>
<path d="M166.179 133.874H166.026H165.585L163.889 133.893L157.64 133.922L137.036 133.969L116.423 133.944L110.179 133.915L108.483 133.896H108.038H107.888H108.038H108.483L110.179 133.878L116.423 133.849L137.036 133.82L157.64 133.849L163.889 133.878L165.585 133.896H166.026L166.179 133.874Z" fill="#263238"/>
</svg>
