<svg width="223" height="223" viewBox="0 0 223 223" fill="none" xmlns="http://www.w3.org/2000/svg">
<circle cx="111.5" cy="111.5" r="111.5" fill="#ECECEC"/>
<path d="M128.316 77.0235C125.465 77.6791 121.417 79.2821 117.827 80.7159C117.881 80.4469 117.912 80.1738 117.92 79.8996C117.734 80.2337 117.547 80.5636 117.366 80.902L117.23 80.957C117.245 80.5943 117.219 80.2312 117.154 79.8742C117.058 80.354 116.851 80.8047 116.549 81.1896C116.535 81.2103 116.52 81.2301 116.503 81.2488L115.784 81.5406C115.87 80.8172 115.87 80.0859 115.784 79.3624C115.721 80.0501 115.61 80.7327 115.454 81.4053C115.428 81.5068 115.407 81.6083 115.378 81.714L114.443 82.0989C114.379 81.8409 114.312 81.5829 114.244 81.3249L113.906 82.34L113.517 82.5007C113.462 82.1115 113.373 81.7279 113.25 81.3545C113.21 81.811 113.134 82.2636 113.022 82.708L112.705 82.8433C112.688 82.1491 112.606 81.458 112.459 80.7793C112.396 81.308 112.332 81.8282 112.273 82.3527L112.184 83.059C110.793 83.6512 109.922 84.036 109.922 84.036C109.922 84.036 109.82 79.0029 109.922 71.3729C110.023 63.7428 111.541 57.5001 114.654 54.4548C117.767 51.4095 124.408 50.8724 127.542 53.5793C130.676 56.2862 131.56 62.6389 130.371 68.8436C129.682 72.4345 136.322 75.1794 128.316 77.0235Z" fill="#263238"/>
<path d="M100.451 111.6L100.747 110.699C100.864 110.344 101.058 110.02 101.314 109.749C101.571 109.477 101.884 109.266 102.232 109.13L106.144 107.586L108.103 108.542C107.578 110.678 105.167 112.835 105.167 112.835L104.554 113.507C104.297 113.801 103.949 114.001 103.565 114.073C103.182 114.145 102.785 114.086 102.439 113.905L100.967 113.059C100.723 112.916 100.537 112.691 100.443 112.424C100.349 112.157 100.352 111.865 100.451 111.6Z" fill="#B1B1B1"/>
<path d="M122.542 86.8021C122.466 87.5169 122.386 88.1429 122.289 88.7985C122.191 89.454 122.077 90.0969 121.963 90.7398C121.722 92.0087 121.447 93.3114 121.117 94.5887C120.787 95.866 120.432 97.1264 120.022 98.3952C119.611 99.6641 119.133 100.912 118.613 102.155L118.541 102.329C118.441 102.566 118.298 102.783 118.118 102.967C117.239 103.847 116.285 104.65 115.268 105.365C114.32 106.068 113.347 106.694 112.379 107.303C111.41 107.912 110.421 108.474 109.418 108.994C108.416 109.515 107.418 110.052 106.36 110.525C106.044 110.668 105.687 110.694 105.354 110.597C105.021 110.499 104.733 110.286 104.543 109.996C104.353 109.705 104.273 109.357 104.318 109.012C104.363 108.668 104.529 108.351 104.787 108.119H104.808C105.624 107.387 106.47 106.66 107.299 105.941C108.128 105.222 108.966 104.503 109.778 103.779C110.59 103.056 111.393 102.333 112.159 101.614C112.884 100.945 113.565 100.23 114.198 99.4738L113.707 100.282C114.066 99.1523 114.392 98.0061 114.692 96.8388C114.993 95.6714 115.259 94.4872 115.5 93.2944C115.741 92.1017 115.974 90.9048 116.181 89.6993L116.481 87.8976L116.756 86.1339V86.0493C116.806 85.6708 116.929 85.3056 117.119 84.9747C117.309 84.6438 117.563 84.3536 117.865 84.1207C118.168 83.8878 118.513 83.7168 118.882 83.6173C119.25 83.5179 119.635 83.492 120.013 83.5412C120.392 83.5903 120.757 83.7136 121.088 83.9038C121.419 84.0941 121.709 84.3477 121.942 84.6501C122.175 84.9525 122.346 85.2978 122.445 85.6664C122.544 86.0349 122.57 86.4194 122.521 86.7979L122.542 86.8021Z" fill="#B1B1B1"/>
<path d="M122.665 78.6564C114.743 79.6292 113.39 94.7285 114.109 97.7611C115.226 100.371 120.085 99.03 120.085 99.03C120.085 99.03 127.787 87.5764 122.665 78.6564Z" fill="#263238"/>
<path d="M120.884 98.5772C120.706 99.0132 120.466 99.4218 120.174 99.7911C120.151 99.8204 120.12 99.8425 120.085 99.8545C119.662 100.036 116.617 101.199 114.066 99.4696C114.022 99.4415 113.988 99.4 113.969 99.3512C113.727 98.6969 113.618 98.001 113.648 97.3041C113.649 97.2651 113.659 97.2269 113.678 97.1927C113.696 97.1584 113.723 97.129 113.755 97.1067C113.787 97.0845 113.824 97.0702 113.863 97.0648C113.901 97.0594 113.941 97.0631 113.978 97.0757C114.942 97.4225 117.958 98.3996 120.639 98.2304C120.682 98.2277 120.724 98.2359 120.762 98.2543C120.801 98.2727 120.834 98.3006 120.858 98.3353C120.883 98.3701 120.898 98.4105 120.903 98.4529C120.907 98.4952 120.901 98.538 120.884 98.5772Z" fill="white"/>
<path d="M153.578 190.29C157.44 190.29 157.157 190.231 159.322 190.155C161.175 190.091 161.64 190.324 163.129 190.29C164.376 190.261 164.241 189.068 163.75 187.693C163.505 187.004 163.146 186.158 162.794 185.046H156.924C156.243 186.564 154.741 187.706 152.589 188.006C150.529 188.277 152.035 190.29 153.578 190.29Z" fill="#263238"/>
<path d="M121.667 190.29C126.577 190.29 127.047 188.175 128.857 187.055C130.422 186.099 131.044 186.365 132.663 185.452C133.733 184.851 133.26 183.527 132.401 182.821C131.613 182.185 130.912 181.448 130.316 180.63L125.528 182.745C125.266 184.673 124.361 187.922 121.476 188.125C119.425 188.29 120.148 190.29 121.667 190.29Z" fill="#263238"/>
<path d="M122.635 108.631C122.635 108.631 113.331 132.316 112.096 144.061C112.062 153.789 125.541 182.757 125.541 182.757C125.964 183.481 129.83 181.4 130.329 180.643C125.364 168.521 127.973 153.354 123.494 144.455C133.095 130.802 140.543 105.543 140.543 105.543L122.635 108.631Z" fill="#A7A7A7"/>
<path opacity="0.2" d="M121.041 114.527C121.013 114.53 120.985 114.522 120.962 114.505C120.94 114.487 120.926 114.462 120.922 114.434C120.919 114.406 120.927 114.377 120.944 114.355C120.962 114.333 120.987 114.319 121.015 114.315C122.179 114.064 123.21 113.395 123.913 112.433C123.927 112.41 123.951 112.393 123.978 112.387C124.005 112.381 124.033 112.385 124.056 112.399C124.068 112.406 124.079 112.416 124.087 112.427C124.095 112.438 124.101 112.45 124.104 112.464C124.108 112.477 124.108 112.491 124.106 112.505C124.103 112.519 124.098 112.532 124.09 112.543C123.366 113.561 122.285 114.268 121.062 114.523L121.041 114.527Z" fill="white"/>
<path opacity="0.2" d="M131.357 119.56C129.284 123.756 128.958 130.015 129.123 134.812C131.715 129.572 134.026 124.199 136.047 118.714L136.026 118.693C135.688 118.379 135.28 118.149 134.837 118.021C134.394 117.893 133.927 117.87 133.474 117.954C133.02 118.038 132.592 118.227 132.225 118.506C131.857 118.785 131.56 119.146 131.357 119.56Z" fill="black"/>
<path d="M128.003 107.717C128.003 107.717 130.477 129.842 135.387 144.937C137.841 152.465 151.84 169.565 156.924 185.058C157.872 185.583 161.052 185.616 162.795 185.058C162.795 185.058 154.983 151.006 146.57 143.841C146.545 125.439 147.205 116.557 143.187 105.069L128.003 107.717Z" fill="#A7A7A7"/>
<path opacity="0.2" d="M160.642 183.003C160.617 183.003 160.593 182.995 160.574 182.979C160.554 182.964 160.541 182.942 160.536 182.918C157.059 162.358 144.608 144.429 144.464 144.264C144.458 144.241 144.458 144.216 144.464 144.193C144.464 144.171 144.68 141.655 144.887 132.308C145.09 123.51 144.278 113.964 144.176 112.814C143.516 112.924 140.188 113.376 137.667 111.723C137.655 111.715 137.645 111.705 137.637 111.693C137.629 111.682 137.624 111.669 137.621 111.655C137.618 111.641 137.618 111.627 137.621 111.613C137.624 111.599 137.63 111.586 137.637 111.575C137.654 111.552 137.678 111.536 137.706 111.53C137.733 111.525 137.762 111.53 137.785 111.545C140.505 113.33 144.214 112.594 144.252 112.585C144.265 112.579 144.279 112.576 144.293 112.576C144.307 112.576 144.32 112.579 144.333 112.585C144.345 112.594 144.356 112.606 144.364 112.619C144.372 112.632 144.377 112.646 144.379 112.662C144.379 112.763 145.314 122.952 145.098 132.295C144.891 141.025 144.675 143.808 144.675 144.159C145.268 145.005 157.322 162.667 160.748 182.863C160.75 182.877 160.75 182.891 160.746 182.905C160.743 182.919 160.737 182.932 160.729 182.943C160.721 182.955 160.71 182.964 160.698 182.972C160.686 182.979 160.673 182.984 160.659 182.986L160.642 183.003Z" fill="white"/>
<path d="M155.812 182.846C156.002 183.559 156.143 184.284 156.235 185.016C156.256 185.149 156.319 185.273 156.415 185.369C156.511 185.464 156.634 185.527 156.768 185.549C159.014 185.891 161.979 185.392 162.913 185.215C162.955 185.208 162.995 185.193 163.031 185.171C163.066 185.148 163.097 185.118 163.121 185.083C163.145 185.049 163.161 185.009 163.169 184.968C163.177 184.926 163.176 184.884 163.167 184.842L162.905 182.812C162.879 182.669 162.804 182.54 162.694 182.445C162.584 182.35 162.445 182.296 162.3 182.292L156.129 182.41C156.076 182.409 156.023 182.42 155.976 182.443C155.928 182.467 155.886 182.501 155.855 182.544C155.824 182.587 155.804 182.637 155.796 182.69C155.788 182.742 155.794 182.796 155.812 182.846Z" fill="#A7A7A7"/>
<path opacity="0.2" d="M155.812 182.846C156.002 183.559 156.143 184.284 156.235 185.016C156.256 185.149 156.319 185.273 156.415 185.369C156.511 185.464 156.634 185.527 156.768 185.549C159.014 185.891 161.979 185.392 162.913 185.215C162.955 185.208 162.995 185.193 163.031 185.171C163.066 185.148 163.097 185.118 163.121 185.083C163.145 185.049 163.161 185.009 163.169 184.968C163.177 184.926 163.176 184.884 163.167 184.842L162.905 182.812C162.879 182.669 162.804 182.54 162.694 182.445C162.584 182.35 162.445 182.296 162.3 182.292L156.129 182.41C156.076 182.409 156.023 182.42 155.976 182.443C155.928 182.467 155.886 182.501 155.855 182.544C155.824 182.587 155.804 182.637 155.796 182.69C155.788 182.742 155.794 182.796 155.812 182.846Z" fill="black"/>
<path d="M124.162 180.858C124.353 181.391 124.687 182.347 124.911 183.062C124.946 183.175 125.024 183.269 125.129 183.325C125.234 183.38 125.356 183.392 125.469 183.358C127.254 182.846 129.872 181.429 130.727 180.955C130.809 180.909 130.874 180.838 130.914 180.752C130.953 180.666 130.965 180.57 130.946 180.478L130.566 178.426C130.554 178.361 130.527 178.299 130.488 178.245C130.449 178.191 130.399 178.147 130.341 178.115C130.282 178.083 130.218 178.064 130.151 178.06C130.085 178.056 130.018 178.067 129.957 178.092L124.42 180.287C124.311 180.33 124.223 180.413 124.175 180.52C124.127 180.627 124.122 180.748 124.162 180.858Z" fill="#A7A7A7"/>
<path opacity="0.2" d="M124.162 180.858C124.353 181.391 124.687 182.347 124.911 183.062C124.946 183.175 125.024 183.269 125.129 183.325C125.234 183.38 125.356 183.392 125.469 183.358C127.254 182.846 129.872 181.429 130.727 180.955C130.809 180.909 130.874 180.838 130.914 180.752C130.953 180.666 130.965 180.57 130.946 180.478L130.566 178.426C130.554 178.361 130.527 178.299 130.488 178.245C130.449 178.191 130.399 178.147 130.341 178.115C130.282 178.083 130.218 178.064 130.151 178.06C130.085 178.056 130.018 178.067 129.957 178.092L124.42 180.287C124.311 180.33 124.223 180.413 124.175 180.52C124.127 180.627 124.122 180.748 124.162 180.858Z" fill="black"/>
<path d="M122.525 107.751C122.58 108.026 122.292 109.206 121.861 110.251C122.622 110.767 125.245 111.338 128.556 111.481C128.869 110.97 129.064 109.62 129.309 109.071C129.551 110.012 130.066 110.861 130.79 111.511C132.646 111.482 134.496 111.3 136.322 110.965C142.772 109.756 144.294 107.751 144.294 107.751C144.294 107.751 143.059 104.029 142.708 102.676C139.371 102.925 122.699 103.411 122.525 107.751Z" fill="white"/>
<path d="M116.494 89.0142C117.435 92.0593 118.529 95.0548 119.772 97.9892C122.289 104.46 121.696 105.886 122.348 108.542C124.152 109.241 126.068 109.609 128.003 109.629C128.305 108.954 128.691 108.32 129.153 107.742C129.665 108.085 131.247 109.071 132.156 109.13C136.267 108.495 141.571 106.901 143.432 104.93C142.015 99.2116 141.503 92.9772 140.674 79.2609C140.48 76.0846 137.68 73.9444 134.66 74.6677C133.852 74.8622 133.002 75.0906 132.122 75.3402C128.764 76.3341 126.019 77.1758 123.181 78.47C122.242 78.893 121.278 79.3709 120.36 79.8404C118.755 80.6874 117.493 82.0642 116.788 83.7366C116.083 85.409 115.979 87.2739 116.494 89.0142Z" fill="#263238"/>
<path d="M151.667 111.579L151.028 110.877C150.779 110.6 150.593 110.271 150.485 109.915C150.377 109.558 150.349 109.182 150.402 108.813L151.007 104.647L152.809 103.424C154.399 104.938 155.076 108.098 155.076 108.098L155.355 108.944C155.479 109.31 155.478 109.707 155.352 110.073C155.227 110.439 154.984 110.752 154.661 110.966L153.185 111.811C152.945 111.957 152.661 112.013 152.384 111.971C152.106 111.928 151.852 111.79 151.667 111.579Z" fill="#B1B1B1"/>
<path d="M142.798 78.6688C143.343 79.1764 143.8 79.6247 144.278 80.1153C144.756 80.6059 145.2 81.0923 145.652 81.5872C146.545 82.5853 147.408 83.6089 148.232 84.6747C149.057 85.7406 149.848 86.8233 150.597 87.9526C151.345 89.0819 152.047 90.2492 152.712 91.4462L152.796 91.5984C152.858 91.7114 152.907 91.8305 152.944 91.9537C153.269 93.1552 153.492 94.3819 153.612 95.6207C153.748 96.7881 153.807 97.9427 153.853 99.0847C153.9 100.227 153.9 101.369 153.875 102.506C153.849 103.644 153.799 104.769 153.689 105.924C153.657 106.27 153.501 106.594 153.251 106.836C153.001 107.078 152.673 107.222 152.325 107.242C151.978 107.263 151.635 107.158 151.358 106.947C151.081 106.736 150.889 106.433 150.817 106.093V106.068C150.584 104.993 150.394 103.898 150.161 102.819C149.928 101.741 149.738 100.662 149.514 99.5965C149.29 98.5306 149.061 97.4817 148.816 96.4539C148.598 95.4929 148.315 94.5476 147.97 93.6244L148.203 94.1277C147.526 93.1253 146.828 92.1356 146.088 91.167C145.348 90.1985 144.574 89.2426 143.775 88.3037C142.975 87.3647 142.163 86.4384 141.326 85.5333L140.057 84.1841C139.634 83.7611 139.211 83.279 138.809 82.8941L138.763 82.8433C138.209 82.3072 137.891 81.573 137.879 80.8024C137.866 80.0319 138.161 79.2879 138.697 78.7344C139.233 78.1808 139.967 77.8629 140.738 77.8506C141.509 77.8383 142.252 78.1326 142.806 78.6688H142.798Z" fill="#B1B1B1"/>
<path d="M134.3 74.7271C141.774 71.9187 149.95 84.6664 150.728 87.7032C150.944 90.5328 146.008 91.5817 146.008 91.5817C146.008 91.5817 133.89 85.0217 134.3 74.7271Z" fill="#263238"/>
<path d="M124.704 84.7635C124.658 84.7633 124.612 84.7512 124.572 84.7282C124.532 84.7052 124.499 84.6722 124.475 84.6324C124.458 84.6025 124.447 84.5694 124.442 84.535C124.438 84.5007 124.44 84.4658 124.449 84.4324C124.458 84.399 124.474 84.3677 124.495 84.3403C124.516 84.3129 124.542 84.29 124.573 84.2729C125.186 83.9134 127.762 81.3968 128.802 79.2863C128.817 79.255 128.839 79.227 128.865 79.204C128.891 79.181 128.922 79.1635 128.955 79.1525C128.988 79.1415 129.023 79.1371 129.058 79.1398C129.092 79.1424 129.126 79.152 129.157 79.1679C129.22 79.1996 129.267 79.2547 129.29 79.3212C129.312 79.3877 129.307 79.4603 129.276 79.5232C128.151 81.7564 125.469 84.3364 124.818 84.7297C124.783 84.7497 124.744 84.7613 124.704 84.7635Z" fill="#A7A7A7"/>
<path d="M123.794 84.6325C123.747 84.6318 123.701 84.6203 123.659 84.5987C122.868 84.1334 121.46 82.2513 121.642 79.8024C121.64 79.7651 121.647 79.728 121.661 79.6934C121.675 79.6588 121.696 79.6276 121.723 79.6018C121.75 79.5759 121.782 79.556 121.817 79.5433C121.852 79.5306 121.89 79.5255 121.927 79.5282C121.964 79.5308 122 79.5413 122.033 79.5589C122.066 79.5765 122.095 79.6008 122.118 79.6302C122.141 79.6596 122.157 79.6936 122.166 79.7298C122.175 79.766 122.177 79.8037 122.17 79.8405C121.997 82.2048 123.418 83.8416 123.93 84.1419C123.981 84.1706 124.021 84.2156 124.043 84.2696C124.066 84.3236 124.069 84.3837 124.054 84.4401C124.038 84.4965 124.004 84.5461 123.957 84.581C123.91 84.6158 123.853 84.634 123.794 84.6325Z" fill="#A7A7A7"/>
<path d="M127.3 65.6548C127.795 68.7719 129.106 74.2365 131.644 75.5011C131.644 75.5011 128.777 76.0425 124.247 81.6466C121.73 79.8279 122.707 78.6267 122.707 78.6267C125.702 76.7192 125.033 74.7017 123.688 72.7054L127.3 65.6548Z" fill="#B1B1B1"/>
<path d="M125.211 80.5002C127.212 80.1027 128.815 82.7715 128.815 82.7715C128.815 82.7715 132.258 77.9372 132.909 75.1584C132.22 75.0351 131.538 74.8756 130.866 74.6804C130.866 74.6804 125.939 79.0114 125.211 80.5002Z" fill="white"/>
<path d="M123.291 80.826C123.291 80.826 121.802 81.8453 122.022 84.3704C120.118 80.3269 121.831 78.927 121.831 78.927C122.253 78.4541 122.834 78.153 123.464 78.0811C123.121 78.4473 122.916 78.9215 122.884 79.4224C122.853 79.9232 122.996 80.4195 123.291 80.826Z" fill="white"/>
<path opacity="0.2" d="M125.829 68.5308L123.689 72.7053C124.013 73.1687 124.296 73.6598 124.535 74.1729C125.655 73.4666 126.797 71.3941 126.463 70.0534C126.344 69.5121 126.129 68.9965 125.829 68.5308Z" fill="black"/>
<path d="M116.16 70.0746H115.174C115.157 70.0743 115.141 70.0704 115.125 70.0631C115.11 70.0558 115.096 70.0453 115.086 70.0323C115.075 70.0186 115.068 70.0028 115.064 69.986C115.061 69.9692 115.061 69.9518 115.064 69.935L115.555 67.6722C115.56 67.6468 115.574 67.624 115.594 67.6078C115.614 67.5915 115.639 67.5829 115.665 67.5834C115.691 67.5835 115.717 67.5923 115.737 67.6083C115.758 67.6244 115.773 67.6469 115.779 67.6722L116.27 69.935C116.274 69.9518 116.274 69.9692 116.27 69.986C116.266 70.0028 116.259 70.0186 116.249 70.0323C116.237 70.0449 116.224 70.0551 116.208 70.0624C116.193 70.0696 116.177 70.0738 116.16 70.0746ZM115.314 69.842H116.02L115.673 68.2432L115.314 69.842Z" fill="white"/>
<path d="M127.178 59.0102C128.345 63.8784 128.937 65.9086 127.343 69.2076C124.936 74.173 118.884 74.8328 116.321 70.4764C114.016 66.5599 112.514 59.2555 116.46 55.7027C120.407 52.1499 126.011 54.142 127.178 59.0102Z" fill="#B1B1B1"/>
<path d="M113.534 61.0995C118.013 60.224 120.724 55.8845 122.838 56.024C122.517 59.3146 125.097 63.0324 127.639 63.1212C131.078 63.2396 127.893 54.789 125.583 53.4525C123.147 52.0272 112.743 51.9256 113.534 61.0995Z" fill="#263238"/>
<path d="M125.553 63.3073C125.172 63.2991 124.804 63.1703 124.5 62.9393C122.948 61.8269 122.009 58.3714 122.605 55.9648C122.609 55.9321 122.62 55.9005 122.637 55.8722C122.654 55.8438 122.677 55.8195 122.704 55.8006C122.731 55.7818 122.762 55.769 122.794 55.7629C122.827 55.7569 122.86 55.7579 122.892 55.7657C122.924 55.7736 122.954 55.7882 122.98 55.8085C123.006 55.8289 123.027 55.8545 123.043 55.8837C123.058 55.913 123.067 55.9451 123.069 55.9781C123.071 56.011 123.066 56.044 123.054 56.0748C122.508 58.2868 123.371 61.5732 124.767 62.5629C124.981 62.7324 125.243 62.8285 125.516 62.8369C125.789 62.8453 126.057 62.7655 126.281 62.6094C126.306 62.5929 126.334 62.5815 126.364 62.576C126.394 62.5705 126.424 62.5709 126.454 62.5772C126.483 62.5834 126.511 62.5955 126.536 62.6127C126.561 62.6298 126.582 62.6517 126.598 62.6771C126.632 62.7287 126.643 62.7915 126.631 62.8518C126.618 62.912 126.582 62.9648 126.53 62.9985C126.241 63.1923 125.902 63.2994 125.553 63.3073Z" fill="#263238"/>
<path d="M120.398 62.9434C120.512 63.3664 120.398 63.747 120.153 63.8401C119.908 63.9331 119.603 63.6751 119.489 63.2733C119.375 62.8715 119.489 62.4655 119.734 62.3767C119.979 62.2879 120.284 62.5374 120.398 62.9434Z" fill="#263238"/>
<path d="M115.413 65.629C115.672 65.5677 115.804 65.1862 115.707 64.7771C115.61 64.3679 115.321 64.086 115.062 64.1473C114.803 64.2087 114.672 64.5901 114.768 64.9993C114.865 65.4084 115.154 65.6904 115.413 65.629Z" fill="#263238"/>
<path d="M115.145 64.1532L114.142 64.2082C114.142 64.2082 114.832 64.7834 115.145 64.1532Z" fill="#263238"/>
<path d="M117.201 64.9104C117.121 65.9595 116.908 66.9942 116.566 67.9895C117.218 68.3025 118.013 67.7611 118.013 67.7611L117.201 64.9104Z" fill="#B1B1B1"/>
<path d="M121.688 66.6631C121.904 66.582 122.128 66.5212 122.356 66.4813C122.371 66.4789 122.387 66.4797 122.402 66.4835C122.417 66.4874 122.431 66.4943 122.443 66.5038C122.455 66.5133 122.466 66.5252 122.473 66.5388C122.481 66.5524 122.485 66.5673 122.487 66.5828C122.491 66.6157 122.482 66.6488 122.462 66.6754C122.443 66.7021 122.414 66.7204 122.381 66.7266C121.866 66.8173 121.378 67.023 120.953 67.3284C120.529 67.6337 120.178 68.0309 119.928 68.4903C119.915 68.52 119.891 68.5435 119.861 68.5561C119.831 68.5687 119.798 68.5693 119.767 68.5579C119.753 68.5508 119.74 68.5408 119.729 68.5286C119.719 68.5164 119.711 68.5022 119.706 68.4869C119.7 68.4716 119.698 68.4554 119.7 68.4393C119.701 68.4232 119.705 68.4074 119.712 68.393C120.136 67.5936 120.839 66.9779 121.688 66.6631Z" fill="#263238"/>
<path d="M129.589 63.6287C129.5 64.1002 129.314 64.5479 129.042 64.9433C128.771 65.3387 128.419 65.6732 128.011 65.9253C126.979 66.5006 126.171 65.3501 126.218 63.9882C126.26 62.7574 126.848 60.9768 128.003 60.9768C129.157 60.9768 129.86 62.3725 129.589 63.6287Z" fill="#B1B1B1"/>
<path d="M117.877 61.1924C117.894 61.1653 117.916 61.1419 117.942 61.1237C117.968 61.1055 117.998 61.0929 118.029 61.0867C118.324 61.0441 118.604 60.9286 118.844 60.7506C119.083 60.5726 119.274 60.3378 119.4 60.0674C119.41 60.0382 119.427 60.0116 119.448 59.9892C119.47 59.9669 119.496 59.9494 119.524 59.9378C119.553 59.9262 119.584 59.9208 119.615 59.922C119.646 59.9232 119.676 59.931 119.704 59.9447C119.763 59.9733 119.81 60.0228 119.835 60.0837C119.86 60.1446 119.862 60.2126 119.839 60.2746C119.686 60.6189 119.448 60.919 119.148 61.1474C118.848 61.3757 118.495 61.525 118.122 61.5815C118.058 61.59 117.994 61.573 117.942 61.5342C117.891 61.4955 117.857 61.438 117.847 61.3743C117.835 61.3121 117.845 61.2475 117.877 61.1924Z" fill="#263238"/>
<path d="M113.623 63.0873C113.595 63.0999 113.564 63.1064 113.534 63.1064C113.503 63.1064 113.473 63.0999 113.445 63.0873C113.416 63.0741 113.39 63.0553 113.368 63.0319C113.347 63.0086 113.33 62.9812 113.319 62.9513C113.308 62.9214 113.303 62.8896 113.304 62.8578C113.306 62.826 113.313 62.7947 113.327 62.7659C113.466 62.3959 113.689 62.0631 113.978 61.7932C114.267 61.5233 114.614 61.3235 114.993 61.2094C115.024 61.2033 115.055 61.2037 115.086 61.2103C115.116 61.2169 115.145 61.2298 115.171 61.248C115.196 61.2663 115.217 61.2895 115.233 61.3163C115.249 61.3431 115.26 61.373 115.264 61.404C115.273 61.4691 115.258 61.5355 115.221 61.5901C115.184 61.6448 115.129 61.684 115.065 61.7C114.767 61.7937 114.494 61.9545 114.267 62.17C114.041 62.3856 113.866 62.6502 113.758 62.9435C113.747 62.9755 113.729 63.0049 113.705 63.0296C113.682 63.0544 113.654 63.074 113.623 63.0873Z" fill="#263238"/>
<path d="M119.852 62.3557L118.85 62.4107C118.85 62.4107 119.54 62.9986 119.852 62.3557Z" fill="#263238"/>
<path d="M123.786 82.8562C124.166 82.7828 124.553 82.746 124.941 82.7462C125.037 82.7489 125.13 82.7824 125.206 82.8418C125.282 82.9011 125.337 82.9832 125.364 83.0761C125.486 83.4991 125.715 84.2688 125.85 84.6368C126.04 85.1655 124.543 86.2525 124.543 86.2525C124.543 86.2525 123.308 85.6646 123.274 84.8864C123.271 84.3355 123.312 83.7853 123.397 83.2411C123.411 83.1432 123.456 83.0526 123.527 82.9831C123.597 82.9136 123.688 82.869 123.786 82.8562Z" fill="#A7A7A7"/>
<path d="M126.882 98.3403C126.78 95.8999 125.19 84.7551 125.19 84.7551L124.002 84.9032C123.913 86.4892 123.071 96.0183 123.071 98.5433C123.071 101.068 125.228 103.889 125.228 103.889C125.228 103.889 126.983 100.777 126.882 98.3403Z" fill="#A7A7A7"/>
<path d="M145.094 91.5773C145.455 91.881 145.856 92.133 146.287 92.3259C146.323 92.3344 146.361 92.3344 146.397 92.3259C146.862 92.2879 150.093 91.903 151.553 89.2003C151.578 89.1538 151.59 89.101 151.586 89.048C151.496 88.3566 151.271 87.6897 150.922 87.0855C150.903 87.0516 150.877 87.0225 150.844 87.0008C150.812 86.979 150.775 86.9651 150.736 86.9601C150.698 86.9552 150.658 86.9594 150.622 86.9723C150.585 86.9853 150.552 87.0067 150.525 87.0348C149.831 87.7877 147.611 90.0462 145.153 91.1374C145.11 91.1528 145.072 91.1797 145.043 91.2153C145.014 91.251 144.996 91.2938 144.99 91.3393C144.983 91.3847 144.99 91.431 145.008 91.473C145.027 91.515 145.057 91.5511 145.094 91.5773Z" fill="white"/>
<path d="M112.214 119.272L110.137 123.502C110.039 123.701 109.901 123.879 109.732 124.023C109.562 124.167 109.365 124.276 109.153 124.341C108.94 124.407 108.716 124.429 108.495 124.405C108.274 124.381 108.06 124.313 107.866 124.204L81.0974 109.117L83.4533 104.333L111.423 117.081C111.62 117.172 111.796 117.301 111.943 117.461C112.089 117.62 112.203 117.808 112.276 118.011C112.35 118.215 112.382 118.432 112.372 118.648C112.361 118.864 112.307 119.077 112.214 119.272Z" fill="#A7A7A7"/>
<path opacity="0.4" d="M112.214 119.272L110.137 123.502C110.039 123.701 109.901 123.879 109.732 124.023C109.562 124.167 109.365 124.276 109.153 124.341C108.94 124.407 108.716 124.429 108.495 124.405C108.274 124.381 108.06 124.313 107.866 124.204L81.0974 109.117L83.4533 104.333L111.423 117.081C111.62 117.172 111.796 117.301 111.943 117.461C112.089 117.62 112.203 117.808 112.276 118.011C112.35 118.215 112.382 118.432 112.372 118.648C112.361 118.864 112.307 119.077 112.214 119.272Z" fill="black"/>
<path d="M83.4743 87.1449C83.4405 87.0603 83.4109 86.98 83.3813 86.8996C83.2671 86.6035 83.1444 86.3117 83.0175 86.0199L82.9626 85.9057C82.8526 85.6519 82.7342 85.4024 82.6115 85.1528C82.5692 85.064 82.5227 84.9794 82.4762 84.8906C82.3704 84.6791 82.2605 84.4676 82.1463 84.2604C82.0997 84.1843 82.0574 84.1039 82.0152 84.0235C81.8587 83.7444 81.6937 83.4695 81.5245 83.1776L81.4653 83.0846C81.3131 82.8435 81.1566 82.6024 80.9958 82.3656L80.8224 82.1203C80.6871 81.9257 80.5433 81.7311 80.3995 81.5366L80.2345 81.3124C80.0357 81.0544 79.8327 80.7964 79.6255 80.5469L79.562 80.475C79.3717 80.2466 79.1729 80.0224 78.9741 79.8025L78.7711 79.5825C78.6019 79.4049 78.4328 79.2273 78.2593 79.0539L78.0563 78.8466C77.8195 78.6126 77.5784 78.3842 77.3331 78.1614L77.2823 78.1149C77.0497 77.9034 76.8128 77.692 76.5675 77.4974L76.3349 77.3071L75.7428 76.8418L75.5059 76.66C75.224 76.4569 74.942 76.2581 74.66 76.0636H74.6304C74.3555 75.8817 74.0763 75.6998 73.7845 75.5264L73.5138 75.3615C73.2981 75.2304 73.0909 75.1035 72.8498 74.9766L72.5749 74.8243C72.2661 74.6552 71.9574 74.4902 71.6359 74.3337C60.3304 68.7846 47.0032 72.7561 41.8813 83.2157L40.1895 86.5993C45.3114 76.1609 58.6386 72.1893 69.9483 77.7385C70.2656 77.895 70.5785 78.0599 70.8831 78.2249C70.9761 78.2756 71.0692 78.3264 71.158 78.3814C71.3821 78.504 71.6063 78.6351 71.8262 78.7662L72.0927 78.927C72.3761 79.1046 72.6552 79.2823 72.9386 79.4683L72.9682 79.4895C73.2558 79.684 73.5307 79.8828 73.8141 80.0859L74.051 80.2677C74.2498 80.42 74.4485 80.5723 74.6389 80.7287L74.88 80.9233C75.121 81.1263 75.3579 81.3463 75.5905 81.5366L75.6413 81.5831C75.8908 81.8073 76.1277 82.0399 76.3645 82.2725C76.4364 82.3402 76.4999 82.4079 76.5675 82.4755C76.7409 82.6489 76.9101 82.8266 77.0793 83.0042L77.2823 83.2284C77.4853 83.4483 77.6799 83.6513 77.8702 83.9009L77.9337 83.9728C78.1423 84.2237 78.3453 84.4775 78.5427 84.7341L78.7119 84.9625C78.8557 85.1528 78.9953 85.3474 79.1348 85.5462C79.1898 85.6265 79.2491 85.7069 79.304 85.7915C79.4648 86.0283 79.6212 86.2652 79.7735 86.5063C79.7947 86.5401 79.8158 86.5697 79.8327 86.6035C80.0019 86.8742 80.1669 87.1534 80.3233 87.4494L80.4545 87.6905C80.5687 87.8978 80.6786 88.1135 80.7886 88.3207L80.9197 88.583C81.0424 88.8325 81.1608 89.082 81.2708 89.3316C81.2919 89.3696 81.3088 89.4119 81.3257 89.45C81.4526 89.7376 81.5753 90.0337 81.6895 90.3255L81.7825 90.5708C81.8671 90.795 81.9433 90.9938 82.0194 91.2349C82.0532 91.3279 82.0828 91.421 82.1124 91.514C82.197 91.7678 82.2732 92.0216 82.3493 92.2796C82.3493 92.3261 82.3789 92.3726 82.3916 92.4234C82.4762 92.7237 82.5523 93.0282 82.62 93.3285C82.62 93.4131 82.658 93.4977 82.675 93.5822C82.7257 93.8106 82.7722 94.039 82.8145 94.2674C82.8145 94.3647 82.8526 94.462 82.8653 94.5593C82.9118 94.813 82.9499 95.071 82.9837 95.329C82.9837 95.384 82.9837 95.4348 83.0049 95.4898C83.0472 95.7985 83.0768 96.1073 83.1021 96.416V96.6698C83.1191 96.9038 83.1317 97.1364 83.1402 97.3677C83.1402 97.4649 83.1402 97.5664 83.1402 97.6637C83.1402 97.9175 83.1402 98.1713 83.1402 98.4293V98.6027C83.1402 98.7 83.1402 98.7972 83.1402 98.8903C83.1402 99.1737 83.1148 99.4613 83.0895 99.7362C83.0895 99.8715 83.0598 100.007 83.0472 100.159C83.0218 100.399 82.9922 100.64 82.9583 100.882C82.9583 101.03 82.9118 101.178 82.8864 101.305C82.8484 101.538 82.8061 101.771 82.7595 101.999C82.7299 102.147 82.6961 102.295 82.6665 102.422C82.6115 102.659 82.5523 102.896 82.4889 103.128C82.4466 103.276 82.4085 103.424 82.3662 103.577L82.2647 103.902C82.2013 104.11 82.1336 104.325 82.0617 104.52C82.0236 104.634 81.9813 104.744 81.939 104.858C81.8629 105.07 81.7783 105.281 81.6895 105.493C81.6514 105.59 81.6133 105.687 81.5711 105.784C81.4399 106.089 81.3046 106.393 81.1481 106.694L82.8188 103.289C82.9668 102.989 83.1021 102.684 83.2417 102.38C83.284 102.282 83.3221 102.185 83.3601 102.088C83.449 101.876 83.5293 101.665 83.6097 101.453C83.652 101.343 83.69 101.229 83.7323 101.119C83.8042 100.912 83.8719 100.696 83.9354 100.502L84.0369 100.172L84.0876 100.011C84.113 99.9181 84.1341 99.8208 84.1595 99.7235C84.2187 99.4909 84.2822 99.2583 84.3329 99.0214C84.3668 98.8734 84.4006 98.7296 84.4302 98.5985C84.4767 98.3658 84.519 98.1332 84.5571 97.9048C84.5825 97.7568 84.6078 97.6087 84.629 97.4819C84.6628 97.2408 84.6924 96.9997 84.7178 96.7544C84.7178 96.619 84.7474 96.4837 84.7601 96.3314C84.7855 96.0481 84.7982 95.7647 84.8109 95.4855C84.8109 95.4052 84.8109 95.3248 84.8109 95.2444V95.0203C84.8109 94.7665 84.8109 94.5085 84.8109 94.2547C84.8109 94.1575 84.8109 94.0602 84.8109 93.9629C84.8109 93.7303 84.8109 93.4934 84.7728 93.2608C84.7728 93.1762 84.7728 93.0916 84.7728 93.0113C84.7728 92.6983 84.7178 92.3895 84.6797 92.0808C84.6797 92.03 84.6798 91.975 84.6586 91.92C84.6248 91.6663 84.5867 91.4083 84.5402 91.1503L84.4894 90.8627C84.4471 90.6343 84.4006 90.4059 84.3498 90.1775C84.3498 90.0929 84.316 90.0083 84.2949 89.9237C84.223 89.6192 84.1468 89.3147 84.0665 89.0144C84.0499 88.9672 84.0357 88.9192 84.0242 88.8706C83.948 88.6168 83.8719 88.363 83.7873 88.1092C83.7577 88.0162 83.7281 87.9231 83.6943 87.8301C83.6351 87.5848 83.5547 87.3649 83.4743 87.1449Z" fill="#A7A7A7"/>
<path opacity="0.4" d="M83.4743 87.1449C83.4405 87.0603 83.4109 86.98 83.3813 86.8996C83.2671 86.6035 83.1444 86.3117 83.0175 86.0199L82.9626 85.9057C82.8526 85.6519 82.7342 85.4024 82.6115 85.1528C82.5692 85.064 82.5227 84.9794 82.4762 84.8906C82.3704 84.6791 82.2605 84.4676 82.1463 84.2604C82.0997 84.1843 82.0574 84.1039 82.0152 84.0235C81.8587 83.7444 81.6937 83.4695 81.5245 83.1776L81.4653 83.0846C81.3131 82.8435 81.1566 82.6024 80.9958 82.3656L80.8224 82.1203C80.6871 81.9257 80.5433 81.7311 80.3995 81.5366L80.2345 81.3124C80.0357 81.0544 79.8327 80.7964 79.6255 80.5469L79.562 80.475C79.3717 80.2466 79.1729 80.0224 78.9741 79.8025L78.7711 79.5825C78.6019 79.4049 78.4328 79.2273 78.2593 79.0539L78.0563 78.8466C77.8195 78.6126 77.5784 78.3842 77.3331 78.1614L77.2823 78.1149C77.0497 77.9034 76.8128 77.692 76.5675 77.4974L76.3349 77.3071L75.7428 76.8418L75.5059 76.66C75.224 76.4569 74.942 76.2581 74.66 76.0636H74.6304C74.3555 75.8817 74.0763 75.6998 73.7845 75.5264L73.5138 75.3615C73.2981 75.2304 73.0909 75.1035 72.8498 74.9766L72.5749 74.8243C72.2661 74.6552 71.9574 74.4902 71.6359 74.3337C60.3304 68.7846 47.0032 72.7561 41.8813 83.2157L40.1895 86.5993C45.3114 76.1609 58.6386 72.1893 69.9483 77.7385C70.2656 77.895 70.5785 78.0599 70.8831 78.2249C70.9761 78.2756 71.0692 78.3264 71.158 78.3814C71.3821 78.504 71.6063 78.6351 71.8262 78.7662L72.0927 78.927C72.3761 79.1046 72.6552 79.2823 72.9386 79.4683L72.9682 79.4895C73.2558 79.684 73.5307 79.8828 73.8141 80.0859L74.051 80.2677C74.2498 80.42 74.4485 80.5723 74.6389 80.7287L74.88 80.9233C75.121 81.1263 75.3579 81.3463 75.5905 81.5366L75.6413 81.5831C75.8908 81.8073 76.1277 82.0399 76.3645 82.2725C76.4364 82.3402 76.4999 82.4079 76.5675 82.4755C76.7409 82.6489 76.9101 82.8266 77.0793 83.0042L77.2823 83.2284C77.4853 83.4483 77.6799 83.6513 77.8702 83.9009L77.9337 83.9728C78.1423 84.2237 78.3453 84.4775 78.5427 84.7341L78.7119 84.9625C78.8557 85.1528 78.9953 85.3474 79.1348 85.5462C79.1898 85.6265 79.2491 85.7069 79.304 85.7915C79.4648 86.0283 79.6212 86.2652 79.7735 86.5063C79.7947 86.5401 79.8158 86.5697 79.8327 86.6035C80.0019 86.8742 80.1669 87.1534 80.3233 87.4494L80.4545 87.6905C80.5687 87.8978 80.6786 88.1135 80.7886 88.3207L80.9197 88.583C81.0424 88.8325 81.1608 89.082 81.2708 89.3316C81.2919 89.3696 81.3088 89.4119 81.3257 89.45C81.4526 89.7376 81.5753 90.0337 81.6895 90.3255L81.7825 90.5708C81.8671 90.795 81.9433 90.9938 82.0194 91.2349C82.0532 91.3279 82.0828 91.421 82.1124 91.514C82.197 91.7678 82.2732 92.0216 82.3493 92.2796C82.3493 92.3261 82.3789 92.3726 82.3916 92.4234C82.4762 92.7237 82.5523 93.0282 82.62 93.3285C82.62 93.4131 82.658 93.4977 82.675 93.5822C82.7257 93.8106 82.7722 94.039 82.8145 94.2674C82.8145 94.3647 82.8526 94.462 82.8653 94.5593C82.9118 94.813 82.9499 95.071 82.9837 95.329C82.9837 95.384 82.9837 95.4348 83.0049 95.4898C83.0472 95.7985 83.0768 96.1073 83.1021 96.416V96.6698C83.1191 96.9038 83.1317 97.1364 83.1402 97.3677C83.1402 97.4649 83.1402 97.5664 83.1402 97.6637C83.1402 97.9175 83.1402 98.1713 83.1402 98.4293V98.6027C83.1402 98.7 83.1402 98.7972 83.1402 98.8903C83.1402 99.1737 83.1148 99.4613 83.0895 99.7362C83.0895 99.8715 83.0598 100.007 83.0472 100.159C83.0218 100.399 82.9922 100.64 82.9583 100.882C82.9583 101.03 82.9118 101.178 82.8864 101.305C82.8484 101.538 82.8061 101.771 82.7595 101.999C82.7299 102.147 82.6961 102.295 82.6665 102.422C82.6115 102.659 82.5523 102.896 82.4889 103.128C82.4466 103.276 82.4085 103.424 82.3662 103.577L82.2647 103.902C82.2013 104.11 82.1336 104.325 82.0617 104.52C82.0236 104.634 81.9813 104.744 81.939 104.858C81.8629 105.07 81.7783 105.281 81.6895 105.493C81.6514 105.59 81.6133 105.687 81.5711 105.784C81.4399 106.089 81.3046 106.393 81.1481 106.694L82.8188 103.289C82.9668 102.989 83.1021 102.684 83.2417 102.38C83.284 102.282 83.3221 102.185 83.3601 102.088C83.449 101.876 83.5293 101.665 83.6097 101.453C83.652 101.343 83.69 101.229 83.7323 101.119C83.8042 100.912 83.8719 100.696 83.9354 100.502L84.0369 100.172L84.0876 100.011C84.113 99.9181 84.1341 99.8208 84.1595 99.7235C84.2187 99.4909 84.2822 99.2583 84.3329 99.0214C84.3668 98.8734 84.4006 98.7296 84.4302 98.5985C84.4767 98.3658 84.519 98.1332 84.5571 97.9048C84.5825 97.7568 84.6078 97.6087 84.629 97.4819C84.6628 97.2408 84.6924 96.9997 84.7178 96.7544C84.7178 96.619 84.7474 96.4837 84.7601 96.3314C84.7855 96.0481 84.7982 95.7647 84.8109 95.4855C84.8109 95.4052 84.8109 95.3248 84.8109 95.2444V95.0203C84.8109 94.7665 84.8109 94.5085 84.8109 94.2547C84.8109 94.1575 84.8109 94.0602 84.8109 93.9629C84.8109 93.7303 84.8109 93.4934 84.7728 93.2608C84.7728 93.1762 84.7728 93.0916 84.7728 93.0113C84.7728 92.6983 84.7178 92.3895 84.6797 92.0808C84.6797 92.03 84.6798 91.975 84.6586 91.92C84.6248 91.6663 84.5867 91.4083 84.5402 91.1503L84.4894 90.8627C84.4471 90.6343 84.4006 90.4059 84.3498 90.1775C84.3498 90.0929 84.316 90.0083 84.2949 89.9237C84.223 89.6192 84.1468 89.3147 84.0665 89.0144C84.0499 88.9672 84.0357 88.9192 84.0242 88.8706C83.948 88.6168 83.8719 88.363 83.7873 88.1092C83.7577 88.0162 83.7281 87.9231 83.6943 87.8301C83.6351 87.5848 83.5547 87.3649 83.4743 87.1449Z" fill="black"/>
<path d="M50.3401 117.758C49.9172 117.555 49.5238 117.335 49.1262 117.128L48.771 116.929C48.4791 116.764 48.1915 116.599 47.9251 116.426L47.5782 116.218C47.2103 115.99 46.8465 115.757 46.4913 115.516L46.449 115.491C46.0796 115.237 45.7201 114.979 45.3704 114.717L45.0574 114.48C44.7994 114.286 44.5457 114.083 44.2919 113.879L43.9874 113.63C43.6744 113.368 43.3656 113.105 43.0653 112.835L42.9977 112.776C42.6762 112.484 42.3632 112.188 42.0587 111.883L41.7923 111.617C41.5681 111.393 41.3693 111.164 41.1367 110.932L40.8702 110.644C40.608 110.356 40.3542 110.064 40.1047 109.773L40.0286 109.68C39.7536 109.354 39.4914 109.024 39.2376 108.69L39.0177 108.398C38.8316 108.148 38.6497 107.895 38.4721 107.641L38.2522 107.324C38.0407 107.015 37.8292 106.706 37.6431 106.393L37.5627 106.266C37.3428 105.915 37.1398 105.556 36.9283 105.196C36.8691 105.095 36.8141 104.989 36.7591 104.883C36.6097 104.615 36.4687 104.345 36.3362 104.071C36.277 103.957 36.2178 103.843 36.1628 103.729C36.0063 103.407 35.854 103.086 35.706 102.76C35.706 102.709 35.6595 102.659 35.6341 102.604C35.4691 102.231 35.3126 101.851 35.1646 101.47C35.1223 101.364 35.0842 101.254 35.0462 101.149C34.9362 100.865 34.8347 100.578 34.7374 100.303C34.6951 100.18 34.6528 100.062 34.6148 99.939C34.5104 99.6119 34.4089 99.282 34.3102 98.9493C34.3102 98.8901 34.2722 98.8266 34.2553 98.7632C34.1453 98.3741 34.048 97.9807 33.9592 97.5874C33.9338 97.4774 33.9084 97.3675 33.8873 97.2617C33.8196 96.9656 33.7604 96.6654 33.7054 96.3693C33.7054 96.2466 33.6589 96.1197 33.6377 95.9971C33.5842 95.6615 33.5334 95.3274 33.4855 94.9947C33.4855 94.927 33.4855 94.8551 33.4559 94.7874C33.4051 94.3899 33.3671 93.9881 33.3375 93.5863C33.3375 93.4763 33.3375 93.3706 33.3375 93.2606C33.3163 92.9561 33.2994 92.6558 33.2909 92.3512V91.9706C33.2909 91.6407 33.2909 91.3108 33.2909 90.9767V90.7483C33.2909 90.6256 33.2909 90.5029 33.2909 90.3803C33.2909 90.0123 33.3248 89.6401 33.3586 89.2722C33.3586 89.0987 33.3967 88.9211 33.4136 88.7435C33.4474 88.4305 33.4855 88.1175 33.5278 87.8045C33.5574 87.6184 33.587 87.4281 33.6208 87.2378C33.6716 86.9389 33.7266 86.6386 33.7858 86.3369C33.8238 86.1465 33.8661 85.9562 33.9084 85.7659C33.9789 85.4614 34.0551 85.1568 34.1368 84.8523C34.1918 84.6578 34.2383 84.4632 34.2976 84.2729C34.3568 84.0825 34.3821 83.9895 34.4287 83.8499C34.5133 83.5835 34.5978 83.317 34.6909 83.0505C34.7459 82.9025 34.7966 82.7587 34.8474 82.6276C34.9531 82.3484 35.0589 82.0777 35.1731 81.7817L35.3253 81.4053C35.4987 81.0077 35.6764 80.6143 35.8667 80.2252L34.1749 83.6088C33.9846 84.0022 33.8069 84.3955 33.6377 84.7889C33.5828 84.9158 33.532 85.0426 33.4813 85.1653C33.3671 85.4402 33.2613 85.7151 33.1598 86.0112C33.1048 86.155 33.0541 86.303 33.0033 86.4341C32.9103 86.7006 32.8214 86.9671 32.7369 87.2378C32.6903 87.3773 32.648 87.5211 32.6057 87.6607C32.6057 87.7326 32.5592 87.8003 32.5423 87.8722C32.5254 87.9441 32.4789 88.1175 32.4493 88.2444C32.3647 88.5489 32.2885 88.8492 32.2166 89.1537C32.1743 89.3441 32.1363 89.5344 32.094 89.7247C32.0348 90.0236 31.9798 90.3239 31.929 90.6256C31.8952 90.8159 31.8656 91.0063 31.836 91.1966C31.7937 91.5096 31.7556 91.8226 31.7218 92.1355C31.7218 92.309 31.6837 92.4866 31.6668 92.6642C31.6372 93.0322 31.616 93.4002 31.5991 93.7681C31.5991 93.8739 31.5991 93.9754 31.5991 94.0769C31.5991 94.098 31.5991 94.1192 31.5991 94.1403V94.3687C31.5991 94.6986 31.5991 95.0285 31.5991 95.3627C31.5991 95.4895 31.5991 95.6164 31.5991 95.7433C31.5991 96.0436 31.6245 96.3481 31.6456 96.6484C31.6456 96.7584 31.6456 96.8684 31.6456 96.9741C31.6753 97.3971 31.7175 97.7777 31.7641 98.1795C31.7641 98.2472 31.7641 98.3149 31.7937 98.3868C31.8402 98.7209 31.891 99.055 31.9459 99.3849C31.9671 99.5118 31.9925 99.6345 32.0136 99.7614C32.0686 100.057 32.1278 100.353 32.1955 100.65C32.1955 100.76 32.242 100.869 32.2674 100.979C32.3562 101.373 32.4577 101.766 32.5635 102.155L32.6184 102.337C32.7157 102.671 32.8172 103.001 32.923 103.331C32.961 103.454 33.0033 103.572 33.0456 103.691C33.1429 103.978 33.2444 104.266 33.3544 104.536C33.3924 104.646 33.4347 104.752 33.4728 104.862C33.6251 105.243 33.7773 105.619 33.9423 105.996C33.9677 106.046 33.993 106.097 34.0142 106.148C34.1622 106.474 34.3145 106.799 34.471 107.121L34.6444 107.463C34.7854 107.745 34.9263 108.016 35.0673 108.275L35.2365 108.588C35.4395 108.948 35.6595 109.303 35.8709 109.658L35.9513 109.785C36.1459 110.098 36.3489 110.407 36.5603 110.712L36.7803 111.029C36.9579 111.283 37.1398 111.536 37.3259 111.786L37.5458 112.078C37.8038 112.412 38.0661 112.746 38.3367 113.072L38.4129 113.16C38.6624 113.457 38.9162 113.748 39.1784 114.036L39.4449 114.319C39.6606 114.552 39.8678 114.78 40.1047 115.009L40.3669 115.275C40.6757 115.576 40.9844 115.876 41.3059 116.163L41.3693 116.223C41.6738 116.505 41.9826 116.771 42.2956 117.022L42.6043 117.272C42.8539 117.475 43.1076 117.673 43.3656 117.872L43.6786 118.109C44.0297 118.371 44.3892 118.629 44.7571 118.879L44.7994 118.904C45.1547 119.145 45.5185 119.378 45.8864 119.606L46.2333 119.818C46.5166 119.987 46.8042 120.156 47.0792 120.317L47.4344 120.516C47.832 120.736 48.238 120.947 48.6525 121.15C63.3078 128.34 80.5769 123.197 87.2257 109.658L88.8922 106.254C82.2687 119.809 64.9996 124.952 50.3401 117.758Z" fill="#A7A7A7"/>
<path opacity="0.4" d="M50.3401 117.758C49.9172 117.555 49.5238 117.335 49.1262 117.128L48.771 116.929C48.4791 116.764 48.1915 116.599 47.9251 116.426L47.5782 116.218C47.2103 115.99 46.8465 115.757 46.4913 115.516L46.449 115.491C46.0796 115.237 45.7201 114.979 45.3704 114.717L45.0574 114.48C44.7994 114.286 44.5457 114.083 44.2919 113.879L43.9874 113.63C43.6744 113.368 43.3656 113.105 43.0653 112.835L42.9977 112.776C42.6762 112.484 42.3632 112.188 42.0587 111.883L41.7923 111.617C41.5681 111.393 41.3693 111.164 41.1367 110.932L40.8702 110.644C40.608 110.356 40.3542 110.064 40.1047 109.773L40.0286 109.68C39.7536 109.354 39.4914 109.024 39.2376 108.69L39.0177 108.398C38.8316 108.148 38.6497 107.895 38.4721 107.641L38.2522 107.324C38.0407 107.015 37.8292 106.706 37.6431 106.393L37.5627 106.266C37.3428 105.915 37.1398 105.556 36.9283 105.196C36.8691 105.095 36.8141 104.989 36.7591 104.883C36.6097 104.615 36.4687 104.345 36.3362 104.071C36.277 103.957 36.2178 103.843 36.1628 103.729C36.0063 103.407 35.854 103.086 35.706 102.76C35.706 102.709 35.6595 102.659 35.6341 102.604C35.4691 102.231 35.3126 101.851 35.1646 101.47C35.1223 101.364 35.0842 101.254 35.0462 101.149C34.9362 100.865 34.8347 100.578 34.7374 100.303C34.6951 100.18 34.6528 100.062 34.6148 99.939C34.5104 99.6119 34.4089 99.282 34.3102 98.9493C34.3102 98.8901 34.2722 98.8266 34.2553 98.7632C34.1453 98.3741 34.048 97.9807 33.9592 97.5874C33.9338 97.4774 33.9084 97.3675 33.8873 97.2617C33.8196 96.9656 33.7604 96.6654 33.7054 96.3693C33.7054 96.2466 33.6589 96.1197 33.6377 95.9971C33.5842 95.6615 33.5334 95.3274 33.4855 94.9947C33.4855 94.927 33.4855 94.8551 33.4559 94.7874C33.4051 94.3899 33.3671 93.9881 33.3375 93.5863C33.3375 93.4763 33.3375 93.3706 33.3375 93.2606C33.3163 92.9561 33.2994 92.6558 33.2909 92.3512V91.9706C33.2909 91.6407 33.2909 91.3108 33.2909 90.9767V90.7483C33.2909 90.6256 33.2909 90.5029 33.2909 90.3803C33.2909 90.0123 33.3248 89.6401 33.3586 89.2722C33.3586 89.0987 33.3967 88.9211 33.4136 88.7435C33.4474 88.4305 33.4855 88.1175 33.5278 87.8045C33.5574 87.6184 33.587 87.4281 33.6208 87.2378C33.6716 86.9389 33.7266 86.6386 33.7858 86.3369C33.8238 86.1465 33.8661 85.9562 33.9084 85.7659C33.9789 85.4614 34.0551 85.1568 34.1368 84.8523C34.1918 84.6578 34.2383 84.4632 34.2976 84.2729C34.3568 84.0825 34.3821 83.9895 34.4287 83.8499C34.5133 83.5835 34.5978 83.317 34.6909 83.0505C34.7459 82.9025 34.7966 82.7587 34.8474 82.6276C34.9531 82.3484 35.0589 82.0777 35.1731 81.7817L35.3253 81.4053C35.4987 81.0077 35.6764 80.6143 35.8667 80.2252L34.1749 83.6088C33.9846 84.0022 33.8069 84.3955 33.6377 84.7889C33.5828 84.9158 33.532 85.0426 33.4813 85.1653C33.3671 85.4402 33.2613 85.7151 33.1598 86.0112C33.1048 86.155 33.0541 86.303 33.0033 86.4341C32.9103 86.7006 32.8214 86.9671 32.7369 87.2378C32.6903 87.3773 32.648 87.5211 32.6057 87.6607C32.6057 87.7326 32.5592 87.8003 32.5423 87.8722C32.5254 87.9441 32.4789 88.1175 32.4493 88.2444C32.3647 88.5489 32.2885 88.8492 32.2166 89.1537C32.1743 89.3441 32.1363 89.5344 32.094 89.7247C32.0348 90.0236 31.9798 90.3239 31.929 90.6256C31.8952 90.8159 31.8656 91.0063 31.836 91.1966C31.7937 91.5096 31.7556 91.8226 31.7218 92.1355C31.7218 92.309 31.6837 92.4866 31.6668 92.6642C31.6372 93.0322 31.616 93.4002 31.5991 93.7681C31.5991 93.8739 31.5991 93.9754 31.5991 94.0769C31.5991 94.098 31.5991 94.1192 31.5991 94.1403V94.3687C31.5991 94.6986 31.5991 95.0285 31.5991 95.3627C31.5991 95.4895 31.5991 95.6164 31.5991 95.7433C31.5991 96.0436 31.6245 96.3481 31.6456 96.6484C31.6456 96.7584 31.6456 96.8684 31.6456 96.9741C31.6753 97.3971 31.7175 97.7777 31.7641 98.1795C31.7641 98.2472 31.7641 98.3149 31.7937 98.3868C31.8402 98.7209 31.891 99.055 31.9459 99.3849C31.9671 99.5118 31.9925 99.6345 32.0136 99.7614C32.0686 100.057 32.1278 100.353 32.1955 100.65C32.1955 100.76 32.242 100.869 32.2674 100.979C32.3562 101.373 32.4577 101.766 32.5635 102.155L32.6184 102.337C32.7157 102.671 32.8172 103.001 32.923 103.331C32.961 103.454 33.0033 103.572 33.0456 103.691C33.1429 103.978 33.2444 104.266 33.3544 104.536C33.3924 104.646 33.4347 104.752 33.4728 104.862C33.6251 105.243 33.7773 105.619 33.9423 105.996C33.9677 106.046 33.993 106.097 34.0142 106.148C34.1622 106.474 34.3145 106.799 34.471 107.121L34.6444 107.463C34.7854 107.745 34.9263 108.016 35.0673 108.275L35.2365 108.588C35.4395 108.948 35.6595 109.303 35.8709 109.658L35.9513 109.785C36.1459 110.098 36.3489 110.407 36.5603 110.712L36.7803 111.029C36.9579 111.283 37.1398 111.536 37.3259 111.786L37.5458 112.078C37.8038 112.412 38.0661 112.746 38.3367 113.072L38.4129 113.16C38.6624 113.457 38.9162 113.748 39.1784 114.036L39.4449 114.319C39.6606 114.552 39.8678 114.78 40.1047 115.009L40.3669 115.275C40.6757 115.576 40.9844 115.876 41.3059 116.163L41.3693 116.223C41.6738 116.505 41.9826 116.771 42.2956 117.022L42.6043 117.272C42.8539 117.475 43.1076 117.673 43.3656 117.872L43.6786 118.109C44.0297 118.371 44.3892 118.629 44.7571 118.879L44.7994 118.904C45.1547 119.145 45.5185 119.378 45.8864 119.606L46.2333 119.818C46.5166 119.987 46.8042 120.156 47.0792 120.317L47.4344 120.516C47.832 120.736 48.238 120.947 48.6525 121.15C63.3078 128.34 80.5769 123.197 87.2257 109.658L88.8922 106.254C82.2687 119.809 64.9996 124.952 50.3401 117.758Z" fill="black"/>
<path d="M44.2243 69.199L43.9917 68.8437C45.0406 68.1579 46.1327 67.5405 47.2611 66.9954L47.4472 67.376C46.3338 67.9118 45.2572 68.5208 44.2243 69.199ZM50.6151 66.0691L50.4756 65.6715C55.5099 63.968 60.8934 63.5664 66.1248 64.5042L66.0529 64.9271C60.8929 64.0024 55.5829 64.3952 50.6151 66.0691Z" fill="#A7A7A7"/>
<path d="M35.8332 80.2252C42.4778 66.6908 59.7427 61.5477 74.4022 68.7421C89.0617 75.9365 95.5498 92.7404 88.9136 106.275C82.2775 119.809 65 124.961 50.3404 117.766C35.6809 110.572 29.1886 93.7597 35.8332 80.2252ZM82.8485 103.297C87.9705 92.8588 82.9627 79.8869 71.653 74.3377C60.3433 68.7886 47.0203 72.7601 41.8983 83.2197C36.7764 93.6793 41.7884 106.63 53.0939 112.179C64.3994 117.728 77.7181 113.761 82.8485 103.297Z" fill="#C1C1C1"/>
<path d="M113.905 115.867L111.791 120.148C111.694 120.344 111.56 120.519 111.394 120.662C111.229 120.805 111.037 120.913 110.829 120.981C110.621 121.048 110.402 121.073 110.184 121.054C109.967 121.036 109.755 120.973 109.562 120.871L82.366 106.55L85.1448 100.916L113.11 113.664C113.309 113.754 113.488 113.883 113.637 114.043C113.785 114.204 113.9 114.392 113.974 114.598C114.048 114.803 114.08 115.021 114.068 115.239C114.057 115.458 114.001 115.671 113.905 115.867Z" fill="#C1C1C1"/>
<path opacity="0.1" d="M83.2373 103.488C88.4608 92.8504 83.3558 79.6332 71.8176 73.9783C60.2795 68.3234 46.7155 72.3711 41.492 83.0083C36.2685 93.6456 41.382 106.867 52.9117 112.522C64.4414 118.177 78.0097 114.138 83.2331 103.488" fill="white"/>
<path opacity="0.1" d="M71.8305 73.9699C68.9897 72.5707 65.9073 71.728 62.7497 71.4872L39.7031 88.7309C39.2474 91.697 39.4364 94.7265 40.2572 97.6129L71.8305 73.9699Z" fill="white"/>
<path d="M105.933 107.958C104.216 107.341 103.036 108.483 101.847 109.075C101.644 109.176 101.703 109.777 102.109 109.836C102.354 109.894 102.608 109.902 102.856 109.859C103.104 109.816 103.341 109.723 103.552 109.587C103.975 109.976 105.489 110.627 106.597 109.456C106.566 108.892 106.33 108.36 105.933 107.958Z" fill="#B1B1B1"/>
<path d="M128.624 67.8667H127.643C127.626 67.8671 127.609 67.8636 127.593 67.8563C127.577 67.8491 127.563 67.8383 127.552 67.8248C127.541 67.8114 127.533 67.7956 127.529 67.7786C127.525 67.7617 127.525 67.7441 127.529 67.7271L128.02 65.4685C128.025 65.4424 128.04 65.419 128.06 65.4021C128.081 65.3852 128.107 65.3758 128.134 65.3755C128.16 65.3752 128.186 65.3844 128.206 65.4015C128.226 65.4186 128.24 65.4424 128.244 65.4685L128.734 67.7271C128.738 67.7439 128.739 67.7613 128.735 67.7782C128.731 67.795 128.724 67.8108 128.713 67.8244C128.703 67.8381 128.69 67.8491 128.674 67.8565C128.659 67.8639 128.642 67.8674 128.624 67.8667ZM127.779 67.6383H128.472L128.125 66.0395L127.779 67.6383Z" fill="white"/>
<path d="M100.261 55.3135L97.8629 59.12L97.4822 58.8789C96.9361 58.559 96.4484 58.1485 96.0399 57.6651C95.7284 57.2583 95.4934 56.7982 95.3463 56.3074C95.1052 55.2961 94.9286 54.2705 94.8176 53.2368C94.7203 52.4205 94.4835 51.8918 94.1155 51.6634C93.9628 51.5568 93.7892 51.4839 93.6061 51.4496C93.4231 51.4153 93.2348 51.4204 93.0539 51.4646C92.6557 51.6029 92.3247 51.8871 92.1276 52.2597C91.9833 52.4731 91.8848 52.714 91.8382 52.9673C91.7916 53.2207 91.798 53.4809 91.8569 53.7316C91.9754 54.2434 92.3983 54.7848 93.1258 55.3642L90.1905 58.9508C88.9363 58.0517 88.0571 56.7222 87.7205 55.2162C87.4188 53.7612 87.8586 52.099 89.0401 50.2296C89.9565 48.7718 91.0012 47.7849 92.1742 47.2689C92.8712 46.9207 93.647 46.7602 94.4251 46.8032C95.2031 46.8462 95.9565 47.0913 96.6109 47.5142C97.1866 47.8859 97.6513 48.4061 97.9559 49.0199C98.3721 50.0193 98.6166 51.0817 98.6792 52.1625C98.7168 52.8817 98.88 53.5888 99.1613 54.2518C99.4331 54.6923 99.8113 55.0573 100.261 55.3135ZM98.7934 59.8898L101.361 55.8125L104.96 58.0796L102.388 62.161L98.7934 59.8898Z" fill="#C1C1C1"/>
<path d="M134.207 45.3697L131.035 43.644L131.208 43.3268C131.437 42.8745 131.74 42.464 132.105 42.1129C132.414 41.8424 132.769 41.6303 133.154 41.487C133.954 41.2369 134.769 41.0377 135.594 40.8906C136.241 40.7679 136.652 40.5565 136.817 40.2477C136.895 40.123 136.946 39.9832 136.966 39.8374C136.987 39.6916 136.976 39.5432 136.935 39.4018C136.806 39.0882 136.56 38.8366 136.25 38.6997C136.072 38.5952 135.874 38.5284 135.669 38.5037C135.463 38.479 135.255 38.4967 135.057 38.5559C134.537 38.7802 134.103 39.1657 133.818 39.6556L130.798 37.507C131.452 36.4567 132.47 35.6842 133.657 35.3372C134.808 35.0243 136.161 35.2907 137.718 36.1366C138.781 36.6491 139.665 37.4701 140.255 38.4925C140.568 39.0326 140.736 39.6449 140.741 40.2692C140.746 40.8935 140.589 41.5084 140.285 42.0537C140.018 42.5354 139.625 42.9347 139.147 43.2084C138.37 43.5953 137.531 43.8457 136.669 43.9485C136.095 44.0141 135.538 44.1817 135.023 44.4434C134.676 44.6771 134.395 44.996 134.207 45.3697ZM130.468 44.4265L133.852 46.2748L132.223 49.2693L128.84 47.421L130.468 44.4265Z" fill="#C1C1C1"/>
<path d="M139.346 54.277L138.5 51.5785L138.771 51.494C139.147 51.3649 139.541 51.3005 139.938 51.3036C140.258 51.3178 140.572 51.3925 140.865 51.5236C141.45 51.8188 142.015 52.1522 142.556 52.5217C142.697 52.6441 142.862 52.7347 143.041 52.7872C143.22 52.8398 143.408 52.8531 143.593 52.8263C143.707 52.797 143.813 52.7443 143.906 52.6715C143.998 52.5986 144.075 52.5073 144.13 52.4033C144.226 52.1572 144.226 51.8839 144.13 51.6378C144.087 51.4816 144.012 51.336 143.91 51.2101C143.808 51.0842 143.681 50.9806 143.538 50.906C143.124 50.7485 142.67 50.7278 142.243 50.8468L141.723 47.9877C142.664 47.7548 143.658 47.8767 144.515 48.3303C145.33 48.7786 145.944 49.6654 146.359 50.9906C146.673 51.8564 146.719 52.7969 146.49 53.6891C146.369 54.1623 146.128 54.596 145.789 54.9475C145.45 55.299 145.025 55.5562 144.557 55.6939C144.145 55.8212 143.706 55.8314 143.288 55.7235C142.641 55.5153 142.033 55.1993 141.491 54.7887C141.133 54.5123 140.729 54.3018 140.298 54.167C139.976 54.1241 139.649 54.1619 139.346 54.277ZM137.76 51.7097L138.661 54.5984L136.123 55.3936L135.222 52.5048L137.76 51.7097Z" fill="#C1C1C1"/>
</svg>
