<svg width="38" height="17" viewBox="0 0 38 17" fill="none" xmlns="http://www.w3.org/2000/svg">
<path d="M21.1073 7.51987H34.4705C35.4062 7.51987 36.3037 7.13193 36.9655 6.44134C37.6274 5.75074 37.9995 4.81402 38 3.8371C38 2.85981 37.6281 1.92255 36.9662 1.2315C36.3043 0.540458 35.4066 0.152233 34.4705 0.152233H21.1073C20.1712 0.152233 19.2735 0.540458 18.6116 1.2315C17.9497 1.92255 17.5778 2.85981 17.5778 3.8371C17.5783 4.81402 17.9504 5.75074 18.6123 6.44134C19.2741 7.13193 20.1716 7.51987 21.1073 7.51987ZM3.52954 16.9041H18.8901C19.8259 16.9041 20.7233 16.5161 21.3852 15.8255C22.0471 15.1349 22.4191 14.1982 22.4197 13.2213C22.4197 12.244 22.0478 11.3068 21.3859 10.6157C20.724 9.92466 19.8262 9.53643 18.8901 9.53643H3.52954C2.59345 9.53643 1.6957 9.92466 1.03378 10.6157C0.371861 11.3068 0 12.244 0 13.2213H0C0.000529568 14.1982 0.372625 15.1349 1.03448 15.8255C1.69634 16.5161 2.59379 16.9041 3.52954 16.9041ZM2.07937 7.38641H3.63741V1.44308H5.65486V0H0.0619218V1.43891H2.07937V7.38641ZM7.69228 7.38641H9.25032V1.72044H9.27029L11.068 7.38224H12.2665L14.1242 1.72044H14.1441V7.38224H15.7022V0H13.3352L11.6972 4.81722H11.6772L10.0493 0H7.69228V7.38641ZM30.4475 11.6093C30.2392 11.1557 29.9296 10.7609 29.5447 10.4582C29.1454 10.1533 28.6917 9.93494 28.2104 9.81587C27.6831 9.67836 27.1418 9.60834 26.5984 9.60734H24.2614V16.9896H26.8081C27.3197 16.9922 27.8286 16.9112 28.3162 16.7498C28.7766 16.6035 29.2068 16.3687 29.5846 16.0574C29.9521 15.746 30.25 15.3546 30.4575 14.9105C30.6819 14.417 30.7933 13.8759 30.7831 13.3297C30.7994 12.737 30.6846 12.1482 30.4475 11.6093ZM28.9634 14.3057C28.8466 14.584 28.6654 14.8276 28.4361 15.0147C28.1978 15.1976 27.9257 15.3268 27.6371 15.3943C27.3096 15.473 26.9744 15.5115 26.6384 15.509H25.8294V11.1297H26.7482C27.0635 11.128 27.3774 11.1722 27.681 11.261C27.9603 11.3397 28.2232 11.4719 28.4561 11.651C28.6696 11.8265 28.8429 12.0494 28.9634 12.3037C29.1006 12.597 29.1691 12.92 29.1632 13.2463C29.1719 13.6105 29.1037 13.9722 28.9634 14.3057ZM37.8782 14.2786C37.8076 14.077 37.7004 13.8914 37.5626 13.7322C37.4254 13.5739 37.2615 13.4431 37.0792 13.3464C36.8803 13.2416 36.6664 13.1712 36.446 13.1379V13.117C36.7886 13.0143 37.0953 12.81 37.3288 12.529C37.5591 12.2359 37.6785 11.865 37.6644 11.4863C37.6794 11.1466 37.5996 10.8098 37.4347 10.5166C37.2843 10.2775 37.078 10.0823 36.8355 9.94934C36.5745 9.80864 36.2919 9.71688 36.0005 9.67824C35.6948 9.63265 35.3865 9.60966 35.0777 9.60942H32.441V16.9917H35.3374C35.6543 16.9918 35.9703 16.9569 36.2802 16.8874C36.5818 16.8243 36.871 16.708 37.1351 16.5433C37.3851 16.3876 37.597 16.1734 37.7543 15.9177C37.9227 15.6233 38.006 15.2844 37.994 14.9417C37.9943 14.7157 37.9571 14.4914 37.8841 14.2786H37.8782ZM33.9991 10.9941H35.0577C35.1817 10.9946 35.3055 11.0072 35.4272 11.0316C35.5454 11.0538 35.6598 11.0939 35.7668 11.1505C35.8655 11.2067 35.9493 11.2877 36.0105 11.3862C36.078 11.4999 36.1114 11.632 36.1064 11.7657C36.1093 11.8965 36.0797 12.0258 36.0205 12.1411C35.9666 12.2423 35.8898 12.3282 35.7968 12.3913C35.7 12.4554 35.5931 12.5012 35.4812 12.5269C35.3653 12.5554 35.2466 12.5694 35.1276 12.5686H33.9991V10.9941ZM36.3401 15.1649C36.28 15.2737 36.1966 15.3665 36.0964 15.436C35.9949 15.5073 35.8808 15.5569 35.7608 15.5819C35.6415 15.61 35.5196 15.624 35.3973 15.6237H33.9991V13.9553H35.1776C35.3112 13.9567 35.4447 13.9671 35.5771 13.9866C35.7176 14.0068 35.8552 14.0453 35.9865 14.1013C36.109 14.1549 36.2168 14.2394 36.3001 14.3474C36.3871 14.467 36.4316 14.6144 36.426 14.7645C36.4324 14.9036 36.4027 15.0419 36.3401 15.1649Z" fill="url(#paint0_linear)"/>
<defs>
<linearGradient id="paint0_linear" x1="0" y1="8.5" x2="38" y2="8.5" gradientUnits="userSpaceOnUse">
<stop stop-color="#90CEA1"/>
<stop offset="0.56" stop-color="#3CBEC9"/>
<stop offset="1" stop-color="#00B3E5"/>
</linearGradient>
</defs>
</svg>
